{
classes = (
{
code = "zero one two three four five six seven eight nine A B C D E F G H I J K L M N O P Q R S T U V W X Y Z uni0410 uni0411 uni0412 uni0413 uni0414 uni0415 uni0416 uni0417 uni0418 uni0419 uni041A uni041B uni041C uni041D uni041E uni041F uni0420 uni0421 uni0422 uni0423 uni0424 uni0425 uni0426 uni0427 uni0428 uni0429 uni042A uni042B uni042C uni042D uni042E uni042F uni0401 K_alt W_alt Acircumflex Adieresis Ccedilla Ecircumflex Icircumflex Odieresis Udieresis Abreve Idotaccent Scedilla uni0162 uni0218 uni021A uni04C1";
name = calt1;
},
{
code = "o a c d e g q s u y t acircumflex adieresis ccedilla ecircumflex odieresis udieresis u_alt y_alt s_alt c_alt t_alt t2.alt g_alt a_alt abreve scedilla uni0163 uni0219 uni021B uni0430 uni0431 uni0435 uni0437 uni043E uni0441 uni0444 uni044D uni0451 space zero one three five six seven eight nine f v endash emdash uni00AD hyphen.uc uni00AD.uc endash.uc emdash.uc minus hyphen t0163.alt t021b.alt a2_alt a00E2.alt a00E4.alt a0103.alt";
name = calt2;
},
{
code = "uniE000 uniE001 uniE002 uniE003 uniE004 uniE005 uniE006 uniE007 uniE008 uniE009 uniE010 uniE011 uniE012 uniE013 uniE014 uniE015 uniE016 uniE017 uniE018 uniE019 uniE020 uniE021 uniE022";
name = tnum1;
},
{
code = "zero one two three four five six seven eight nine period comma colon semicolon quotesingle quotedbl quoteright quotedblright quoteleft quotedblleft quotesinglbase quotedblbase colon.uc";
name = pnum1;
}
);
copyright = "Copyright (c) 2021-2022, Dmitri Voloshin, Andrey Kudryavtsev";
designer = "Andrey Kudryavtsev";
designerURL = "https://onest.md";
familyName = Onest;
customParameters = (
{
name = glyphOrder;
value = (
.notdef,
NULL,
CR,
space,
B,
D,
E,
F,
H,
I,
L,
M,
N,
P,
R,
U,
V,
W,
X,
Y,
Z,
b,
d,
h,
i,
l,
m,
n,
p,
q,
u,
v,
w,
x,
z,
period,
comma,
A,
breve,
circumflex,
uni0326,
acircumflex,
exclam,
quotedbl,
quotesingle,
numbersign,
percent,
asterisk,
plus,
slash,
colon,
semicolon,
less,
equal,
greater,
at,
bracketleft,
bracketright,
backslash,

glyphs = (
{
color = (168, 255, 153, 255);
glyphname = B;
layers = (
{
layerId = "DFDDFFA4-CA88-482C-9ABD-9EC74B35DAE9";
paths = (
{
closed = 1;
nodes = (
"66 0 LINE",
"66 708 LINE",
"418 708 LINE",
"463 708 OFFCURVE",
"541 689 OFFCURVE",
"599 645 OFFCURVE",
"632 573 OFFCURVE",
"632 519 QCURVE",
"632 481 OFFCURVE",
"597 410 OFFCURVE",
"566 390 QCURVE",
"608 370 OFFCURVE",
"662 289 OFFCURVE",
"662 225 QCURVE",
"662 167 OFFCURVE",
"620 85 OFFCURVE",
"589 59 QCURVE",
"544 22 OFFCURVE",
"425 0 OFFCURVE",
"360 0 QCURVE"
);
},
{
closed = 1;
nodes = (
"247 167 LINE",
"391 167 LINE",
"439 167 OFFCURVE",
"481 201 OFFCURVE",
"481 229 QCURVE",
"481 287 OFFCURVE",
"398 287 QCURVE",
"247 287 LINE"
);
},
{
closed = 1;
nodes = (
"374 433 LINE",
"416 433 OFFCURVE",
"453 468 OFFCURVE",
"452 492 QCURVE",
"451 521 OFFCURVE",
"411 541 OFFCURVE",
"376 541 QCURVE",
"247 541 LINE",
"247 433 LINE"
);
}
);
width = 691;
}
);
leftKerningGroup = _kern1;
unicode = 0042;
},
{
color = (168, 255, 153, 255);
glyphname = D;
layers = (
{
layerId = "DFDDFFA4-CA88-482C-9ABD-9EC74B35DAE9";
paths = (
{
closed = 1;
nodes = (
"67 0 LINE",
"67 708 LINE",
"344 708 LINE",
"428 708 OFFCURVE",
"563 663 OFFCURVE",
"657 575 OFFCURVE",
"708 443 OFFCURVE",
"708 356 QCURVE",
"708 178 OFFCURVE",
"517 0 OFFCURVE",
"346 0 QCURVE"
);
},
{
closed = 1;
nodes = (
"348 167 LINE",
"398 167 OFFCURVE",
"466 194 OFFCURVE",
"507 243 OFFCURVE",
"525 312 OFFCURVE",
"525 353 QCURVE",
"525 393 OFFCURVE",
"508 461 OFFCURVE",
"466 511 OFFCURVE",
"395 540 OFFCURVE",
"341 540 QCURVE",
"248 540 LINE",
"248 167 LINE"
);
}
);
width = 737;
}
);
leftKerningGroup = _kern1;
rightKerningGroup = _kern4;
unicode = 0044;
},
{
color = (168, 255, 153, 255);
glyphname = E;
layers = (
{
layerId = "DFDDFFA4-CA88-482C-9ABD-9EC74B35DAE9";
paths = (
{
closed = 1;
nodes = (
"601 708 LINE",
"601 540 LINE",
"248 540 LINE",
"248 432 LINE",
"539 432 LINE",
"539 272 LINE",
"248 272 LINE",
"248 167 LINE",
"601 167 LINE",
"601 0 LINE",
"67 0 LINE",
"67 708 LINE"
);
}
);
width = 629;
}
);
leftKerningGroup = _kern1;
unicode = 0045;
},
{
color = (168, 255, 153, 255);
glyphname = F;
layers = (
{
layerId = "DFDDFFA4-CA88-482C-9ABD-9EC74B35DAE9";
paths = (
{
closed = 1;
nodes = (
"590 708 LINE",
"590 540 LINE",
"248 540 LINE",
"248 411 LINE",
"530 411 LINE",
"530 245 LINE",
"248 245 LINE",
"248 0 LINE",
"67 0 LINE",
"67 708 LINE"
);
}
);
width = 607;
}
);
leftKerningGroup = _kern1;
unicode = 0046;
},
{
color = (168, 255, 153, 255);
glyphname = H;
layers = (
{
layerId = "DFDDFFA4-CA88-482C-9ABD-9EC74B35DAE9";
paths = (
{
closed = 1;
nodes = (
"248 433 LINE",
"505 433 LINE",
"505 708 LINE",
"686 708 LINE",
"686 0 LINE",
"505 0 LINE",
"505 267 LINE",
"248 267 LINE",
"248 0 LINE",
"67 0 LINE",
"67 708 LINE",
"248 708 LINE"
);
}
);
width = 753;
}
);
leftKerningGroup = _kern1;
rightKerningGroup = _kern2;
unicode = 0048;
},
{
color = (168, 255, 153, 255);
glyphname = I;
layers = (
{
layerId = "DFDDFFA4-CA88-482C-9ABD-9EC74B35DAE9";
paths = (
{
closed = 1;
nodes = (
"248 0 LINE",
"67 0 LINE",
"67 708 LINE",
"248 708 LINE"
);
}
);
width = 315;
}
);
leftKerningGroup = _kern1;
rightKerningGroup = _kern2;
unicode = 0049;
},
{
color = (168, 255, 153, 255);
glyphname = L;
layers = (
{
layerId = "DFDDFFA4-CA88-482C-9ABD-9EC74B35DAE9";
paths = (
{
closed = 1;
nodes = (
"248 167 LINE",
"587 167 LINE",
"587 0 LINE",
"67 0 LINE",
"67 708 LINE",
"248 708 LINE"
);
}
);
width = 607;
}
);
unicode = 004C;
},
{
color = (168, 255, 153, 255);
glyphname = M;
layers = (
{
layerId = "DFDDFFA4-CA88-482C-9ABD-9EC74B35DAE9";
paths = (
{
closed = 1;
nodes = (
"296 708 LINE",
"469 398 LINE",
"641 708 LINE",
"861 708 LINE",
"861 0 LINE",
"680 0 LINE",
"680 451 LINE",
"501 140 LINE",
"430 140 LINE",
"248 451 LINE",
"248 0 LINE",
"67 0 LINE",
"67 708 LINE"
);
}
);
width = 928;
}
);
leftKerningGroup = _kern1;
rightKerningGroup = _kern2;
unicode = 004D;
},
{
color = (168, 255, 153, 255);
glyphname = N;
layers = (
{
layerId = "DFDDFFA4-CA88-482C-9ABD-9EC74B35DAE9";
paths = (
{
closed = 1;
nodes = (
"236 708 LINE",
"535 303 LINE",
"535 708 LINE",
"716 708 LINE",
"716 0 LINE",
"552 0 LINE",
"248 399 LINE",
"248 0 LINE",
"67 0 LINE",
"67 708 LINE"
);
}
);
width = 783;
}
);
leftKerningGroup = _kern1;
rightKerningGroup = _kern2;
unicode = 004E;
},
{
color = (168, 255, 153, 255);
glyphname = P;
layers = (
{
layerId = "DFDDFFA4-CA88-482C-9ABD-9EC74B35DAE9";
paths = (
{
closed = 1;
nodes = (
"364 708 LINE",
"426 708 OFFCURVE",
"529 683 OFFCURVE",
"604 624 OFFCURVE",
"645 528 OFFCURVE",
"645 457 QCURVE",
"644 384 OFFCURVE",
"589 280 OFFCURVE",
"542 248 QCURVE",
"505 222 OFFCURVE",
"409 199 OFFCURVE",
"357 199 QCURVE",
"248 199 LINE",
"248 0 LINE",
"67 0 LINE",
"67 708 LINE"
);
},
{
closed = 1;
nodes = (
"357 360 LINE",
"409 360 OFFCURVE",
"466 409 OFFCURVE",
"467 452 QCURVE",
"468 497 OFFCURVE",
"416 540 OFFCURVE",
"356 540 QCURVE",
"248 540 LINE",
"248 360 LINE"
);
}
);
width = 669;
}
);
leftKerningGroup = _kern1;
unicode = 0050;
},
{
color = (168, 255, 153, 255);
glyphname = R;
layers = (
{
layerId = "DFDDFFA4-CA88-482C-9ABD-9EC74B35DAE9";
paths = (
{
closed = 1;
nodes = (
"366 708 LINE",
"414 708 OFFCURVE",
"515 691 OFFCURVE",
"597 641 OFFCURVE",
"651 549 OFFCURVE",
"652 475 QCURVE",
"650 405 OFFCURVE",
"587 295 OFFCURVE",
"513 267 QCURVE",
"677 0 LINE",
"471 0 LINE",
"335 239 LINE",
"248 239 LINE",
"248 0 LINE",
"67 0 LINE",
"67 708 LINE"
);
},
{
closed = 1;
nodes = (
"367 398 LINE",
"418 398 OFFCURVE",
"473 436 OFFCURVE",
"473 472 QCURVE",
"473 494 OFFCURVE",
"457 520 OFFCURVE",
"429 535 OFFCURVE",
"391 540 OFFCURVE",
"370 540 QCURVE",
"248 540 LINE",
"248 398 LINE"
);
}
);
width = 710;
}
);
leftKerningGroup = _kern1;
unicode = 0052;
},
{
color = (168, 255, 153, 255);
glyphname = U;
layers = (
{
layerId = "DFDDFFA4-CA88-482C-9ABD-9EC74B35DAE9";
paths = (
{
closed = 1;
nodes = (
"214 -8 OFFCURVE",
"62 161 OFFCURVE",
"62 326 QCURVE",
"62 708 LINE",
"243 708 LINE",
"243 315 LINE",
"243 286 OFFCURVE",
"255 231 OFFCURVE",
"285 187 OFFCURVE",
"336 161 OFFCURVE",
"374 161 QCURVE",
"414 161 OFFCURVE",
"464 188 OFFCURVE",
"492 232 OFFCURVE",
"502 287 OFFCURVE",
"502 315 QCURVE",
"502 708 LINE",
"683 708 LINE",
"683 326 LINE",
"683 162 OFFCURVE",
"533 -8 OFFCURVE",
"372 -8 QCURVE"
);
}
);
width = 745;
}
);
unicode = 0055;
},
{
color = (168, 255, 153, 255);
glyphname = V;
layers = (
{
layerId = "DFDDFFA4-CA88-482C-9ABD-9EC74B35DAE9";
paths = (
{
closed = 1;
nodes = (
"540 708 LINE",
"736 708 LINE",
"484 0 LINE",
"254 0 LINE",
"0 708 LINE",
"197 708 LINE",
"372 152 LINE"
);
}
);
width = 736;
}
);
unicode = 0056;
},
{
color = (168, 255, 153, 255);
glyphname = W;
layers = (
{
layerId = "DFDDFFA4-CA88-482C-9ABD-9EC74B35DAE9";
paths = (
{
closed = 1;
nodes = (
"161 0 LINE",
"0 708 LINE",
"201 708 LINE",
"300 212 LINE",
"405 708 LINE",
"631 708 LINE",
"734 212 LINE",
"828 708 LINE",
"1018 708 LINE",
"860 0 LINE",
"618 0 LINE",
"515 478 LINE",
"413 0 LINE"
);
}
);
width = 1018;
}
);
leftKerningGroup = _kern19;
rightKerningGroup = _kern19;
unicode = 0057;
},
{
color = (168, 255, 153, 255);
glyphname = X;
layers = (
{
layerId = "DFDDFFA4-CA88-482C-9ABD-9EC74B35DAE9";
paths = (
{
closed = 1;
nodes = (
"500 708 LINE",
"712 708 LINE",
"471 354 LINE",
"719 0 LINE",
"501 0 LINE",
"356 225 LINE",
"205 0 LINE",
"0 0 LINE",
"250 355 LINE",
"8 708 LINE",
"225 708 LINE",
"364 483 LINE"
);
}
);
width = 719;
}
);
unicode = 0058;
},
{
color = (168, 255, 153, 255);
glyphname = Y;
layers = (
{
layerId = "DFDDFFA4-CA88-482C-9ABD-9EC74B35DAE9";
paths = (
{
closed = 1;
nodes = (
"522 708 LINE",
"727 708 LINE",
"453 264 LINE",
"453 0 LINE",
"272 0 LINE",
"272 263 LINE",
"0 708 LINE",
"209 708 LINE",
"363 427 LINE"
);
}
);
width = 727;
}
);
leftKerningGroup = _kern31;
rightKerningGroup = _kern31;
unicode = 0059;
},
{
color = (168, 255, 153, 255);
glyphname = Z;
layers = (
{
layerId = "DFDDFFA4-CA88-482C-9ABD-9EC74B35DAE9";
paths = (
{
closed = 1;
nodes = (
"33 540 LINE",
"33 708 LINE",
"607 708 LINE",
"607 567 LINE",
"262 167 LINE",
"601 167 LINE",
"601 0 LINE",
"24 0 LINE",
"24 142 LINE",
"370 540 LINE"
);
}
);
width = 631;
}
);
unicode = 005A;
},
{
color = (168, 255, 153, 255);
glyphname = b;
layers = (
{
layerId = "DFDDFFA4-CA88-482C-9ABD-9EC74B35DAE9";
paths = (
{
closed = 1;
nodes = (
"221 0 LINE",
"47 0 LINE",
"47 708 LINE",
"224 708 LINE",
"224 475 LINE",
"257 508 OFFCURVE",
"340 538 OFFCURVE",
"387 538 QCURVE",
"444 538 OFFCURVE",
"527 497 OFFCURVE",
"583 425 OFFCURVE",
"610 327 OFFCURVE",
"610 269 QCURVE",
"610 208 OFFCURVE",
"583 106 OFFCURVE",
"527 33 OFFCURVE",
"440 -8 OFFCURVE",
"381 -8 QCURVE",
"366 -8 OFFCURVE",
"328 -6 OFFCURVE",
"286 6 OFFCURVE",
"242 31 OFFCURVE",
"221 55 QCURVE"
);
},
{
closed = 1;
nodes = (
"306 378 OFFCURVE",
"264 360 OFFCURVE",
"237 329 OFFCURVE",
"224 289 OFFCURVE",
"224 267 QCURVE",
"224 243 OFFCURVE",
"236 201 OFFCURVE",
"264 170 OFFCURVE",
"306 150 OFFCURVE",
"335 150 QCURVE",
"365 150 OFFCURVE",
"404 173 OFFCURVE",
"427 208 OFFCURVE",
"436 249 OFFCURVE",
"436 270 QCURVE",
"435 289 OFFCURVE",
"424 328 OFFCURVE",
"400 359 OFFCURVE",
"361 378 OFFCURVE",
"332 378 QCURVE"
);
}
);
width = 637;
}
);
rightKerningGroup = _kern6;
unicode = 0062;
},
{
color = (168, 255, 153, 255);
glyphname = d;
layers = (
{
layerId = "DFDDFFA4-CA88-482C-9ABD-9EC74B35DAE9";
paths = (
{
closed = 1;
nodes = (
"419 0 LINE",
"419 46 LINE",
"362 -8 OFFCURVE",
"264 -8 QCURVE",
"218 -8 OFFCURVE",
"134 23 OFFCURVE",
"105 52 QCURVE",
"68 88 OFFCURVE",
"27 198 OFFCURVE",
"27 265 QCURVE",
"27 334 OFFCURVE",
"71 444 OFFCURVE",
"113 481 QCURVE",
"145 507 OFFCURVE",
"228 537 OFFCURVE",
"283 537 QCURVE",
"323 538 OFFCURVE",
"393 513 OFFCURVE",
"415 490 QCURVE",
"415 708 LINE",
"592 708 LINE",
"592 0 LINE"
);
},
{
closed = 1;
nodes = (
"280 376 OFFCURVE",
"238 355 OFFCURVE",
"213 321 OFFCURVE",
"203 281 OFFCURVE",
"203 261 QCURVE",
"203 240 OFFCURVE",
"214 202 OFFCURVE",
"239 172 OFFCURVE",
"279 153 OFFCURVE",
"307 153 QCURVE",
"336 153 OFFCURVE",
"378 173 OFFCURVE",
"403 205 OFFCURVE",
"415 245 OFFCURVE",
"415 267 QCURVE",
"415 286 OFFCURVE",
"403 325 OFFCURVE",
"378 357 OFFCURVE",
"338 376 OFFCURVE",
"310 376 QCURVE"
);
}
);
width = 639;
}
);
leftKerningGroup = _kern5;
unicode = 0064;
},
{
color = (168, 255, 153, 255);
glyphname = h;
layers = (
{
layerId = "DFDDFFA4-CA88-482C-9ABD-9EC74B35DAE9";
paths = (
{
closed = 1;
nodes = (
"224 479 LINE",
"242 498 OFFCURVE",
"284 522 OFFCURVE",
"329 535 OFFCURVE",
"362 538 OFFCURVE",
"375 538 QCURVE",
"423 538 OFFCURVE",
"492 507 OFFCURVE",
"518 478 QCURVE",
"547 444 OFFCURVE",
"570 347 OFFCURVE",
"570 291 QCURVE",
"570 0 LINE",
"393 0 LINE",
"393 276 LINE",
"393 292 OFFCURVE",
"385 327 OFFCURVE",
"366 357 OFFCURVE",
"333 376 OFFCURVE",
"308 376 QCURVE",
"285 376 OFFCURVE",
"249 356 OFFCURVE",
"230 324 OFFCURVE",
"224 288 OFFCURVE",
"224 272 QCURVE",
"224 0 LINE",
"47 0 LINE",
"47 708 LINE",
"224 708 LINE"
);
}
);
width = 614;
}
);
unicode = 0068;
},
{
color = (168, 255, 153, 255);
glyphname = i;
layers = (
{
layerId = "DFDDFFA4-CA88-482C-9ABD-9EC74B35DAE9";
paths = (
{
closed = 1;
nodes = (
"235 0 LINE",
"59 0 LINE",
"59 527 LINE",
"235 527 LINE"
);
},
{
closed = 1;
nodes = (
"168 777 OFFCURVE",
"206 763 OFFCURVE",
"235 735 OFFCURVE",
"253 697 OFFCURVE",
"253 672 QCURVE",
"253 620 OFFCURVE",
"189 567 OFFCURVE",
"146 567 QCURVE",
"125 567 OFFCURVE",
"87 580 OFFCURVE",
"57 606 OFFCURVE",
"39 645 OFFCURVE",
"39 672 QCURVE",
"39 697 OFFCURVE",
"58 735 OFFCURVE",
"88 763 OFFCURVE",
"126 777 OFFCURVE",
"146 777 QCURVE"
);
}
);
width = 292;
}
);
unicode = 0069;
},
{
color = (168, 255, 153, 255);
glyphname = l;
layers = (
{
layerId = "DFDDFFA4-CA88-482C-9ABD-9EC74B35DAE9";
paths = (
{
closed = 1;
nodes = (
"224 0 LINE",
"47 0 LINE",
"47 708 LINE",
"224 708 LINE"
);
}
);
width = 272;
}
);
unicode = 006C;
},
{
color = (168, 255, 153, 255);
glyphname = m;
layers = (
{
layerId = "DFDDFFA4-CA88-482C-9ABD-9EC74B35DAE9";
paths = (
{
closed = 1;
nodes = (
"219 471 LINE",
"236 494 OFFCURVE",
"276 520 OFFCURVE",
"315 534 OFFCURVE",
"350 537 OFFCURVE",
"365 537 QCURVE",
"401 537 OFFCURVE",
"474 508 OFFCURVE",
"499 466 QCURVE",
"516 488 OFFCURVE",
"554 516 OFFCURVE",
"596 532 OFFCURVE",
"637 537 OFFCURVE",
"657 537 QCURVE",
"702 537 OFFCURVE",
"769 507 OFFCURVE",
"811 452 OFFCURVE",
"831 375 OFFCURVE",
"831 327 QCURVE",
"831 0 LINE",
"654 0 LINE",
"654 294 LINE",
"654 306 OFFCURVE",
"651 334 OFFCURVE",
"640 359 OFFCURVE",
"616 376 OFFCURVE",
"595 376 QCURVE",
"576 376 OFFCURVE",
"545 355 OFFCURVE",
"532 326 OFFCURVE",
"529 296 OFFCURVE",
"529 284 QCURVE",
"529 0 LINE",
"352 0 LINE",
"352 295 LINE",
"352 305 OFFCURVE",
"349 333 OFFCURVE",
"337 359 OFFCURVE",
"313 376 OFFCURVE",
"294 376 QCURVE",
"269 376 OFFCURVE",
"240 356 OFFCURVE",
"227 325 OFFCURVE",
"224 292 OFFCURVE",
"224 279 QCURVE",
"224 0 LINE",
"47 0 LINE",
"47 527 LINE",
"203 527 LINE"
);
}
);
width = 874;
}
);
unicode = 006D;
},
{
color = (168, 255, 153, 255);
glyphname = n;
layers = (
{
layerId = "DFDDFFA4-CA88-482C-9ABD-9EC74B35DAE9";
paths = (
{
closed = 1;
nodes = (
"220 479 LINE",
"238 498 OFFCURVE",
"280 522 OFFCURVE",
"321 534 OFFCURVE",
"359 538 OFFCURVE",
"372 538 QCURVE",
"420 538 OFFCURVE",
"492 507 OFFCURVE",
"518 478 QCURVE",
"547 444 OFFCURVE",
"570 347 OFFCURVE",
"570 291 QCURVE",
"570 0 LINE",
"393 0 LINE",
"393 276 LINE",
"393 292 OFFCURVE",
"386 327 OFFCURVE",
"368 357 OFFCURVE",
"336 376 OFFCURVE",
"311 376 QCURVE",
"289 376 OFFCURVE",
"251 355 OFFCURVE",
"232 324 OFFCURVE",
"224 288 OFFCURVE",
"224 272 QCURVE",
"224 0 LINE",
"47 0 LINE",
"47 527 LINE",
"210 527 LINE"
);
}
);
width = 614;
}
);
unicode = 006E;
},
{
color = (168, 255, 153, 255);
glyphname = p;
layers = (
{
layerId = "DFDDFFA4-CA88-482C-9ABD-9EC74B35DAE9";
paths = (
{
closed = 1;
nodes = (
"303 376 OFFCURVE",
"264 357 OFFCURVE",
"237 326 OFFCURVE",
"224 287 OFFCURVE",
"224 267 QCURVE",
"224 245 OFFCURVE",
"236 204 OFFCURVE",
"264 173 OFFCURVE",
"306 153 OFFCURVE",
"335 153 QCURVE",
"365 153 OFFCURVE",
"404 174 OFFCURVE",
"427 206 OFFCURVE",
"436 246 OFFCURVE",
"436 267 QCURVE",
"436 285 OFFCURVE",
"425 323 OFFCURVE",
"400 355 OFFCURVE",
"360 376 OFFCURVE",
"330 376 QCURVE"
);
},
{
closed = 1;
nodes = (
"220 469 LINE",
"256 508 OFFCURVE",
"332 538 OFFCURVE",
"380 538 QCURVE",
"438 537 OFFCURVE",
"522 495 OFFCURVE",
"580 422 OFFCURVE",
"610 324 OFFCURVE",
"610 269 QCURVE",
"610 209 OFFCURVE",
"580 106 OFFCURVE",
"517 31 OFFCURVE",
"428 -10 OFFCURVE",
"371 -8 QCURVE",
"324 -8 OFFCURVE",
"245 24 OFFCURVE",
"224 45 QCURVE",
"224 -201 LINE",
"47 -201 LINE",
"47 527 LINE",
"211 527 LINE"
);
}
);
width = 637;
}
);
rightKerningGroup = _kern6;
unicode = 0070;
},
{
color = (168, 255, 153, 255);
glyphname = q;
layers = (
{
layerId = "DFDDFFA4-CA88-482C-9ABD-9EC74B35DAE9";
paths = (
{
closed = 1;
nodes = (
"282 376 OFFCURVE",
"241 357 OFFCURVE",
"216 325 OFFCURVE",
"203 286 OFFCURVE",
"203 267 QCURVE",
"203 246 OFFCURVE",
"215 206 OFFCURVE",
"241 174 OFFCURVE",
"282 153 OFFCURVE",
"309 153 QCURVE",
"336 153 OFFCURVE",
"377 171 OFFCURVE",
"402 202 OFFCURVE",
"415 243 OFFCURVE",
"415 267 QCURVE",
"415 288 OFFCURVE",
"402 327 OFFCURVE",
"375 358 OFFCURVE",
"335 376 OFFCURVE",
"309 376 QCURVE"
);
},
{
closed = 1;
nodes = (
"429 527 LINE",
"592 527 LINE",
"592 -201 LINE",
"415 -201 LINE",
"415 42 LINE",
"383 12 OFFCURVE",
"304 -8 OFFCURVE",
"271 -8 QCURVE",
"210 -8 OFFCURVE",
"119 34 OFFCURVE",
"58 108 OFFCURVE",
"27 209 OFFCURVE",
"27 268 QCURVE",
"27 327 OFFCURVE",
"65 427 OFFCURVE",
"131 499 OFFCURVE",
"225 538 OFFCURVE",
"282 538 QCURVE",
"324 538 OFFCURVE",
"397 511 OFFCURVE",
"420 481 QCURVE"
);
}
);
width = 639;
}
);
leftKerningGroup = _kern5;
unicode = 0071;
},
{
color = (168, 255, 153, 255);
glyphname = u;
layers = (
{
layerId = "DFDDFFA4-CA88-482C-9ABD-9EC74B35DAE9";
paths = (
{
closed = 1;
nodes = (
"323 153 OFFCURVE",
"352 171 OFFCURVE",
"366 199 OFFCURVE",
"369 233 OFFCURVE",
"369 248 QCURVE",
"369 527 LINE",
"545 527 LINE",
"545 234 LINE",
"545 170 OFFCURVE",
"510 78 OFFCURVE",
"446 19 OFFCURVE",
"354 -8 OFFCURVE",
"295 -8 QCURVE",
"237 -8 OFFCURVE",
"145 19 OFFCURVE",
"82 78 OFFCURVE",
"45 170 OFFCURVE",
"45 234 QCURVE",
"45 527 LINE",
"222 527 LINE",
"222 248 LINE",
"222 229 OFFCURVE",
"230 194 OFFCURVE",
"247 168 OFFCURVE",
"276 153 OFFCURVE",
"297 153 QCURVE"
);
}
);
width = 591;
}
);
unicode = 0075;
},
{
color = (168, 255, 153, 255);
glyphname = v;
layers = (
{
layerId = "DFDDFFA4-CA88-482C-9ABD-9EC74B35DAE9";
paths = (
{
closed = 1;
nodes = (
"386 527 LINE",
"577 527 LINE",
"404 0 LINE",
"168 0 LINE",
"-5 527 LINE",
"187 527 LINE",
"286 136 LINE"
);
}
);
width = 572;
}
);
unicode = 0076;
},
{
color = (168, 255, 153, 255);
glyphname = w;
layers = (
{
layerId = "DFDDFFA4-CA88-482C-9ABD-9EC74B35DAE9";
paths = (
{
closed = 1;
nodes = (
"162 0 LINE",
"-5 527 LINE",
"187 527 LINE",
"265 212 LINE",
"352 527 LINE",
"538 527 LINE",
"624 212 LINE",
"701 527 LINE",
"888 527 LINE",
"721 0 LINE",
"530 0 LINE",
"441 309 LINE",
"354 0 LINE"
);
}
);
width = 883;
}
);
leftKerningGroup = _kern20;
rightKerningGroup = _kern20;
unicode = 0077;
},
{
color = (168, 255, 153, 255);
glyphname = x;
layers = (
{
layerId = "DFDDFFA4-CA88-482C-9ABD-9EC74B35DAE9";
paths = (
{
closed = 1;
nodes = (
"380 527 LINE",
"578 527 LINE",
"404 266 LINE",
"590 0 LINE",
"385 0 LINE",
"291 154 LINE",
"196 0 LINE",
"0 0 LINE",
"182 269 LINE",
"10 527 LINE",
"213 527 LINE",
"297 384 LINE"
);
}
);
width = 590;
}
);
unicode = 0078;
},
{
color = (168, 255, 153, 255);
glyphname = z;
layers = (
{
layerId = "DFDDFFA4-CA88-482C-9ABD-9EC74B35DAE9";
paths = (
{
closed = 1;
nodes = (
"478 400 LINE",
"255 159 LINE",
"478 159 LINE",
"478 0 LINE",
"27 0 LINE",
"27 128 LINE",
"250 369 LINE",
"27 369 LINE",
"27 527 LINE",
"478 527 LINE"
);
}
);
width = 505;
}
);
unicode = 007A;
},
{
color = (168, 255, 153, 255);
glyphname = period;
layers = (
{
layerId = "DFDDFFA4-CA88-482C-9ABD-9EC74B35DAE9";
paths = (
{
closed = 1;
nodes = (
"192 195 OFFCURVE",
"252 139 OFFCURVE",
"252 89 QCURVE",
"252 36 OFFCURVE",
"192 -17 OFFCURVE",
"150 -17 QCURVE",
"108 -17 OFFCURVE",
"47 36 OFFCURVE",
"47 89 QCURVE",
"47 114 OFFCURVE",
"64 153 OFFCURVE",
"92 180 OFFCURVE",
"130 195 OFFCURVE",
"150 195 QCURVE"
);
}
);
width = 299;
}
);
leftKerningGroup = _kern14;
rightKerningGroup = _kern14;
unicode = 002E;
},
{
color = (168, 255, 153, 255);
glyphname = comma;
layers = (
{
layerId = "DFDDFFA4-CA88-482C-9ABD-9EC74B35DAE9";
paths = (
{
closed = 1;
nodes = (
"47 -94 LINE",
"59 -90 OFFCURVE",
"91 -69 OFFCURVE",
"123 -43 OFFCURVE",
"147 -17 OFFCURVE",
"152 -6 QCURVE",
"119 -3 OFFCURVE",
"64 46 OFFCURVE",
"64 90 QCURVE",
"64 116 OFFCURVE",
"82 155 OFFCURVE",
"112 181 OFFCURVE",
"151 194 OFFCURVE",
"172 194 QCURVE",
"198 194 OFFCURVE",
"239 173 OFFCURVE",
"267 137 OFFCURVE",
"281 88 OFFCURVE",
"281 60 QCURVE",
"280 15 OFFCURVE",
"248 -61 OFFCURVE",
"197 -121 OFFCURVE",
"132 -164 OFFCURVE",
"98 -175 QCURVE"
);
}
);
width = 328;
}
);
leftKerningGroup = _kern14;
rightKerningGroup = _kern14;
unicode = 002C;
},
{
color = (168, 255, 153, 255);
glyphname = A;
layers = (
{
layerId = "DFDDFFA4-CA88-482C-9ABD-9EC74B35DAE9";
paths = (
{
closed = 1;
nodes = (
"189 0 LINE",
"-5 0 LINE",
"279 708 LINE",
"463 708 LINE",
"744 0 LINE",
"549 0 LINE",
"514 100 LINE",
"225 100 LINE"
);
},
{
closed = 1;
nodes = (
"457 263 LINE",
"371 506 LINE",
"282 263 LINE"
);
}
);
width = 739;
}
);
leftKerningGroup = _kern30;
rightKerningGroup = _kern30;
unicode = 0041;
},
{
color = (246, 153, 255, 255);
glyphname = breve;
layers = (
{
layerId = "DFDDFFA4-CA88-482C-9ABD-9EC74B35DAE9";
paths = (
{
closed = 1;
nodes = (
"202 577 OFFCURVE",
"93 671 OFFCURVE",
"93 769 QCURVE",
"235 769 LINE",
"235 757 LINE",
"235 730 OFFCURVE",
"269 698 OFFCURVE",
"296 698 QCURVE",
"324 698 OFFCURVE",
"357 729 OFFCURVE",
"357 757 QCURVE",
"357 769 LINE",
"499 769 LINE",
"499 672 OFFCURVE",
"391 577 OFFCURVE",
"297 577 QCURVE"
);
}
);
width = 592;
}
);
unicode = 02D8;
},
{
color = (246, 153, 255, 255);
glyphname = circumflex;
layers = (
{
layerId = "DFDDFFA4-CA88-482C-9ABD-9EC74B35DAE9";
paths = (
{
closed = 1;
nodes = (
"378 769 LINE",
"547 577 LINE",
"381 577 LINE",
"320 661 LINE",
"262 577 LINE",
"96 577 LINE",
"262 769 LINE"
);
}
);
width = 643;
}
);
unicode = 02C6;
},
{
color = (246, 153, 255, 255);
glyphname = uni0326;
layers = (
{
layerId = "DFDDFFA4-CA88-482C-9ABD-9EC74B35DAE9";
paths = (
{
closed = 1;
nodes = (
"-375 -238 LINE",
"-365 -234 OFFCURVE",
"-341 -219 OFFCURVE",
"-317 -200 OFFCURVE",
"-297 -181 OFFCURVE",
"-294 -173 QCURVE",
"-320 -172 OFFCURVE",
"-362 -137 OFFCURVE",
"-363 -105 QCURVE",
"-362 -67 OFFCURVE",
"-313 -29 OFFCURVE",
"-281 -30 QCURVE",
"-240 -30 OFFCURVE",
"-194 -86 OFFCURVE",
"-195 -126 QCURVE",
"-196 -158 OFFCURVE",
"-220 -213 OFFCURVE",
"-259 -257 OFFCURVE",
"-310 -286 OFFCURVE",
"-336 -295 QCURVE"
);
}
);
width = 0;
}
);
unicode = 0326;
},
{
color = (246, 153, 255, 255);
glyphname = acircumflex;
layers = (
{
layerId = "DFDDFFA4-CA88-482C-9ABD-9EC74B35DAE9";
paths = (
{
closed = 1;
nodes = (
"265 213 LINE",
"240 213 OFFCURVE",
"204 193 OFFCURVE",
"204 170 QCURVE",
"204 149 OFFCURVE",
"237 127 OFFCURVE",
"261 127 QCURVE",
"282 127 OFFCURVE",
"319 141 OFFCURVE",
"346 166 OFFCURVE",
"363 196 OFFCURVE",
"364 213 QCURVE"
);
},
{
closed = 1;
nodes = (
"367 69 LINE",
"347 39 OFFCURVE",
"300 8 OFFCURVE",
"253 -6 OFFCURVE",
"213 -8 OFFCURVE",
"203 -8 QCURVE",
"170 -8 OFFCURVE",
"107 12 OFFCURVE",
"59 54 OFFCURVE",
"29 117 OFFCURVE",
"29 162 QCURVE",
"29 208 OFFCURVE",
"76 276 OFFCURVE",
"109 293 QCURVE",
"133 305 OFFCURVE",
"188 318 OFFCURVE",
"245 322 OFFCURVE",
"306 322 OFFCURVE",
"338 322 QCURVE",
"362 322 LINE",
"361 350 OFFCURVE",
"322 389 OFFCURVE",
"287 389 QCURVE",
"261 389 OFFCURVE",
"218 367 OFFCURVE",
"215 350 QCURVE",
"39 350 LINE",
"45 399 OFFCURVE",
"91 470 OFFCURVE",
"159 515 OFFCURVE",
"241 537 OFFCURVE",
"285 537 QCURVE",
"338 537 OFFCURVE",
"417 515 OFFCURVE",
"446 493 QCURVE",
"530 432 OFFCURVE",
"530 283 QCURVE",
"530 0 LINE",
"367 0 LINE"
);
},
{
closed = 1;
nodes = (
"351 769 LINE",
"520 577 LINE",
"354 577 LINE",
"293 661 LINE",
"235 577 LINE",
"69 577 LINE",
"235 769 LINE"
);
}
);
width = 576;
}
);
leftKerningGroup = _kern27;
rightKerningGroup = _kern27;
unicode = 00E2;
},
{
color = (168, 255, 153, 255);
glyphname = exclam;
layers = (
{
layerId = "DFDDFFA4-CA88-482C-9ABD-9EC74B35DAE9";
paths = (
{
closed = 1;
nodes = (
"184 197 OFFCURVE",
"221 185 OFFCURVE",
"250 159 OFFCURVE",
"268 121 OFFCURVE",
"268 94 QCURVE",
"268 67 OFFCURVE",
"249 28 OFFCURVE",
"219 3 OFFCURVE",
"182 -9 OFFCURVE",
"164 -9 QCURVE",
"145 -9 OFFCURVE",
"107 3 OFFCURVE",
"76 28 OFFCURVE",
"57 67 OFFCURVE",
"57 94 QCURVE",
"57 121 OFFCURVE",
"76 159 OFFCURVE",
"106 185 OFFCURVE",
"144 197 OFFCURVE",
"164 197 QCURVE"
);
},
{
closed = 1;
nodes = (
"248 254 LINE",
"79 254 LINE",
"68 708 LINE",
"260 708 LINE"
);
}
);
width = 325;
}
);
unicode = 0021;
},
{
color = (168, 255, 153, 255);
glyphname = quotedbl;
layers = (
{
layerId = "DFDDFFA4-CA88-482C-9ABD-9EC74B35DAE9";
paths = (
{
closed = 1;
nodes = (
"375 411 LINE",
"271 411 LINE",
"245 708 LINE",
"408 708 LINE"
);
},
{
closed = 1;
nodes = (
"168 411 LINE",
"65 411 LINE",
"39 708 LINE",
"202 708 LINE"
);
}
);
width = 447;
}
);
unicode = 0022;
},
{
color = (168, 255, 153, 255);
glyphname = quotesingle;
layers = (
{
layerId = "DFDDFFA4-CA88-482C-9ABD-9EC74B35DAE9";
paths = (
{
closed = 1;
nodes = (
"182 411 LINE",
"79 411 LINE",
"47 708 LINE",
"216 708 LINE"
);
}
);
width = 263;
}
);
unicode = 0027;
},
{
color = (168, 255, 153, 255);
glyphname = numbersign;
layers = (
{
layerId = "DFDDFFA4-CA88-482C-9ABD-9EC74B35DAE9";
paths = (
{
closed = 1;
nodes = (
"572 549 LINE",
"661 549 LINE",
"661 393 LINE",
"553 393 LINE",
"543 314 LINE",
"633 314 LINE",
"633 158 LINE",
"525 158 LINE",
"518 116 OFFCURVE",
"509 41 OFFCURVE",
"503 0 QCURVE",
"362 0 LINE",
"381 158 LINE",
"273 158 LINE",
"267 118 OFFCURVE",
"258 40 OFFCURVE",
"253 0 QCURVE",
"107 0 LINE",
"129 158 LINE",
"39 158 LINE",
"39 314 LINE",
"150 314 LINE",
"147 314 LINE",
"157 393 LINE",
"67 393 LINE",
"67 549 LINE",
"176 549 LINE",
"197 708 LINE",
"339 708 LINE",
"320 549 LINE",
"429 549 LINE",
"450 708 LINE",
"593 708 LINE"
);
},
{
closed = 1;
nodes = (
"290 314 LINE",
"400 314 LINE",
"410 393 LINE",
"300 393 LINE"
);
}
);
width = 700;
}
);
unicode = 0023;
},
{
color = (168, 255, 153, 255);
glyphname = percent;
layers = (
{
layerId = "DFDDFFA4-CA88-482C-9ABD-9EC74B35DAE9";
paths = (
{
closed = 1;
nodes = (
"140 0 LINE",
"618 708 LINE",
"799 708 LINE",
"325 0 LINE"
);
},
{
closed = 1;
nodes = (
"266 717 OFFCURVE",
"335 692 OFFCURVE",
"385 645 OFFCURVE",
"413 576 OFFCURVE",
"413 531 QCURVE",
"413 487 OFFCURVE",
"384 418 OFFCURVE",
"334 370 OFFCURVE",
"266 345 OFFCURVE",
"226 345 QCURVE",
"186 345 OFFCURVE",
"117 370 OFFCURVE",
"67 418 OFFCURVE",
"39 487 OFFCURVE",
"39 531 QCURVE",
"39 574 OFFCURVE",
"68 643 OFFCURVE",
"118 691 OFFCURVE",
"187 717 OFFCURVE",
"226 717 QCURVE"
);
},
{
closed = 1;
nodes = (
"755 364 OFFCURVE",
"824 339 OFFCURVE",
"874 292 OFFCURVE",
"902 222 OFFCURVE",
"902 177 QCURVE",
"902 133 OFFCURVE",
"873 64 OFFCURVE",
"822 17 OFFCURVE",
"754 -8 OFFCURVE",
"715 -8 QCURVE",
"675 -8 OFFCURVE",
"607 17 OFFCURVE",
"556 64 OFFCURVE",
"527 133 OFFCURVE",
"527 177 QCURVE",
"527 220 OFFCURVE",
"556 290 OFFCURVE",
"607 338 OFFCURVE",
"676 364 OFFCURVE",
"715 364 QCURVE"
);
},
{
closed = 1;
nodes = (
"684 233 OFFCURVE",
"655 196 OFFCURVE",
"656 174 QCURVE",
"657 154 OFFCURVE",
"685 120 OFFCURVE",
"715 120 QCURVE",
"745 120 OFFCURVE",
"773 155 OFFCURVE",
"773 176 QCURVE",
"773 197 OFFCURVE",
"744 233 OFFCURVE",
"715 233 QCURVE"
);
},
{
closed = 1;
nodes = (
"195 587 OFFCURVE",
"166 550 OFFCURVE",
"167 528 QCURVE",
"168 508 OFFCURVE",
"196 474 OFFCURVE",
"226 474 QCURVE",
"256 474 OFFCURVE",
"284 509 OFFCURVE",
"284 530 QCURVE",
"284 551 OFFCURVE",
"255 587 OFFCURVE",
"226 587 QCURVE"
);
}
);
width = 941;
}
);
unicode = 0025;
},
{
color = (168, 255, 153, 255);
glyphname = asterisk;
layers = (
{
layerId = "DFDDFFA4-CA88-482C-9ABD-9EC74B35DAE9";
paths = (
{
closed = 1;
nodes = (
"327 727 LINE",
"307 626 LINE",
"397 676 LINE",
"446 525 LINE",
"344 512 LINE",
"419 443 LINE",
"291 349 LINE",
"248 442 LINE",
"204 349 LINE",
"76 443 LINE",
"151 512 LINE",
"49 525 LINE",
"98 676 LINE",
"188 626 LINE",
"168 727 LINE"
);
}
);
width = 495;
}
);
unicode = 002A;
},
{
color = (168, 255, 153, 255);
glyphname = plus;
layers = (
{
layerId = "DFDDFFA4-CA88-482C-9ABD-9EC74B35DAE9";
paths = (
{
closed = 1;
nodes = (
"375 282 LINE",
"375 113 LINE",
"218 113 LINE",
"218 282 LINE",
"54 282 LINE",
"54 440 LINE",
"218 440 LINE",
"218 607 LINE",
"375 607 LINE",
"375 440 LINE",
"539 440 LINE",
"539 282 LINE"
);
}
);
width = 593;
}
);
unicode = 002B;
},
{
color = (168, 255, 153, 255);
glyphname = slash;
layers = (
{
layerId = "DFDDFFA4-CA88-482C-9ABD-9EC74B35DAE9";
paths = (
{
closed = 1;
nodes = (
"192 -160 LINE",
"19 -160 LINE",
"343 779 LINE",
"517 779 LINE"
);
}
);
width = 536;
}
);
unicode = 002F;
},
{
color = (168, 255, 153, 255);
glyphname = colon;
layers = (
{
layerId = "DFDDFFA4-CA88-482C-9ABD-9EC74B35DAE9";
paths = (
{
closed = 1;
nodes = (
"174 531 OFFCURVE",
"212 516 OFFCURVE",
"241 489 OFFCURVE",
"258 450 OFFCURVE",
"258 425 QCURVE",
"258 372 OFFCURVE",
"195 319 OFFCURVE",
"153 319 QCURVE",
"111 319 OFFCURVE",
"47 372 OFFCURVE",
"47 425 QCURVE",
"47 450 OFFCURVE",
"65 489 OFFCURVE",
"95 516 OFFCURVE",
"133 531 OFFCURVE",
"153 531 QCURVE"
);
},
{
closed = 1;
nodes = (
"174 203 OFFCURVE",
"212 188 OFFCURVE",
"241 161 OFFCURVE",
"258 122 OFFCURVE",
"258 97 QCURVE",
"258 44 OFFCURVE",
"195 -9 OFFCURVE",
"153 -9 QCURVE",
"111 -9 OFFCURVE",
"47 44 OFFCURVE",
"47 97 QCURVE",
"47 122 OFFCURVE",
"65 161 OFFCURVE",
"95 188 OFFCURVE",
"133 203 OFFCURVE",
"153 203 QCURVE"
);
}
);
width = 305;
}
);
leftKerningGroup = _kern15;
unicode = 003A;
},
{
color = (168, 255, 153, 255);
glyphname = semicolon;
layers = (
{
layerId = "DFDDFFA4-CA88-482C-9ABD-9EC74B35DAE9";
paths = (
{
closed = 1;
nodes = (
"47 -94 LINE",
"59 -90 OFFCURVE",
"91 -69 OFFCURVE",
"123 -43 OFFCURVE",
"147 -17 OFFCURVE",
"152 -6 QCURVE",
"119 -3 OFFCURVE",
"65 46 OFFCURVE",
"65 90 QCURVE",
"65 116 OFFCURVE",
"83 155 OFFCURVE",
"112 181 OFFCURVE",
"151 194 OFFCURVE",
"172 194 QCURVE",
"198 194 OFFCURVE",
"239 173 OFFCURVE",
"266 137 OFFCURVE",
"280 88 OFFCURVE",
"280 60 QCURVE",
"279 15 OFFCURVE",
"248 -61 OFFCURVE",
"197 -121 OFFCURVE",
"132 -164 OFFCURVE",
"98 -175 QCURVE"
);
},
{
closed = 1;
nodes = (
"192 531 OFFCURVE",
"230 516 OFFCURVE",
"259 489 OFFCURVE",
"276 450 OFFCURVE",
"276 425 QCURVE",
"276 372 OFFCURVE",
"213 319 OFFCURVE",
"171 319 QCURVE",
"129 319 OFFCURVE",
"65 372 OFFCURVE",
"65 425 QCURVE",
"65 450 OFFCURVE",
"83 489 OFFCURVE",
"113 516 OFFCURVE",
"151 531 OFFCURVE",
"171 531 QCURVE"
);
}
);
width = 327;
}
);
leftKerningGroup = _kern15;
unicode = 003B;
},
{
color = (168, 255, 153, 255);
glyphname = less;
layers = (
{
layerId = "DFDDFFA4-CA88-482C-9ABD-9EC74B35DAE9";
paths = (
{
closed = 1;
nodes = (
"452 479 LINE",
"244 363 LINE",
"452 244 LINE",
"452 62 LINE",
"19 312 LINE",
"19 404 LINE",
"452 657 LINE"
);
}
);
width = 501;
}
);
unicode = 003C;
},
{
color = (168, 255, 153, 255);
glyphname = equal;
layers = (
{
layerId = "DFDDFFA4-CA88-482C-9ABD-9EC74B35DAE9";
paths = (
{
closed = 1;
nodes = (
"49 397 LINE",
"49 553 LINE",
"528 553 LINE",
"528 397 LINE"
);
},
{
closed = 1;
nodes = (
"49 136 LINE",
"49 294 LINE",
"528 294 LINE",
"528 136 LINE"
);
}
);
width = 577;
}
);
unicode = 003D;
},
{
color = (168, 255, 153, 255);
glyphname = greater;
layers = (
{
layerId = "DFDDFFA4-CA88-482C-9ABD-9EC74B35DAE9";
paths = (
{
closed = 1;
nodes = (
"49 242 LINE",
"257 359 LINE",
"49 477 LINE",
"49 658 LINE",
"481 409 LINE",
"481 317 LINE",
"49 63 LINE"
);
}
);
width = 500;
}
);
unicode = 003E;
},
{
color = (168, 255, 153, 255);
glyphname = at;
layers = (
{
layerId = "DFDDFFA4-CA88-482C-9ABD-9EC74B35DAE9";
paths = (
{
closed = 1;
nodes = (
"56 377 OFFCURVE",
"128 551 OFFCURVE",
"254 666 OFFCURVE",
"429 724 OFFCURVE",
"536 724 QCURVE",
"629 723 OFFCURVE",
"782 670 OFFCURVE",
"891 567 OFFCURVE",
"952 413 OFFCURVE",
"952 310 QCURVE",
"950 257 OFFCURVE",
"924 161 OFFCURVE",
"874 87 OFFCURVE",
"799 43 OFFCURVE",
"750 43 QCURVE",
"732 43 OFFCURVE",
"684 53 OFFCURVE",
"661 70 QCURVE",
"646 81 OFFCURVE",
"620 116 OFFCURVE",
"615 139 QCURVE",
"604 116 OFFCURVE",
"566 79 OFFCURVE",
"545 68 QCURVE",
"522 57 OFFCURVE",
"478 49 OFFCURVE",
"461 49 QCURVE",
"415 49 OFFCURVE",
"345 83 OFFCURVE",
"297 144 OFFCURVE",
"273 228 OFFCURVE",
"273 277 QCURVE",
"275 339 OFFCURVE",
"316 435 OFFCURVE",
"350 467 QCURVE",
"382 496 OFFCURVE",
"457 523 OFFCURVE",
"496 523 QCURVE",
"515 523 OFFCURVE",
"554 516 OFFCURVE",
"588 498 OFFCURVE",
"615 468 OFFCURVE",
"622 445 QCURVE",
"641 495 LINE",
"739 484 LINE",
"723 407 OFFCURVE",
"702 282 OFFCURVE",
"702 242 QCURVE",
"702 220 OFFCURVE",
"719 184 OFFCURVE",
"748 184 QCURVE",
"771 184 OFFCURVE",
"796 219 OFFCURVE",
"808 266 OFFCURVE",
"810 311 OFFCURVE",
"810 321 QCURVE",
"810 378 OFFCURVE",
"778 473 OFFCURVE",
"709 541 OFFCURVE",
"600 579 OFFCURVE",
"522 579 QCURVE",
"444 579 OFFCURVE",
"324 531 OFFCURVE",
"242 447 OFFCURVE",
"200 333 OFFCURVE",
"200 267 QCURVE",
"200 209 OFFCURVE",
"234 109 OFFCURVE",
"302 34 OFFCURVE",
"404 -9 OFFCURVE",
"472 -9 QCURVE",
"513 -9 OFFCURVE",
"575 -2 OFFCURVE",
"605 6 QCURVE",
"626 -135 LINE",
"584 -146 OFFCURVE",
"508 -156 OFFCURVE",
"469 -156 QCURVE",
"380 -154 OFFCURVE",
"227 -100 OFFCURVE",
"114 4 OFFCURVE",
"50 159 OFFCURVE",
"50 261 QCURVE"
);
},
{
closed = 1;
nodes = (
"515 187 OFFCURVE",
"549 209 OFFCURVE",
"568 242 OFFCURVE",
"575 280 OFFCURVE",
"576 295 QCURVE",
"577 308 OFFCURVE",
"569 339 OFFCURVE",
"551 366 OFFCURVE",
"523 384 OFFCURVE",
"502 384 QCURVE",
"478 384 OFFCURVE",
"444 366 OFFCURVE",
"421 336 OFFCURVE",
"410 298 OFFCURVE",
"410 278 QCURVE",
"410 240 OFFCURVE",
"452 187 OFFCURVE",
"488 187 QCURVE"
);
}
);
width = 1001;
}
);
unicode = 0040;
},
{
color = (168, 255, 153, 255);
glyphname = bracketleft;
layers = (
{
layerId = "DFDDFFA4-CA88-482C-9ABD-9EC74B35DAE9";
paths = (
{
closed = 1;
nodes = (
"67 779 LINE",
"359 779 LINE",
"359 623 LINE",
"238 623 LINE",
"238 -4 LINE",
"359 -4 LINE",
"359 -160 LINE",
"67 -160 LINE"
);
}
);
width = 374;
}
);
unicode = 005B;
},
{
color = (168, 255, 153, 255);
glyphname = bracketright;
layers = (
{
layerId = "DFDDFFA4-CA88-482C-9ABD-9EC74B35DAE9";
paths = (
{
closed = 1;
nodes = (
"308 -160 LINE",
"15 -160 LINE",
"15 -4 LINE",
"137 -4 LINE",
"137 623 LINE",
"15 623 LINE",
"15 779 LINE",
"308 779 LINE"
);
}
);
width = 375;
}
);
unicode = 005D;
},
{
color = (168, 255, 153, 255);
glyphname = backslash;
layers = (
{
layerId = "DFDDFFA4-CA88-482C-9ABD-9EC74B35DAE9";
paths = (
{
closed = 1;
nodes = (
"342 -160 LINE",
"19 779 LINE",
"191 779 LINE",
"517 -160 LINE"
);
}
);
width = 536;
}
);
unicode = 005C;
},
{
color = (168, 255, 153, 255);
glyphname = asciicircum;
layers = (
{
layerId = "DFDDFFA4-CA88-482C-9ABD-9EC74B35DAE9";
paths = (
{
closed = 1;
nodes = (
"376 429 LINE",
"292 567 LINE",
"205 429 LINE",
"39 429 LINE",
"230 709 LINE",
"347 709 LINE",
"545 429 LINE"
);
}
);
width = 584;
}
);
unicode = 005E;
},
{
color = (168, 255, 153, 255);
glyphname = underscore;
layers = (
{
layerId = "DFDDFFA4-CA88-482C-9ABD-9EC74B35DAE9";
paths = (
{
closed = 1;
nodes = (
"-23 -161 LINE",
"-23 -7 LINE",
"455 -7 LINE",
"455 -161 LINE"
);
}
);
width = 432;
}
);
unicode = 005F;
},
{
color = (168, 255, 153, 255);
glyphname = braceleft;
layers = (
{
layerId = "DFDDFFA4-CA88-482C-9ABD-9EC74B35DAE9";
paths = (
{
closed = 1;
nodes = (
"17 388 LINE",
"50 388 LINE",
"69 388 OFFCURVE",
"89 400 OFFCURVE",
"99 418 OFFCURVE",
"101 439 OFFCURVE",
"101 448 QCURVE",
"101 638 LINE",
"101 677 OFFCURVE",
"124 731 OFFCURVE",
"165 764 OFFCURVE",
"221 779 OFFCURVE",
"254 779 QCURVE",
"374 779 LINE",
"374 623 LINE",
"307 623 LINE",
"292 623 OFFCURVE",
"277 614 OFFCURVE",
"271 601 OFFCURVE",
"271 585 OFFCURVE",
"271 579 QCURVE",
"271 425 LINE",
"271 349 OFFCURVE",
"231 310 QCURVE",
"271 271 OFFCURVE",
"271 195 QCURVE",
"271 40 LINE",
"271 34 OFFCURVE",
"271 19 OFFCURVE",
"277 6 OFFCURVE",
"292 -3 OFFCURVE",
"307 -3 QCURVE",
"374 -3 LINE",
"374 -159 LINE",
"254 -159 LINE",
"221 -159 OFFCURVE",
"165 -144 OFFCURVE",
"124 -111 OFFCURVE",
"101 -57 OFFCURVE",
"101 -18 QCURVE",
"101 173 LINE",
"101 182 OFFCURVE",
"99 203 OFFCURVE",
"89 220 OFFCURVE",
"69 232 OFFCURVE",
"50 232 QCURVE",
"17 232 LINE"
);
}
);
width = 413;
}
);
unicode = 007B;
},
{
color = (168, 255, 153, 255);
glyphname = bar;
layers = (
{
layerId = "DFDDFFA4-CA88-482C-9ABD-9EC74B35DAE9";
paths = (
{
closed = 1;
nodes = (
"67 -163 LINE",
"67 794 LINE",
"231 794 LINE",
"231 -163 LINE"
);
}
);
width = 298;
}
);
unicode = 007C;
},
{
color = (168, 255, 153, 255);
glyphname = braceright;
layers = (
{
layerId = "DFDDFFA4-CA88-482C-9ABD-9EC74B35DAE9";
paths = (
{
closed = 1;
nodes = (
"396 232 LINE",
"363 232 LINE",
"345 232 OFFCURVE",
"325 220 OFFCURVE",
"314 202 OFFCURVE",
"312 182 OFFCURVE",
"312 173 QCURVE",
"312 -18 LINE",
"312 -57 OFFCURVE",
"289 -111 OFFCURVE",
"249 -144 OFFCURVE",
"194 -159 OFFCURVE",
"161 -159 QCURVE",
"39 -159 LINE",
"39 -3 LINE",
"106 -3 LINE",
"121 -3 OFFCURVE",
"136 6 OFFCURVE",
"142 19 OFFCURVE",
"142 35 OFFCURVE",
"142 41 QCURVE",
"142 195 LINE",
"142 269 OFFCURVE",
"183 310 QCURVE",
"182 310 LINE",
"160 330 OFFCURVE",
"142 387 OFFCURVE",
"142 425 QCURVE",
"142 580 LINE",
"142 586 OFFCURVE",
"142 601 OFFCURVE",
"136 614 OFFCURVE",
"121 623 OFFCURVE",
"106 623 QCURVE",
"39 623 LINE",
"39 779 LINE",
"161 779 LINE",
"194 779 OFFCURVE",
"249 764 OFFCURVE",
"289 731 OFFCURVE",
"312 677 OFFCURVE",
"312 638 QCURVE",
"312 448 LINE",
"312 439 OFFCURVE",
"314 418 OFFCURVE",
"324 400 OFFCURVE",
"344 388 OFFCURVE",
"363 388 QCURVE",
"396 388 LINE"
);
}
);
width = 413;
}
);
unicode = 007D;
},
{
color = (168, 255, 153, 255);
glyphname = Euro;
layers = (
{
layerId = "DFDDFFA4-CA88-482C-9ABD-9EC74B35DAE9";
paths = (
{
closed = 1;
nodes = (
"419 -8 OFFCURVE",
"321 14 OFFCURVE",
"278 40 QCURVE",
"233 66 OFFCURVE",
"166 149 OFFCURVE",
"153 203 QCURVE",
"29 203 LINE",
"58 337 LINE",
"134 337 LINE",
"134 374 LINE",
"36 374 LINE",
"64 508 LINE",
"156 508 LINE",
"177 560 OFFCURVE",
"242 638 OFFCURVE",
"326 691 OFFCURVE",
"423 717 OFFCURVE",
"475 717 QCURVE",
"511 717 OFFCURVE",
"573 710 OFFCURVE",
"630 691 OFFCURVE",
"685 661 OFFCURVE",
"714 632 QCURVE",
"629 513 LINE",
"613 531 OFFCURVE",
"544 564 OFFCURVE",
"487 564 QCURVE",
"466 564 OFFCURVE",
"423 556 OFFCURVE",
"385 541 OFFCURVE",
"354 521 OFFCURVE",
"346 508 QCURVE",
"574 508 LINE",
"548 374 LINE",
"308 374 LINE",
"307 337 LINE",
"546 337 LINE",
"519 203 LINE",
"350 203 LINE",
"373 179 OFFCURVE",
"445 154 OFFCURVE",
"484 154 QCURVE",
"527 154 OFFCURVE",
"607 183 OFFCURVE",
"633 211 QCURVE",
"725 89 LINE",
"676 36 OFFCURVE",
"550 -8 OFFCURVE",
"478 -8 QCURVE"
);
}
);
width = 754;
}
);
unicode = 20AC;
},
{
color = (168, 255, 153, 255);
glyphname = quotedblbase;
layers = (
{
layerId = "DFDDFFA4-CA88-482C-9ABD-9EC74B35DAE9";
paths = (
{
closed = 1;
nodes = (
"47 -98 LINE",
"58 -94 OFFCURVE",
"89 -73 OFFCURVE",
"119 -49 OFFCURVE",
"143 -24 OFFCURVE",
"147 -14 QCURVE",
"115 -11 OFFCURVE",
"64 36 OFFCURVE",
"64 78 QCURVE",
"64 103 OFFCURVE",
"81 140 OFFCURVE",
"109 165 OFFCURVE",
"146 177 OFFCURVE",
"166 177 QCURVE",
"191 177 OFFCURVE",
"230 157 OFFCURVE",
"256 122 OFFCURVE",
"269 76 OFFCURVE",
"269 49 QCURVE",
"268 7 OFFCURVE",
"238 -66 OFFCURVE",
"190 -124 OFFCURVE",
"128 -165 OFFCURVE",
"96 -175 QCURVE"
);
},
{
closed = 1;
nodes = (
"304 -98 LINE",
"315 -94 OFFCURVE",
"346 -73 OFFCURVE",
"376 -49 OFFCURVE",
"400 -24 OFFCURVE",
"404 -14 QCURVE",
"372 -11 OFFCURVE",
"321 36 OFFCURVE",
"321 78 QCURVE",
"321 103 OFFCURVE",
"338 140 OFFCURVE",
"366 165 OFFCURVE",
"403 177 OFFCURVE",
"423 177 QCURVE",
"448 177 OFFCURVE",
"487 157 OFFCURVE",
"513 122 OFFCURVE",
"526 76 OFFCURVE",
"526 49 QCURVE",
"525 7 OFFCURVE",
"495 -66 OFFCURVE",
"447 -124 OFFCURVE",
"385 -165 OFFCURVE",
"353 -175 QCURVE"
);
}
);
width = 574;
}
);
leftKerningGroup = _kern14;
rightKerningGroup = _kern14;
unicode = 201E;
},
{
color = (168, 255, 153, 255);
glyphname = quotesinglbase;
layers = (
{
layerId = "DFDDFFA4-CA88-482C-9ABD-9EC74B35DAE9";
paths = (
{
closed = 1;
nodes = (
"47 -98 LINE",
"58 -94 OFFCURVE",
"89 -73 OFFCURVE",
"119 -49 OFFCURVE",
"143 -24 OFFCURVE",
"147 -14 QCURVE",
"115 -11 OFFCURVE",
"64 36 OFFCURVE",
"64 78 QCURVE",
"64 103 OFFCURVE",
"81 140 OFFCURVE",
"109 165 OFFCURVE",
"146 177 OFFCURVE",
"166 177 QCURVE",
"191 177 OFFCURVE",
"230 157 OFFCURVE",
"256 122 OFFCURVE",
"269 76 OFFCURVE",
"269 49 QCURVE",
"268 7 OFFCURVE",
"238 -66 OFFCURVE",
"190 -124 OFFCURVE",
"128 -165 OFFCURVE",
"96 -175 QCURVE"
);
}
);
width = 317;
}
);
unicode = 201A;
},
{
color = (168, 255, 153, 255);
glyphname = quotedblright;
layers = (
{
layerId = "DFDDFFA4-CA88-482C-9ABD-9EC74B35DAE9";
paths = (
{
closed = 1;
nodes = (
"47 473 LINE",
"58 477 OFFCURVE",
"89 498 OFFCURVE",
"119 522 OFFCURVE",
"143 547 OFFCURVE",
"147 557 QCURVE",
"115 560 OFFCURVE",
"64 607 OFFCURVE",
"64 649 QCURVE",
"64 674 OFFCURVE",
"81 711 OFFCURVE",
"109 736 OFFCURVE",
"146 748 OFFCURVE",
"166 748 QCURVE",
"191 748 OFFCURVE",
"230 728 OFFCURVE",
"256 693 OFFCURVE",
"269 647 OFFCURVE",
"269 620 QCURVE",
"268 578 OFFCURVE",
"238 505 OFFCURVE",
"190 447 OFFCURVE",
"128 406 OFFCURVE",
"96 396 QCURVE"
);
},
{
closed = 1;
nodes = (
"304 473 LINE",
"315 477 OFFCURVE",
"346 498 OFFCURVE",
"376 522 OFFCURVE",
"400 547 OFFCURVE",
"404 557 QCURVE",
"372 560 OFFCURVE",
"321 607 OFFCURVE",
"321 649 QCURVE",
"321 674 OFFCURVE",
"338 711 OFFCURVE",
"366 736 OFFCURVE",
"403 748 OFFCURVE",
"423 748 QCURVE",
"448 748 OFFCURVE",
"487 728 OFFCURVE",
"513 693 OFFCURVE",
"526 647 OFFCURVE",
"526 620 QCURVE",
"525 578 OFFCURVE",
"495 505 OFFCURVE",
"447 447 OFFCURVE",
"385 406 OFFCURVE",
"353 396 QCURVE"
);
}
);
width = 574;
}
);
unicode = 201D;
},
{
color = (168, 255, 153, 255);
glyphname = quoteright;
layers = (
{
layerId = "DFDDFFA4-CA88-482C-9ABD-9EC74B35DAE9";
paths = (
{
closed = 1;
nodes = (
"47 473 LINE",
"58 477 OFFCURVE",
"89 498 OFFCURVE",
"119 522 OFFCURVE",
"143 547 OFFCURVE",
"147 557 QCURVE",
"115 560 OFFCURVE",
"64 607 OFFCURVE",
"64 649 QCURVE",
"64 674 OFFCURVE",
"81 711 OFFCURVE",
"109 736 OFFCURVE",
"146 748 OFFCURVE",
"166 748 QCURVE",
"191 748 OFFCURVE",
"230 728 OFFCURVE",
"256 693 OFFCURVE",
"269 647 OFFCURVE",
"269 620 QCURVE",
"268 578 OFFCURVE",
"238 505 OFFCURVE",
"190 447 OFFCURVE",
"128 406 OFFCURVE",
"96 396 QCURVE"
);
}
);
width = 317;
}
);
unicode = 2019;
},
{
color = (168, 255, 153, 255);
glyphname = quotedblleft;
layers = (
{
layerId = "DFDDFFA4-CA88-482C-9ABD-9EC74B35DAE9";
paths = (
{
closed = 1;
nodes = (
"527 700 LINE",
"516 695 OFFCURVE",
"485 675 OFFCURVE",
"455 651 OFFCURVE",
"431 626 OFFCURVE",
"427 616 QCURVE",
"459 613 OFFCURVE",
"510 566 OFFCURVE",
"510 524 QCURVE",
"510 499 OFFCURVE",
"493 462 OFFCURVE",
"465 437 OFFCURVE",
"428 425 OFFCURVE",
"408 425 QCURVE",
"383 425 OFFCURVE",
"344 445 OFFCURVE",
"318 480 OFFCURVE",
"305 526 OFFCURVE",
"305 553 QCURVE",
"306 595 OFFCURVE",
"336 668 OFFCURVE",
"384 726 OFFCURVE",
"446 766 OFFCURVE",
"478 777 QCURVE"
);
},
{
closed = 1;
nodes = (
"270 700 LINE",
"259 695 OFFCURVE",
"228 675 OFFCURVE",
"198 651 OFFCURVE",
"174 626 OFFCURVE",
"170 616 QCURVE",
"202 613 OFFCURVE",
"253 566 OFFCURVE",
"253 524 QCURVE",
"253 499 OFFCURVE",
"236 462 OFFCURVE",
"208 437 OFFCURVE",
"171 425 OFFCURVE",
"151 425 QCURVE",
"126 425 OFFCURVE",
"87 445 OFFCURVE",
"61 480 OFFCURVE",
"48 526 OFFCURVE",
"48 553 QCURVE",
"49 595 OFFCURVE",
"79 668 OFFCURVE",
"127 726 OFFCURVE",
"189 766 OFFCURVE",
"221 777 QCURVE"
);
}
);
width = 574;
}
);
unicode = 201C;
},
{
color = (168, 255, 153, 255);
glyphname = quoteleft;
layers = (
{
layerId = "DFDDFFA4-CA88-482C-9ABD-9EC74B35DAE9";
paths = (
{
closed = 1;
nodes = (
"270 700 LINE",
"259 695 OFFCURVE",
"228 675 OFFCURVE",
"198 651 OFFCURVE",
"174 626 OFFCURVE",
"170 616 QCURVE",
"202 613 OFFCURVE",
"253 566 OFFCURVE",
"253 524 QCURVE",
"253 499 OFFCURVE",
"236 462 OFFCURVE",
"208 437 OFFCURVE",
"171 425 OFFCURVE",
"151 425 QCURVE",
"126 425 OFFCURVE",
"87 445 OFFCURVE",
"61 480 OFFCURVE",
"48 526 OFFCURVE",
"48 553 QCURVE",
"49 595 OFFCURVE",
"79 668 OFFCURVE",
"127 726 OFFCURVE",
"189 766 OFFCURVE",
"221 777 QCURVE"
);
}
);
width = 317;
}
);
unicode = 2018;
},
{
color = (168, 255, 153, 255);
glyphname = minus;
layers = (
{
layerId = "DFDDFFA4-CA88-482C-9ABD-9EC74B35DAE9";
paths = (
{
closed = 1;
nodes = (
"54 282 LINE",
"54 440 LINE",
"532 440 LINE",
"532 282 LINE"
);
}
);
width = 586;
}
);
unicode = 2212;
},
{
color = (168, 255, 153, 255);
glyphname = hyphen;
layers = (
{
layerId = "DFDDFFA4-CA88-482C-9ABD-9EC74B35DAE9";
paths = (
{
closed = 1;
nodes = (
"415 216 LINE",
"54 216 LINE",
"54 374 LINE",
"415 374 LINE"
);
}
);
width = 469;
}
);
unicode = 002D;
},
{
color = (168, 255, 153, 255);
glyphname = endash;
layers = (
{
layerId = "DFDDFFA4-CA88-482C-9ABD-9EC74B35DAE9";
paths = (
{
closed = 1;
nodes = (
"582 216 LINE",
"54 216 LINE",
"54 374 LINE",
"582 374 LINE"
);
}
);
width = 636;
}
);
unicode = 2013;
},
{
color = (168, 255, 153, 255);
glyphname = emdash;
layers = (
{
layerId = "DFDDFFA4-CA88-482C-9ABD-9EC74B35DAE9";
paths = (
{
closed = 1;
nodes = (
"800 216 LINE",
"54 216 LINE",
"54 374 LINE",
"800 374 LINE"
);
}
);
width = 854;
}
);
unicode = 2014;
},
{
color = (246, 153, 255, 255);
glyphname = grave;
layers = (
{
layerId = "DFDDFFA4-CA88-482C-9ABD-9EC74B35DAE9";
paths = (
{
closed = 1;
nodes = (
"201 577 LINE",
"30 769 LINE",
"217 769 LINE",
"349 577 LINE"
);
}
);
width = 436;
}
);
unicode = 0060;
},
{
color = (246, 153, 255, 255);
glyphname = acute;
layers = (
{
layerId = "DFDDFFA4-CA88-482C-9ABD-9EC74B35DAE9";
paths = (
{
closed = 1;
nodes = (
"235 577 LINE",
"87 577 LINE",
"219 769 LINE",
"406 769 LINE"
);
}
);
width = 436;
}
);
unicode = 00B4;
},
{
color = (168, 255, 153, 255);
glyphname = guillemotright;
layers = (
{
layerId = "DFDDFFA4-CA88-482C-9ABD-9EC74B35DAE9";
paths = (
{
closed = 1;
nodes = (
"445 276 LINE",
"301 477 LINE",
"459 477 LINE",
"603 276 LINE",
"459 76 LINE",
"301 76 LINE"
);
},
{
closed = 1;
nodes = (
"185 276 LINE",
"39 477 LINE",
"197 477 LINE",
"340 276 LINE",
"197 76 LINE",
"39 76 LINE"
);
}
);
width = 622;
}
);
unicode = 00BB;
},
{
color = (168, 255, 153, 255);
glyphname = guilsinglright;
layers = (
{
layerId = "DFDDFFA4-CA88-482C-9ABD-9EC74B35DAE9";
paths = (
{
closed = 1;
nodes = (
"39 477 LINE",
"223 477 LINE",
"366 277 LINE",
"223 76 LINE",
"39 76 LINE",
"187 277 LINE"
);
}
);
width = 385;
}
);
unicode = 203A;
},
{
color = (168, 255, 153, 255);
glyphname = guillemotleft;
layers = (
{
layerId = "DFDDFFA4-CA88-482C-9ABD-9EC74B35DAE9";
paths = (
{
closed = 1;
nodes = (
"178 277 LINE",
"323 76 LINE",
"163 76 LINE",
"19 277 LINE",
"163 477 LINE",
"323 477 LINE"
);
},
{
closed = 1;
nodes = (
"439 277 LINE",
"583 76 LINE",
"423 76 LINE",
"281 277 LINE",
"423 477 LINE",
"583 477 LINE"
);
}
);
width = 622;
}
);
unicode = 00AB;
},
{
color = (168, 255, 153, 255);
glyphname = guilsinglleft;
layers = (
{
layerId = "DFDDFFA4-CA88-482C-9ABD-9EC74B35DAE9";
paths = (
{
closed = 1;
nodes = (
"199 277 LINE",
"344 76 LINE",
"162 76 LINE",
"19 277 LINE",
"162 477 LINE",
"344 477 LINE"
);
}
);
width = 383;
}
);
unicode = 2039;
},
{
color = (168, 255, 153, 255);
glyphname = uni00AD;
layers = (
{
layerId = "DFDDFFA4-CA88-482C-9ABD-9EC74B35DAE9";
paths = (
{
closed = 1;
nodes = (
"415 218 LINE",
"54 218 LINE",
"54 372 LINE",
"415 372 LINE"
);
}
);
width = 469;
}
);
unicode = 00AD;
},
{
color = (168, 255, 153, 255);
glyphname = ellipsis;
layers = (
{
layerId = "DFDDFFA4-CA88-482C-9ABD-9EC74B35DAE9";
paths = (
{
closed = 1;
nodes = (
"164 203 OFFCURVE",
"202 188 OFFCURVE",
"231 161 OFFCURVE",
"248 122 OFFCURVE",
"248 97 QCURVE",
"248 44 OFFCURVE",
"185 -9 OFFCURVE",
"143 -9 QCURVE",
"101 -9 OFFCURVE",
"37 44 OFFCURVE",
"37 97 QCURVE",
"37 122 OFFCURVE",
"55 161 OFFCURVE",
"85 188 OFFCURVE",
"123 203 OFFCURVE",
"143 203 QCURVE"
);
},
{
closed = 1;
nodes = (
"425 203 OFFCURVE",
"463 188 OFFCURVE",
"492 161 OFFCURVE",
"509 122 OFFCURVE",
"509 97 QCURVE",
"509 44 OFFCURVE",
"446 -9 OFFCURVE",
"404 -9 QCURVE",
"362 -9 OFFCURVE",
"298 44 OFFCURVE",
"298 97 QCURVE",
"298 122 OFFCURVE",
"316 161 OFFCURVE",
"346 188 OFFCURVE",
"384 203 OFFCURVE",
"404 203 QCURVE"
);
},
{
closed = 1;
nodes = (
"683 203 OFFCURVE",
"721 188 OFFCURVE",
"750 161 OFFCURVE",
"767 122 OFFCURVE",
"767 97 QCURVE",
"767 44 OFFCURVE",
"704 -9 OFFCURVE",
"662 -9 QCURVE",
"620 -9 OFFCURVE",
"556 44 OFFCURVE",
"556 97 QCURVE",
"556 122 OFFCURVE",
"574 161 OFFCURVE",
"604 188 OFFCURVE",
"642 203 OFFCURVE",
"662 203 QCURVE"
);
}
);
width = 804;
}
);
unicode = 2026;
},
{
color = (168, 255, 153, 255);
glyphname = uni0445;
layers = (
{
layerId = "DFDDFFA4-CA88-482C-9ABD-9EC74B35DAE9";
paths = (
{
closed = 1;
nodes = (
"380 527 LINE",
"578 527 LINE",
"404 266 LINE",
"590 0 LINE",
"385 0 LINE",
"291 154 LINE",
"196 0 LINE",
"0 0 LINE",
"182 269 LINE",
"10 527 LINE",
"213 527 LINE",
"297 384 LINE"
);
}
);
width = 590;
}
);
unicode = 0445;
},
{
color = (168, 255, 153, 255);
glyphname = uni0431;
layers = (
{
layerId = "DFDDFFA4-CA88-482C-9ABD-9EC74B35DAE9";
paths = (
{
closed = 1;
nodes = (
"30 479 OFFCURVE",
"119 653 OFFCURVE",
"209 697 QCURVE",
"247 715 OFFCURVE",
"341 734 OFFCURVE",
"398 741 QCURVE",
"447 747 OFFCURVE",
"508 754 OFFCURVE",
"544 760 OFFCURVE",
"563 763 OFFCURVE",
"572 765 QCURVE",
"572 579 LINE",
"551 574 OFFCURVE",
"487 568 OFFCURVE",
"451 566 QCURVE",
"418 564 OFFCURVE",
"349 558 OFFCURVE",
"284 545 OFFCURVE",
"234 520 OFFCURVE",
"218 500 QCURVE",
"210 489 OFFCURVE",
"189 447 OFFCURVE",
"190 416 QCURVE",
"208 444 OFFCURVE",
"255 480 OFFCURVE",
"305 500 OFFCURVE",
"355 507 OFFCURVE",
"376 507 QCURVE",
"431 507 OFFCURVE",
"514 468 OFFCURVE",
"571 401 OFFCURVE",
"599 313 OFFCURVE",
"599 265 QCURVE",
"599 201 OFFCURVE",
"558 99 OFFCURVE",
"484 29 OFFCURVE",
"383 -8 OFFCURVE",
"322 -8 QCURVE",
"247 -8 OFFCURVE",
"138 46 OFFCURVE",
"68 139 OFFCURVE",
"33 263 OFFCURVE",
"32 331 QCURVE"
);
},
{
closed = 1;
nodes = (
"346 149 OFFCURVE",
"386 167 OFFCURVE",
"411 195 OFFCURVE",
"423 230 OFFCURVE",
"423 248 QCURVE",
"423 266 OFFCURVE",
"411 300 OFFCURVE",
"386 327 OFFCURVE",
"349 343 OFFCURVE",
"325 343 QCURVE",
"274 343 OFFCURVE",
"219 286 OFFCURVE",
"219 249 QCURVE",
"219 231 OFFCURVE",
"231 195 OFFCURVE",
"256 168 OFFCURVE",
"294 149 OFFCURVE",
"320 149 QCURVE"
);
}
);
width = 626;
}
);
rightKerningGroup = _kern10;
unicode = 0431;
},
{
color = (168, 255, 153, 255);
glyphname = uni0432;
layers = (
{
layerId = "DFDDFFA4-CA88-482C-9ABD-9EC74B35DAE9";
paths = (
{
closed = 1;
nodes = (
"339 527 LINE",
"372 527 OFFCURVE",
"439 517 OFFCURVE",
"495 487 OFFCURVE",
"530 430 OFFCURVE",
"530 384 QCURVE",
"530 351 OFFCURVE",
"500 298 OFFCURVE",
"482 286 QCURVE",
"514 270 OFFCURVE",
"547 205 OFFCURVE",
"546 160 QCURVE",
"545 114 OFFCURVE",
"502 51 OFFCURVE",
"438 14 OFFCURVE",
"366 0 OFFCURVE",
"336 0 QCURVE",
"47 0 LINE",
"47 527 LINE"
);
},
{
closed = 1;
nodes = (
"329 153 LINE",
"351 153 OFFCURVE",
"374 172 OFFCURVE",
"374 187 QCURVE",
"374 199 OFFCURVE",
"356 218 OFFCURVE",
"332 218 QCURVE",
"224 218 LINE",
"224 153 LINE"
);
},
{
closed = 1;
nodes = (
"322 324 LINE",
"346 324 OFFCURVE",
"363 344 OFFCURVE",
"363 356 QCURVE",
"363 384 OFFCURVE",
"320 384 QCURVE",
"224 384 LINE",
"224 324 LINE"
);
}
);
width = 577;
}
);
leftKerningGroup = _kern11;
unicode = 0432;
},
{
color = (168, 255, 153, 255);
glyphname = uni0433;
layers = (
{
layerId = "DFDDFFA4-CA88-482C-9ABD-9EC74B35DAE9";
paths = (
{
closed = 1;
nodes = (
"437 527 LINE",
"437 369 LINE",
"224 369 LINE",
"224 0 LINE",
"47 0 LINE",
"47 527 LINE"
);
}
);
width = 445;
}
);
leftKerningGroup = _kern11;
rightKerningGroup = _kern24;
unicode = 0433;
},
{
color = (168, 255, 153, 255);
glyphname = uni0434;
layers = (
{
layerId = "DFDDFFA4-CA88-482C-9ABD-9EC74B35DAE9";
paths = (
{
closed = 1;
nodes = (
"570 527 LINE",
"570 159 LINE",
"635 159 LINE",
"635 -139 LINE",
"459 -139 LINE",
"459 0 LINE",
"185 0 LINE",
"185 -139 LINE",
"8 -139 LINE",
"8 159 LINE",
"45 159 OFFCURVE",
"88 220 OFFCURVE",
"108 314 OFFCURVE",
"112 427 OFFCURVE",
"112 479 QCURVE",
"112 527 LINE"
);
},
{
closed = 1;
nodes = (
"393 159 LINE",
"393 369 LINE",
"266 369 LINE",
"266 316 OFFCURVE",
"257 204 OFFCURVE",
"239 159 QCURVE"
);
}
);
width = 643;
}
);
rightKerningGroup = _kern13;
unicode = 0434;
},
{
color = (168, 255, 153, 255);
glyphname = uni0436;
layers = (
{
layerId = "DFDDFFA4-CA88-482C-9ABD-9EC74B35DAE9";
paths = (
{
closed = 1;
nodes = (
"517 182 LINE",
"517 0 LINE",
"340 0 LINE",
"340 182 LINE",
"269 182 LINE",
"194 0 LINE",
"0 0 LINE",
"129 276 LINE",
"4 527 LINE",
"187 527 LINE",
"271 341 LINE",
"340 341 LINE",
"340 527 LINE",
"517 527 LINE",
"517 341 LINE",
"588 341 LINE",
"668 527 LINE",
"854 527 LINE",
"726 276 LINE",
"858 0 LINE",
"662 0 LINE",
"589 182 LINE"
);
}
);
width = 858;
}
);
unicode = 0436;
},
{
color = (168, 255, 153, 255);
glyphname = uni043A;
layers = (
{
layerId = "DFDDFFA4-CA88-482C-9ABD-9EC74B35DAE9";
paths = (
{
closed = 1;
nodes = (
"224 182 LINE",
"224 0 LINE",
"47 0 LINE",
"47 527 LINE",
"224 527 LINE",
"224 341 LINE",
"296 341 LINE",
"406 527 LINE",
"605 527 LINE",
"447 281 LINE",
"597 0 LINE",
"395 0 LINE",
"303 182 LINE"
);
}
);
width = 605;
}
);
leftKerningGroup = _kern11;
unicode = 043A;
},
{
color = (168, 255, 153, 255);
glyphname = uni0438;
layers = (
{
layerId = "DFDDFFA4-CA88-482C-9ABD-9EC74B35DAE9";
paths = (
{
closed = 1;
nodes = (
"224 276 LINE",
"429 527 LINE",
"575 527 LINE",
"575 0 LINE",
"398 0 LINE",
"398 241 LINE",
"201 0 LINE",
"47 0 LINE",
"47 527 LINE",
"224 527 LINE"
);
}
);
width = 622;
}
);
leftKerningGroup = _kern11;
unicode = 0438;
},
{
color = (168, 255, 153, 255);
glyphname = uni0439;
layers = (
{
layerId = "DFDDFFA4-CA88-482C-9ABD-9EC74B35DAE9";
paths = (
{
closed = 1;
nodes = (
"279 552 OFFCURVE",
"206 574 OFFCURVE",
"152 618 OFFCURVE",
"120 683 OFFCURVE",
"119 727 QCURVE",
"260 727 LINE",
"262 698 OFFCURVE",
"298 670 OFFCURVE",
"322 670 QCURVE",
"379 670 OFFCURVE",
"385 727 QCURVE",
"525 727 LINE",
"520 638 OFFCURVE",
"409 552 OFFCURVE",
"322 552 QCURVE"
);
},
{
closed = 1;
nodes = (
"224 276 LINE",
"429 527 LINE",
"575 527 LINE",
"575 0 LINE",
"398 0 LINE",
"398 241 LINE",
"201 0 LINE",
"47 0 LINE",
"47 527 LINE",
"224 527 LINE"
);
}
);
width = 622;
}
);
unicode = 0439;
},
{
color = (168, 255, 153, 255);
glyphname = uni043B;
layers = (
{
layerId = "DFDDFFA4-CA88-482C-9ABD-9EC74B35DAE9";
paths = (
{
closed = 1;
nodes = (
"537 527 LINE",
"537 0 LINE",
"361 0 LINE",
"361 369 LINE",
"254 369 LINE",
"254 345 OFFCURVE",
"253 287 OFFCURVE",
"249 224 OFFCURVE",
"242 162 OFFCURVE",
"235 134 QCURVE",
"221 76 OFFCURVE",
"191 45 QCURVE",
"164 17 OFFCURVE",
"84 -1 OFFCURVE",
"45 -1 QCURVE",
"7 -1 LINE",
"7 163 LINE",
"35 164 OFFCURVE",
"68 195 OFFCURVE",
"83 240 OFFCURVE",
"91 299 OFFCURVE",
"91 313 QCURVE",
"93 342 OFFCURVE",
"95 411 OFFCURVE",
"96 472 OFFCURVE",
"96 518 OFFCURVE",
"96 527 QCURVE"
);
}
);
width = 585;
}
);
unicode = 043B;
},
{
color = (168, 255, 153, 255);
glyphname = uni043C;
layers = (
{
layerId = "DFDDFFA4-CA88-482C-9ABD-9EC74B35DAE9";
paths = (
{
closed = 1;
nodes = (
"349 88 LINE",
"224 282 LINE",
"224 0 LINE",
"47 0 LINE",
"47 527 LINE",
"249 527 LINE",
"376 323 LINE",
"502 527 LINE",
"701 527 LINE",
"701 0 LINE",
"524 0 LINE",
"524 280 LINE",
"401 88 LINE"
);
}
);
width = 748;
}
);
leftKerningGroup = _kern11;
unicode = 043C;
},
{
color = (168, 255, 153, 255);
glyphname = uni043D;
layers = (
{
layerId = "DFDDFFA4-CA88-482C-9ABD-9EC74B35DAE9";
paths = (
{
closed = 1;
nodes = (
"224 343 LINE",
"379 343 LINE",
"379 527 LINE",
"556 527 LINE",
"556 0 LINE",
"379 0 LINE",
"379 184 LINE",
"224 184 LINE",
"224 0 LINE",
"47 0 LINE",
"47 527 LINE",
"224 527 LINE"
);
}
);
width = 603;
}
);
leftKerningGroup = _kern11;
unicode = 043D;
},
{
color = (168, 255, 153, 255);
glyphname = uni043F;
layers = (
{
layerId = "DFDDFFA4-CA88-482C-9ABD-9EC74B35DAE9";
paths = (
{
closed = 1;
nodes = (
"553 527 LINE",
"553 0 LINE",
"377 0 LINE",
"377 369 LINE",
"224 369 LINE",
"224 0 LINE",
"47 0 LINE",
"47 527 LINE"
);
}
);
width = 600;
}
);
leftKerningGroup = _kern11;
unicode = 043F;
},
{
color = (168, 255, 153, 255);
glyphname = uni0442;
layers = (
{
layerId = "DFDDFFA4-CA88-482C-9ABD-9EC74B35DAE9";
paths = (
{
closed = 1;
nodes = (
"8 369 LINE",
"8 527 LINE",
"516 527 LINE",
"516 369 LINE",
"349 369 LINE",
"349 0 LINE",
"173 0 LINE",
"173 369 LINE"
);
}
);
width = 524;
}
);
unicode = 0442;
},
{
color = (168, 255, 153, 255);
glyphname = uni0444;
layers = (
{
layerId = "DFDDFFA4-CA88-482C-9ABD-9EC74B35DAE9";
paths = (
{
closed = 1;
nodes = (
"492 698 LINE",
"492 536 LINE",
"558 536 OFFCURVE",
"665 503 OFFCURVE",
"741 434 OFFCURVE",
"784 331 OFFCURVE",
"784 261 QCURVE",
"782 195 OFFCURVE",
"737 99 OFFCURVE",
"660 33 OFFCURVE",
"553 -1 OFFCURVE",
"492 -5 QCURVE",
"492 -201 LINE",
"315 -201 LINE",
"315 -4 LINE",
"253 -1 OFFCURVE",
"145 34 OFFCURVE",
"68 101 OFFCURVE",
"23 200 OFFCURVE",
"23 267 QCURVE",
"23 335 OFFCURVE",
"68 436 OFFCURVE",
"146 503 OFFCURVE",
"254 536 OFFCURVE",
"315 536 QCURVE",
"315 698 LINE"
);
},
{
closed = 1;
nodes = (
"315 375 LINE",
"286 375 OFFCURVE",
"243 357 OFFCURVE",
"214 326 OFFCURVE",
"200 287 OFFCURVE",
"200 266 QCURVE",
"200 243 OFFCURVE",
"215 203 OFFCURVE",
"245 172 OFFCURVE",
"288 154 OFFCURVE",
"315 154 QCURVE"
);
},
{
closed = 1;
nodes = (
"492 154 LINE",
"519 154 OFFCURVE",
"562 172 OFFCURVE",
"592 203 OFFCURVE",
"607 243 OFFCURVE",
"607 266 QCURVE",
"607 287 OFFCURVE",
"593 326 OFFCURVE",
"564 357 OFFCURVE",
"520 375 OFFCURVE",
"492 375 QCURVE"
);
}
);
width = 807;
}
);
leftKerningGroup = _kern9;
rightKerningGroup = _kern10;
unicode = 0444;
},
{
color = (168, 255, 153, 255);
glyphname = uni0446;
layers = (
{
layerId = "DFDDFFA4-CA88-482C-9ABD-9EC74B35DAE9";
paths = (
{
closed = 1;
nodes = (
"47 0 LINE",
"47 527 LINE",
"224 527 LINE",
"224 159 LINE",
"379 159 LINE",
"379 527 LINE",
"556 527 LINE",
"556 159 LINE",
"623 159 LINE",
"623 -139 LINE",
"446 -139 LINE",
"446 0 LINE"
);
}
);
width = 628;
}
);
leftKerningGroup = _kern11;
rightKerningGroup = _kern13;
unicode = 0446;
},
{
color = (168, 255, 153, 255);
glyphname = uni0447;
layers = (
{
layerId = "DFDDFFA4-CA88-482C-9ABD-9EC74B35DAE9";
paths = (
{
closed = 1;
nodes = (
"24 527 LINE",
"201 527 LINE",
"201 389 LINE",
"201 375 OFFCURVE",
"204 349 OFFCURVE",
"218 329 OFFCURVE",
"247 318 OFFCURVE",
"272 318 QCURVE",
"298 318 OFFCURVE",
"333 321 QCURVE",
"333 527 LINE",
"510 527 LINE",
"510 0 LINE",
"333 0 LINE",
"333 160 LINE",
"308 158 OFFCURVE",
"274 157 OFFCURVE",
"259 157 OFFCURVE",
"248 157 QCURVE",
"134 157 OFFCURVE",
"81 210 QCURVE",
"52 239 OFFCURVE",
"24 323 OFFCURVE",
"24 384 QCURVE"
);
}
);
width = 558;
}
);
leftKerningGroup = _kern11;
unicode = 0447;
},
{
color = (168, 255, 153, 255);
glyphname = uni0448;
layers = (
{
layerId = "DFDDFFA4-CA88-482C-9ABD-9EC74B35DAE9";
paths = (
{
closed = 1;
nodes = (
"47 0 LINE",
"47 527 LINE",
"224 527 LINE",
"224 159 LINE",
"343 159 LINE",
"343 527 LINE",
"520 527 LINE",
"520 159 LINE",
"641 159 LINE",
"641 527 LINE",
"818 527 LINE",
"818 0 LINE"
);
}
);
width = 866;
}
);
leftKerningGroup = _kern11;
unicode = 0448;
},
{
color = (168, 255, 153, 255);
glyphname = uni0449;
layers = (
{
layerId = "DFDDFFA4-CA88-482C-9ABD-9EC74B35DAE9";
paths = (
{
closed = 1;
nodes = (
"47 0 LINE",
"47 527 LINE",
"224 527 LINE",
"224 159 LINE",
"343 159 LINE",
"343 527 LINE",
"520 527 LINE",
"520 159 LINE",
"640 159 LINE",
"640 527 LINE",
"817 527 LINE",
"817 159 LINE",
"886 159 LINE",
"886 -139 LINE",
"709 -139 LINE",
"709 0 LINE"
);
}
);
width = 888;
}
);
leftKerningGroup = _kern11;
rightKerningGroup = _kern13;
unicode = 0449;
},
{
color = (168, 255, 153, 255);
glyphname = uni044A;
layers = (
{
layerId = "DFDDFFA4-CA88-482C-9ABD-9EC74B35DAE9";
paths = (
{
closed = 1;
nodes = (
"-6 369 LINE",
"-6 527 LINE",
"273 527 LINE",
"273 379 LINE",
"357 379 LINE",
"402 379 OFFCURVE",
"482 362 OFFCURVE",
"541 319 OFFCURVE",
"576 247 OFFCURVE",
"576 193 QCURVE",
"572 136 OFFCURVE",
"526 63 OFFCURVE",
"457 18 OFFCURVE",
"370 0 OFFCURVE",
"324 0 QCURVE",
"96 0 LINE",
"96 369 LINE"
);
},
{
closed = 1;
nodes = (
"273 232 LINE",
"273 155 LINE",
"337 155 LINE",
"371 155 OFFCURVE",
"401 175 OFFCURVE",
"401 195 QCURVE",
"401 210 OFFCURVE",
"379 232 OFFCURVE",
"348 232 QCURVE"
);
}
);
width = 596;
}
);
unicode = 044A;
},
{
color = (168, 255, 153, 255);
glyphname = uni044B;
layers = (
{
layerId = "DFDDFFA4-CA88-482C-9ABD-9EC74B35DAE9";
paths = (
{
closed = 1;
nodes = (
"741 0 LINE",
"565 0 LINE",
"565 527 LINE",
"741 527 LINE"
);
},
{
closed = 1;
nodes = (
"224 527 LINE",
"224 379 LINE",
"291 379 LINE",
"334 379 OFFCURVE",
"412 363 OFFCURVE",
"472 322 OFFCURVE",
"507 251 OFFCURVE",
"507 196 QCURVE",
"505 140 OFFCURVE",
"462 66 OFFCURVE",
"395 20 OFFCURVE",
"310 0 OFFCURVE",
"267 0 QCURVE",
"47 0 LINE",
"47 527 LINE"
);
},
{
closed = 1;
nodes = (
"273 155 LINE",
"306 155 OFFCURVE",
"333 175 OFFCURVE",
"333 195 QCURVE",
"333 212 OFFCURVE",
"306 232 OFFCURVE",
"279 232 QCURVE",
"224 232 LINE",
"224 155 LINE"
);
}
);
width = 789;
}
);
leftKerningGroup = _kern11;
unicode = 044B;
},
{
color = (168, 255, 153, 255);
glyphname = uni044C;
layers = (
{
layerId = "DFDDFFA4-CA88-482C-9ABD-9EC74B35DAE9";
paths = (
{
closed = 1;
nodes = (
"224 527 LINE",
"224 379 LINE",
"325 379 LINE",
"371 379 OFFCURVE",
"449 361 OFFCURVE",
"508 318 OFFCURVE",
"541 247 OFFCURVE",
"541 196 QCURVE",
"538 140 OFFCURVE",
"496 66 OFFCURVE",
"429 20 OFFCURVE",
"344 0 OFFCURVE",
"299 0 QCURVE",
"47 0 LINE",
"47 527 LINE"
);
},
{
closed = 1;
nodes = (
"307 155 LINE",
"367 155 OFFCURVE",
"367 195 QCURVE",
"367 232 OFFCURVE",
"311 232 QCURVE",
"224 232 LINE",
"224 155 LINE"
);
}
);
width = 566;
}
);
leftKerningGroup = _kern11;
unicode = 044C;
},
{
color = (168, 255, 153, 255);
glyphname = uni044E;
layers = (
{
layerId = "DFDDFFA4-CA88-482C-9ABD-9EC74B35DAE9";
paths = (
{
closed = 1;
nodes = (
"519 376 OFFCURVE",
"481 356 OFFCURVE",
"458 324 OFFCURVE",
"447 284 OFFCURVE",
"447 265 QCURVE",
"447 244 OFFCURVE",
"458 204 OFFCURVE",
"481 173 OFFCURVE",
"519 153 OFFCURVE",
"546 153 QCURVE",
"574 153 OFFCURVE",
"611 174 OFFCURVE",
"633 207 OFFCURVE",
"642 246 OFFCURVE",
"642 265 QCURVE",
"642 283 OFFCURVE",
"633 322 OFFCURVE",
"611 355 OFFCURVE",
"574 376 OFFCURVE",
"546 376 QCURVE"
);
},
{
closed = 1;
nodes = (
"224 343 LINE",
"291 343 LINE",
"300 386 OFFCURVE",
"344 458 OFFCURVE",
"410 509 OFFCURVE",
"496 538 OFFCURVE",
"546 538 QCURVE",
"604 538 OFFCURVE",
"703 502 OFFCURVE",
"776 432 OFFCURVE",
"816 330 OFFCURVE",
"816 266 QCURVE",
"816 201 OFFCURVE",
"779 100 OFFCURVE",
"708 29 OFFCURVE",
"608 -8 OFFCURVE",
"546 -8 QCURVE",
"497 -8 OFFCURVE",
"411 18 OFFCURVE",
"344 69 OFFCURVE",
"300 139 OFFCURVE",
"291 184 QCURVE",
"224 184 LINE",
"224 0 LINE",
"47 0 LINE",
"47 527 LINE",
"224 527 LINE"
);
}
);
width = 839;
}
);
leftKerningGroup = _kern11;
rightKerningGroup = _kern10;
unicode = 044E;
},
{
color = (168, 255, 153, 255);
glyphname = uni044F;
layers = (
{
layerId = "DFDDFFA4-CA88-482C-9ABD-9EC74B35DAE9";
paths = (
{
closed = 1;
nodes = (
"549 527 LINE",
"549 0 LINE",
"373 0 LINE",
"373 153 LINE",
"323 153 LINE",
"223 0 LINE",
"14 0 LINE",
"161 190 LINE",
"137 197 OFFCURVE",
"98 226 OFFCURVE",
"70 267 OFFCURVE",
"53 317 OFFCURVE",
"53 345 QCURVE",
"53 400 OFFCURVE",
"92 471 OFFCURVE",
"156 512 OFFCURVE",
"235 527 OFFCURVE",
"277 527 QCURVE"
);
},
{
closed = 1;
nodes = (
"373 296 LINE",
"373 377 LINE",
"279 377 LINE",
"253 377 OFFCURVE",
"228 354 OFFCURVE",
"228 338 QCURVE",
"228 326 OFFCURVE",
"240 310 OFFCURVE",
"259 300 OFFCURVE",
"280 296 OFFCURVE",
"288 296 QCURVE"
);
}
);
width = 597;
}
);
leftKerningGroup = _kern11;
unicode = 044F;
},
{
color = (168, 255, 153, 255);
glyphname = u_alt;
layers = (
{
layerId = "DFDDFFA4-CA88-482C-9ABD-9EC74B35DAE9";
paths = (
{
closed = 1;
nodes = (
"405 0 LINE",
"405 57 LINE",
"391 37 OFFCURVE",
"355 12 OFFCURVE",
"310 -4 OFFCURVE",
"266 -8 OFFCURVE",
"246 -8 QCURVE",
"193 -8 OFFCURVE",
"115 26 OFFCURVE",
"66 90 OFFCURVE",
"42 180 OFFCURVE",
"42 236 QCURVE",
"42 527 LINE",
"219 527 LINE",
"219 260 LINE",
"219 242 OFFCURVE",
"224 205 OFFCURVE",
"242 173 OFFCURVE",
"278 153 OFFCURVE",
"307 153 QCURVE",
"335 153 OFFCURVE",
"370 174 OFFCURVE",
"389 205 OFFCURVE",
"392 241 OFFCURVE",
"392 258 QCURVE",
"392 527 LINE",
"569 527 LINE",
"569 0 LINE"
);
}
);
width = 616;
}
);
},
{
color = (168, 255, 153, 255);
glyphname = uni0410;
layers = (
{
layerId = "DFDDFFA4-CA88-482C-9ABD-9EC74B35DAE9";
paths = (
{
closed = 1;
nodes = (
"189 0 LINE",
"-5 0 LINE",
"279 708 LINE",
"463 708 LINE",
"744 0 LINE",
"549 0 LINE",
"514 100 LINE",
"225 100 LINE"
);
},
{
closed = 1;
nodes = (
"457 263 LINE",
"371 506 LINE",
"282 263 LINE"
);
}
);
width = 739;
}
);
leftKerningGroup = _kern30;
rightKerningGroup = _kern30;
unicode = 0410;
},
{
color = (168, 255, 153, 255);
glyphname = uni0415;
layers = (
{
layerId = "DFDDFFA4-CA88-482C-9ABD-9EC74B35DAE9";
paths = (
{
closed = 1;
nodes = (
"601 708 LINE",
"601 540 LINE",
"248 540 LINE",
"248 432 LINE",
"539 432 LINE",
"539 272 LINE",
"248 272 LINE",
"248 167 LINE",
"601 167 LINE",
"601 0 LINE",
"67 0 LINE",
"67 708 LINE"
);
}
);
width = 629;
}
);
unicode = 0415;
},
{
color = (168, 255, 153, 255);
glyphname = uni041C;
layers = (
{
layerId = "DFDDFFA4-CA88-482C-9ABD-9EC74B35DAE9";
paths = (
{
closed = 1;
nodes = (
"296 708 LINE",
"469 398 LINE",
"641 708 LINE",
"861 708 LINE",
"861 0 LINE",
"680 0 LINE",
"680 451 LINE",
"501 140 LINE",
"430 140 LINE",
"248 451 LINE",
"248 0 LINE",
"67 0 LINE",
"67 708 LINE"
);
}
);
width = 928;
}
);
unicode = 041C;
},
{
color = (168, 255, 153, 255);
glyphname = uni041D;
layers = (
{
layerId = "DFDDFFA4-CA88-482C-9ABD-9EC74B35DAE9";
paths = (
{
closed = 1;
nodes = (
"248 433 LINE",
"505 433 LINE",
"505 708 LINE",
"686 708 LINE",
"686 0 LINE",
"505 0 LINE",
"505 267 LINE",
"248 267 LINE",
"248 0 LINE",
"67 0 LINE",
"67 708 LINE",
"248 708 LINE"
);
}
);
width = 753;
}
);
unicode = 041D;
},
{
color = (168, 255, 153, 255);
glyphname = uni0420;
layers = (
{
layerId = "DFDDFFA4-CA88-482C-9ABD-9EC74B35DAE9";
paths = (
{
closed = 1;
nodes = (
"364 708 LINE",
"426 708 OFFCURVE",
"529 683 OFFCURVE",
"604 624 OFFCURVE",
"645 528 OFFCURVE",
"645 457 QCURVE",
"644 384 OFFCURVE",
"589 280 OFFCURVE",
"542 248 QCURVE",
"505 222 OFFCURVE",
"409 199 OFFCURVE",
"357 199 QCURVE",
"248 199 LINE",
"248 0 LINE",
"67 0 LINE",
"67 708 LINE"
);
},
{
closed = 1;
nodes = (
"357 360 LINE",
"409 360 OFFCURVE",
"466 409 OFFCURVE",
"467 452 QCURVE",
"468 497 OFFCURVE",
"416 540 OFFCURVE",
"356 540 QCURVE",
"248 540 LINE",
"248 360 LINE"
);
}
);
width = 669;
}
);
unicode = 0420;
},
{
color = (168, 255, 153, 255);
glyphname = uni0422;
layers = (
{
layerId = "DFDDFFA4-CA88-482C-9ABD-9EC74B35DAE9";
paths = (
{
closed = 1;
nodes = (
"5 540 LINE",
"5 708 LINE",
"607 708 LINE",
"607 540 LINE",
"396 540 LINE",
"396 0 LINE",
"215 0 LINE",
"215 540 LINE"
);
}
);
width = 612;
}
);
leftKerningGroup = _kern28;
rightKerningGroup = _kern28;
unicode = 0422;
},
{
color = (168, 255, 153, 255);
glyphname = uni0425;
layers = (
{
layerId = "DFDDFFA4-CA88-482C-9ABD-9EC74B35DAE9";
paths = (
{
closed = 1;
nodes = (
"500 708 LINE",
"712 708 LINE",
"471 354 LINE",
"719 0 LINE",
"501 0 LINE",
"356 225 LINE",
"205 0 LINE",
"0 0 LINE",
"250 355 LINE",
"8 708 LINE",
"225 708 LINE",
"364 483 LINE"
);
}
);
width = 719;
}
);
unicode = 0425;
},
{
color = (168, 255, 153, 255);
glyphname = T;
layers = (
{
layerId = "DFDDFFA4-CA88-482C-9ABD-9EC74B35DAE9";
paths = (
{
closed = 1;
nodes = (
"5 540 LINE",
"5 708 LINE",
"607 708 LINE",
"607 540 LINE",
"396 540 LINE",
"396 0 LINE",
"215 0 LINE",
"215 540 LINE"
);
}
);
width = 612;
}
);
leftKerningGroup = _kern28;
rightKerningGroup = _kern28;
unicode = 0054;
},
{
color = (168, 255, 153, 255);
glyphname = uni0412;
layers = (
{
layerId = "DFDDFFA4-CA88-482C-9ABD-9EC74B35DAE9";
paths = (
{
closed = 1;
nodes = (
"66 0 LINE",
"66 708 LINE",
"418 708 LINE",
"463 708 OFFCURVE",
"541 689 OFFCURVE",
"599 645 OFFCURVE",
"632 573 OFFCURVE",
"632 519 QCURVE",
"632 481 OFFCURVE",
"597 410 OFFCURVE",
"566 390 QCURVE",
"608 370 OFFCURVE",
"662 289 OFFCURVE",
"662 225 QCURVE",
"662 167 OFFCURVE",
"620 85 OFFCURVE",
"589 59 QCURVE",
"544 22 OFFCURVE",
"425 0 OFFCURVE",
"360 0 QCURVE"
);
},
{
closed = 1;
nodes = (
"247 167 LINE",
"391 167 LINE",
"439 167 OFFCURVE",
"481 201 OFFCURVE",
"481 229 QCURVE",
"481 287 OFFCURVE",
"398 287 QCURVE",
"247 287 LINE"
);
},
{
closed = 1;
nodes = (
"374 433 LINE",
"416 433 OFFCURVE",
"453 467 OFFCURVE",
"452 490 QCURVE",
"452 517 OFFCURVE",
"417 541 OFFCURVE",
"382 541 QCURVE",
"247 541 LINE",
"247 433 LINE"
);
}
);
width = 691;
}
);
unicode = 0412;
},
{
color = (168, 255, 153, 255);
glyphname = uni041F;
layers = (
{
layerId = "DFDDFFA4-CA88-482C-9ABD-9EC74B35DAE9";
paths = (
{
closed = 1;
nodes = (
"677 708 LINE",
"677 0 LINE",
"496 0 LINE",
"496 542 LINE",
"248 542 LINE",
"248 0 LINE",
"67 0 LINE",
"67 708 LINE"
);
}
);
width = 744;
}
);
unicode = 041F;
},
{
color = (168, 255, 153, 255);
glyphname = uni0413;
layers = (
{
layerId = "DFDDFFA4-CA88-482C-9ABD-9EC74B35DAE9";
paths = (
{
closed = 1;
nodes = (
"67 0 LINE",
"67 708 LINE",
"579 708 LINE",
"579 540 LINE",
"248 540 LINE",
"248 0 LINE"
);
}
);
width = 591;
}
);
leftKerningGroup = _kern23;
rightKerningGroup = _kern23;
unicode = 0413;
},
{
color = (168, 255, 153, 255);
glyphname = uni041B;
layers = (
{
layerId = "DFDDFFA4-CA88-482C-9ABD-9EC74B35DAE9";
paths = (
{
closed = 1;
nodes = (
"284 540 LINE",
"284 404 LINE",
"284 316 OFFCURVE",
"275 167 OFFCURVE",
"230 59 OFFCURVE",
"133 -1 OFFCURVE",
"45 -1 QCURVE",
"7 -1 LINE",
"7 170 LINE",
"21 170 OFFCURVE",
"50 174 OFFCURVE",
"61 180 QCURVE",
"76 187 OFFCURVE",
"94 215 OFFCURVE",
"104 247 OFFCURVE",
"109 275 OFFCURVE",
"111 292 QCURVE",
"113 313 OFFCURVE",
"115 359 OFFCURVE",
"116 404 OFFCURVE",
"117 440 OFFCURVE",
"117 455 QCURVE",
"117 708 LINE",
"639 708 LINE",
"639 0 LINE",
"458 0 LINE",
"458 540 LINE"
);
}
);
width = 706;
}
);
unicode = 041B;
},
{
color = (168, 255, 153, 255);
glyphname = uni0414;
layers = (
{
layerId = "DFDDFFA4-CA88-482C-9ABD-9EC74B35DAE9";
paths = (
{
closed = 1;
nodes = (
"747 -168 LINE",
"566 -168 LINE",
"566 0 LINE",
"188 0 LINE",
"188 -168 LINE",
"7 -168 LINE",
"7 167 LINE",
"52 167 OFFCURVE",
"94 219 OFFCURVE",
"102 255 QCURVE",
"116 315 OFFCURVE",
"124 435 OFFCURVE",
"126 493 QCURVE",
"128 548 OFFCURVE",
"130 655 OFFCURVE",
"130 708 QCURVE",
"662 708 LINE",
"662 167 LINE",
"747 167 LINE"
);
},
{
closed = 1;
nodes = (
"290 334 OFFCURVE",
"287 286 OFFCURVE",
"281 235 OFFCURVE",
"270 186 OFFCURVE",
"261 167 QCURVE",
"481 167 LINE",
"481 540 LINE",
"294 540 LINE",
"294 494 OFFCURVE",
"293 433 OFFCURVE",
"292 392 OFFCURVE",
"291 364 OFFCURVE",
"291 352 QCURVE"
);
}
);
width = 754;
}
);
rightKerningGroup = _kern12;
unicode = 0414;
},
{
color = (168, 255, 153, 255);
glyphname = uni0411;
layers = (
{
layerId = "DFDDFFA4-CA88-482C-9ABD-9EC74B35DAE9";
paths = (
{
closed = 1;
nodes = (
"67 0 LINE",
"67 708 LINE",
"614 708 LINE",
"614 540 LINE",
"248 540 LINE",
"248 446 LINE",
"395 446 LINE",
"447 446 OFFCURVE",
"542 429 OFFCURVE",
"614 383 OFFCURVE",
"657 301 OFFCURVE",
"657 235 QCURVE",
"657 164 OFFCURVE",
"602 74 OFFCURVE",
"516 21 OFFCURVE",
"409 1 OFFCURVE",
"358 0 QCURVE"
);
},
{
closed = 1;
nodes = (
"248 167 LINE",
"370 167 LINE",
"388 167 OFFCURVE",
"427 171 OFFCURVE",
"458 185 OFFCURVE",
"478 209 OFFCURVE",
"478 230 QCURVE",
"478 249 OFFCURVE",
"463 273 OFFCURVE",
"436 287 OFFCURVE",
"399 291 OFFCURVE",
"377 291 QCURVE",
"248 291 LINE"
);
}
);
width = 692;
}
);
unicode = 0411;
},
{
color = (168, 255, 153, 255);
glyphname = uni0416;
layers = (
{
layerId = "DFDDFFA4-CA88-482C-9ABD-9EC74B35DAE9";
paths = (
{
closed = 1;
nodes = (
"614 270 LINE",
"614 0 LINE",
"433 0 LINE",
"433 270 LINE",
"349 271 LINE",
"212 0 LINE",
"2 0 LINE",
"203 370 LINE",
"0 708 LINE",
"206 708 LINE",
"352 434 LINE",
"433 434 LINE",
"433 708 LINE",
"614 708 LINE",
"614 434 LINE",
"695 434 LINE",
"843 708 LINE",
"1048 708 LINE",
"844 370 LINE",
"1047 0 LINE",
"835 0 LINE",
"700 270 LINE"
);
}
);
width = 1048;
}
);
unicode = 0416;
},
{
color = (168, 255, 153, 255);
glyphname = uni0417;
layers = (
{
layerId = "DFDDFFA4-CA88-482C-9ABD-9EC74B35DAE9";
paths = (
{
closed = 1;
nodes = (
"196 248 LINE",
"202 223 OFFCURVE",
"231 190 OFFCURVE",
"270 171 OFFCURVE",
"319 163 OFFCURVE",
"346 163 QCURVE",
"369 163 OFFCURVE",
"412 169 OFFCURVE",
"445 184 OFFCURVE",
"465 210 OFFCURVE",
"465 230 QCURVE",
"465 247 OFFCURVE",
"448 269 OFFCURVE",
"420 282 OFFCURVE",
"384 287 OFFCURVE",
"366 287 QCURVE",
"255 287 LINE",
"255 434 LINE",
"347 434 LINE",
"388 434 OFFCURVE",
"440 461 OFFCURVE",
"440 494 QCURVE",
"439 510 OFFCURVE",
"420 531 OFFCURVE",
"391 544 OFFCURVE",
"355 549 OFFCURVE",
"337 549 QCURVE",
"283 549 OFFCURVE",
"218 513 OFFCURVE",
"213 474 QCURVE",
"40 474 LINE",
"43 541 OFFCURVE",
"95 634 OFFCURVE",
"178 691 OFFCURVE",
"285 717 OFFCURVE",
"343 717 QCURVE",
"388 717 OFFCURVE",
"474 704 OFFCURVE",
"516 682 QCURVE",
"559 659 OFFCURVE",
"620 578 OFFCURVE",
"620 521 QCURVE",
"620 473 OFFCURVE",
"587 412 OFFCURVE",
"555 386 QCURVE",
"608 363 OFFCURVE",
"650 268 OFFCURVE",
"646 213 QCURVE",
"646 179 OFFCURVE",
"625 122 OFFCURVE",
"592 76 OFFCURVE",
"551 41 OFFCURVE",
"529 29 QCURVE",
"479 5 OFFCURVE",
"390 -8 OFFCURVE",
"342 -8 QCURVE",
"280 -8 OFFCURVE",
"170 20 OFFCURVE",
"84 81 OFFCURVE",
"30 178 OFFCURVE",
"24 248 QCURVE"
);
}
);
width = 676;
}
);
leftKerningGroup = _kern7;
rightKerningGroup = _kern8;
unicode = 0417;
},
{
color = (168, 255, 153, 255);
glyphname = uni0418;
layers = (
{
layerId = "DFDDFFA4-CA88-482C-9ABD-9EC74B35DAE9";
paths = (
{
closed = 1;
nodes = (
"248 312 LINE",
"560 708 LINE",
"702 708 LINE",
"702 0 LINE",
"521 0 LINE",
"521 389 LINE",
"209 0 LINE",
"67 0 LINE",
"67 708 LINE",
"248 708 LINE"
);
}
);
width = 769;
}
);
unicode = 0418;
},
{
color = (168, 255, 153, 255);
glyphname = uni0419;
layers = (
{
layerId = "DFDDFFA4-CA88-482C-9ABD-9EC74B35DAE9";
paths = (
{
closed = 1;
nodes = (
"301 736 OFFCURVE",
"190 822 OFFCURVE",
"186 916 QCURVE",
"328 916 LINE",
"329 887 OFFCURVE",
"365 857 OFFCURVE",
"389 857 QCURVE",
"415 857 OFFCURVE",
"449 887 OFFCURVE",
"450 916 QCURVE",
"592 916 LINE",
"590 869 OFFCURVE",
"559 801 OFFCURVE",
"505 757 OFFCURVE",
"432 736 OFFCURVE",
"389 736 QCURVE"
);
},
{
closed = 1;
nodes = (
"248 312 LINE",
"560 708 LINE",
"702 708 LINE",
"702 0 LINE",
"521 0 LINE",
"521 389 LINE",
"209 0 LINE",
"67 0 LINE",
"67 708 LINE",
"248 708 LINE"
);
}
);
width = 769;
}
);
unicode = 0419;
},
{
color = (168, 255, 153, 255);
glyphname = uni041A;
layers = (
{
layerId = "DFDDFFA4-CA88-482C-9ABD-9EC74B35DAE9";
paths = (
{
closed = 1;
nodes = (
"248 269 LINE",
"248 0 LINE",
"67 0 LINE",
"67 708 LINE",
"248 708 LINE",
"248 436 LINE",
"346 436 LINE",
"499 708 LINE",
"705 708 LINE",
"495 369 LINE",
"703 0 LINE",
"493 0 LINE",
"350 269 LINE"
);
}
);
width = 705;
}
);
unicode = 041A;
},
{
color = (168, 255, 153, 255);
glyphname = uni0423;
layers = (
{
layerId = "DFDDFFA4-CA88-482C-9ABD-9EC74B35DAE9";
paths = (
{
closed = 1;
nodes = (
"481 708 LINE",
"674 708 LINE",
"480 258 LINE",
"454 198 OFFCURVE",
"403 103 OFFCURVE",
"333 36 OFFCURVE",
"232 0 OFFCURVE",
"156 0 QCURVE",
"114 0 LINE",
"114 173 LINE",
"147 173 LINE",
"192 173 OFFCURVE",
"249 198 OFFCURVE",
"268 226 QCURVE",
"5 708 LINE",
"215 708 LINE",
"360 396 LINE"
);
}
);
width = 669;
}
);
unicode = 0423;
},
{
color = (168, 255, 153, 255);
glyphname = uni0424;
layers = (
{
layerId = "DFDDFFA4-CA88-482C-9ABD-9EC74B35DAE9";
paths = (
{
closed = 1;
nodes = (
"536 735 LINE",
"536 642 LINE",
"605 642 OFFCURVE",
"725 609 OFFCURVE",
"814 542 OFFCURVE",
"864 438 OFFCURVE",
"864 367 QCURVE",
"863 293 OFFCURVE",
"817 188 OFFCURVE",
"732 122 OFFCURVE",
"611 90 OFFCURVE",
"536 90 QCURVE",
"536 -18 LINE",
"355 -18 LINE",
"355 90 LINE",
"283 90 OFFCURVE",
"163 122 OFFCURVE",
"76 188 OFFCURVE",
"28 291 OFFCURVE",
"28 363 QCURVE",
"29 436 OFFCURVE",
"78 542 OFFCURVE",
"164 610 OFFCURVE",
"283 642 OFFCURVE",
"355 642 QCURVE",
"355 735 LINE"
);
},
{
closed = 1;
nodes = (
"355 486 LINE",
"278 486 OFFCURVE",
"203 419 OFFCURVE",
"203 366 QCURVE",
"203 310 OFFCURVE",
"280 245 OFFCURVE",
"355 245 QCURVE"
);
},
{
closed = 1;
nodes = (
"536 245 LINE",
"611 245 OFFCURVE",
"688 310 OFFCURVE",
"688 366 QCURVE",
"688 419 OFFCURVE",
"613 486 OFFCURVE",
"536 486 QCURVE"
);
}
);
width = 892;
}
);
leftKerningGroup = _kern7;
rightKerningGroup = _kern8;
unicode = 0424;
},
{
color = (168, 255, 153, 255);
glyphname = uni0426;
layers = (
{
layerId = "DFDDFFA4-CA88-482C-9ABD-9EC74B35DAE9";
paths = (
{
closed = 1;
nodes = (
"484 167 LINE",
"484 708 LINE",
"665 708 LINE",
"665 167 LINE",
"748 167 LINE",
"748 -168 LINE",
"567 -168 LINE",
"567 0 LINE",
"67 0 LINE",
"67 708 LINE",
"248 708 LINE",
"248 167 LINE"
);
}
);
width = 755;
}
);
rightKerningGroup = _kern12;
unicode = 0426;
},
{
color = (168, 255, 153, 255);
glyphname = uni0427;
layers = (
{
layerId = "DFDDFFA4-CA88-482C-9ABD-9EC74B35DAE9";
paths = (
{
closed = 1;
nodes = (
"44 708 LINE",
"225 708 LINE",
"225 491 LINE",
"225 432 OFFCURVE",
"286 389 OFFCURVE",
"352 389 QCURVE",
"377 389 OFFCURVE",
"426 393 OFFCURVE",
"455 398 QCURVE",
"455 708 LINE",
"636 708 LINE",
"636 0 LINE",
"455 0 LINE",
"455 229 LINE",
"413 223 OFFCURVE",
"343 219 OFFCURVE",
"313 219 QCURVE",
"264 219 OFFCURVE",
"164 242 OFFCURVE",
"123 274 QCURVE",
"79 309 OFFCURVE",
"44 416 OFFCURVE",
"44 482 QCURVE"
);
}
);
width = 703;
}
);
unicode = 0427;
},
{
color = (168, 255, 153, 255);
glyphname = uni0428;
layers = (
{
layerId = "DFDDFFA4-CA88-482C-9ABD-9EC74B35DAE9";
paths = (
{
closed = 1;
nodes = (
"67 0 LINE",
"67 708 LINE",
"248 708 LINE",
"248 167 LINE",
"417 167 LINE",
"417 708 LINE",
"598 708 LINE",
"598 167 LINE",
"767 167 LINE",
"767 708 LINE",
"948 708 LINE",
"948 0 LINE"
);
}
);
width = 1015;
}
);
unicode = 0428;
},
{
color = (168, 255, 153, 255);
glyphname = uni0429;
layers = (
{
layerId = "DFDDFFA4-CA88-482C-9ABD-9EC74B35DAE9";
paths = (
{
closed = 1;
nodes = (
"67 0 LINE",
"67 708 LINE",
"248 708 LINE",
"248 167 LINE",
"417 167 LINE",
"417 708 LINE",
"598 708 LINE",
"598 167 LINE",
"766 167 LINE",
"766 708 LINE",
"947 708 LINE",
"947 167 LINE",
"1030 167 LINE",
"1030 -168 LINE",
"849 -168 LINE",
"849 0 LINE"
);
}
);
width = 1037;
}
);
rightKerningGroup = _kern12;
unicode = 0429;
},
{
color = (168, 255, 153, 255);
glyphname = uni042A;
layers = (
{
layerId = "DFDDFFA4-CA88-482C-9ABD-9EC74B35DAE9";
paths = (
{
closed = 1;
nodes = (
"150 0 LINE",
"150 540 LINE",
"-6 540 LINE",
"-6 708 LINE",
"331 708 LINE",
"331 465 LINE",
"469 465 LINE",
"514 465 OFFCURVE",
"608 447 OFFCURVE",
"685 398 OFFCURVE",
"735 310 OFFCURVE",
"735 240 QCURVE",
"735 169 OFFCURVE",
"683 76 OFFCURVE",
"601 22 OFFCURVE",
"497 0 OFFCURVE",
"445 0 QCURVE"
);
},
{
closed = 1;
nodes = (
"331 167 LINE",
"438 167 LINE",
"464 167 OFFCURVE",
"508 172 OFFCURVE",
"540 188 OFFCURVE",
"558 217 OFFCURVE",
"558 241 QCURVE",
"557 306 OFFCURVE",
"463 306 QCURVE",
"331 306 LINE"
);
}
);
width = 765;
}
);
unicode = 042A;
},
{
color = (168, 255, 153, 255);
glyphname = uni042B;
layers = (
{
layerId = "DFDDFFA4-CA88-482C-9ABD-9EC74B35DAE9";
paths = (
{
closed = 1;
nodes = (
"67 0 LINE",
"67 708 LINE",
"248 708 LINE",
"248 465 LINE",
"339 465 LINE",
"387 465 OFFCURVE",
"483 445 OFFCURVE",
"560 394 OFFCURVE",
"608 307 OFFCURVE",
"608 241 QCURVE",
"607 170 OFFCURVE",
"553 77 OFFCURVE",
"466 22 OFFCURVE",
"358 0 OFFCURVE",
"304 0 QCURVE"
);
},
{
closed = 1;
nodes = (
"248 167 LINE",
"313 167 LINE",
"339 167 OFFCURVE",
"382 174 OFFCURVE",
"414 190 OFFCURVE",
"431 219 OFFCURVE",
"431 241 QCURVE",
"431 261 OFFCURVE",
"412 287 OFFCURVE",
"382 301 OFFCURVE",
"342 306 OFFCURVE",
"320 306 QCURVE",
"248 306 LINE"
);
},
{
closed = 1;
nodes = (
"691 708 LINE",
"872 708 LINE",
"872 0 LINE",
"691 0 LINE"
);
}
);
width = 939;
}
);
unicode = 042B;
},
{
color = (168, 255, 153, 255);
glyphname = uni042C;
layers = (
{
layerId = "DFDDFFA4-CA88-482C-9ABD-9EC74B35DAE9";
paths = (
{
closed = 1;
nodes = (
"66 0 LINE",
"66 708 LINE",
"247 708 LINE",
"247 465 LINE",
"382 465 LINE",
"439 465 OFFCURVE",
"537 443 OFFCURVE",
"610 391 OFFCURVE",
"651 304 OFFCURVE",
"651 240 QCURVE",
"651 169 OFFCURVE",
"598 76 OFFCURVE",
"512 22 OFFCURVE",
"401 0 OFFCURVE",
"344 0 QCURVE"
);
},
{
closed = 1;
nodes = (
"247 167 LINE",
"356 167 LINE",
"381 167 OFFCURVE",
"424 173 OFFCURVE",
"455 189 OFFCURVE",
"472 218 OFFCURVE",
"472 241 QCURVE",
"472 279 OFFCURVE",
"420 306 OFFCURVE",
"375 306 QCURVE",
"247 306 LINE"
);
}
);
width = 681;
}
);
unicode = 042C;
},
{
color = (168, 255, 153, 255);
glyphname = uni042D;
layers = (
{
layerId = "DFDDFFA4-CA88-482C-9ABD-9EC74B35DAE9";
paths = (
{
closed = 1;
nodes = (
"505 434 LINE",
"503 455 OFFCURVE",
"486 497 OFFCURVE",
"452 529 OFFCURVE",
"398 549 OFFCURVE",
"360 549 QCURVE",
"293 549 OFFCURVE",
"218 497 OFFCURVE",
"207 452 QCURVE",
"32 452 LINE",
"40 519 OFFCURVE",
"100 619 OFFCURVE",
"190 685 OFFCURVE",
"301 717 OFFCURVE",
"360 717 QCURVE",
"444 717 OFFCURVE",
"570 663 OFFCURVE",
"654 567 OFFCURVE",
"696 434 OFFCURVE",
"696 355 QCURVE",
"696 273 OFFCURVE",
"650 139 OFFCURVE",
"563 44 OFFCURVE",
"435 -8 OFFCURVE",
"354 -8 QCURVE",
"294 -8 OFFCURVE",
"182 24 OFFCURVE",
"94 89 OFFCURVE",
"35 189 OFFCURVE",
"28 257 QCURVE",
"201 257 LINE",
"216 208 OFFCURVE",
"299 163 OFFCURVE",
"360 163 QCURVE",
"428 163 OFFCURVE",
"503 225 OFFCURVE",
"506 275 QCURVE",
"260 275 LINE",
"260 434 LINE"
);
}
);
width = 724;
}
);
leftKerningGroup = _kern7;
rightKerningGroup = _kern8;
unicode = 042D;
},
{
color = (168, 255, 153, 255);
glyphname = uni042E;
layers = (
{
layerId = "DFDDFFA4-CA88-482C-9ABD-9EC74B35DAE9";
paths = (
{
closed = 1;
nodes = (
"489 321 OFFCURVE",
"506 252 OFFCURVE",
"544 196 OFFCURVE",
"607 162 OFFCURVE",
"652 162 QCURVE",
"698 162 OFFCURVE",
"761 197 OFFCURVE",
"800 253 OFFCURVE",
"816 322 OFFCURVE",
"816 356 QCURVE",
"816 390 OFFCURVE",
"801 458 OFFCURVE",
"763 513 OFFCURVE",
"700 548 OFFCURVE",
"652 548 QCURVE",
"604 548 OFFCURVE",
"541 510 OFFCURVE",
"504 453 OFFCURVE",
"489 386 OFFCURVE",
"489 356 QCURVE"
);
},
{
closed = 1;
nodes = (
"248 431 LINE",
"323 431 LINE",
"330 495 OFFCURVE",
"386 601 OFFCURVE",
"472 676 OFFCURVE",
"584 717 OFFCURVE",
"649 717 QCURVE",
"730 717 OFFCURVE",
"861 667 OFFCURVE",
"952 574 OFFCURVE",
"1001 441 OFFCURVE",
"1001 357 QCURVE",
"1001 274 OFFCURVE",
"954 140 OFFCURVE",
"865 44 OFFCURVE",
"735 -8 OFFCURVE",
"653 -8 QCURVE",
"584 -8 OFFCURVE",
"470 32 OFFCURVE",
"384 105 OFFCURVE",
"332 207 OFFCURVE",
"325 269 QCURVE",
"248 269 LINE",
"248 0 LINE",
"67 0 LINE",
"67 708 LINE",
"248 708 LINE"
);
}
);
width = 1029;
}
);
rightKerningGroup = _kern8;
unicode = 042E;
},
{
color = (168, 255, 153, 255);
glyphname = uni042F;
layers = (
{
layerId = "DFDDFFA4-CA88-482C-9ABD-9EC74B35DAE9";
paths = (
{
closed = 1;
nodes = (
"663 708 LINE",
"663 0 LINE",
"482 0 LINE",
"482 225 LINE",
"409 225 LINE",
"252 0 LINE",
"35 0 LINE",
"231 254 LINE",
"150 282 OFFCURVE",
"74 394 OFFCURVE",
"74 475 QCURVE",
"74 547 OFFCURVE",
"132 641 OFFCURVE",
"176 667 QCURVE",
"221 693 OFFCURVE",
"323 708 OFFCURVE",
"376 708 QCURVE"
);
},
{
closed = 1;
nodes = (
"482 385 LINE",
"482 540 LINE",
"358 540 LINE",
"337 540 OFFCURVE",
"299 533 OFFCURVE",
"269 516 OFFCURVE",
"252 486 OFFCURVE",
"252 464 QCURVE",
"252 441 OFFCURVE",
"272 410 OFFCURVE",
"304 392 OFFCURVE",
"343 385 OFFCURVE",
"361 385 QCURVE"
);
}
);
width = 730;
}
);
unicode = 042F;
},
{
color = (168, 255, 153, 255);
glyphname = uni0440;
layers = (
{
layerId = "DFDDFFA4-CA88-482C-9ABD-9EC74B35DAE9";
paths = (
{
closed = 1;
nodes = (
"303 376 OFFCURVE",
"264 357 OFFCURVE",
"237 326 OFFCURVE",
"224 287 OFFCURVE",
"224 267 QCURVE",
"224 245 OFFCURVE",
"236 204 OFFCURVE",
"264 173 OFFCURVE",
"306 153 OFFCURVE",
"335 153 QCURVE",
"365 153 OFFCURVE",
"404 174 OFFCURVE",
"427 206 OFFCURVE",
"436 246 OFFCURVE",
"436 267 QCURVE",
"436 285 OFFCURVE",
"425 323 OFFCURVE",
"400 355 OFFCURVE",
"360 376 OFFCURVE",
"330 376 QCURVE"
);
},
{
closed = 1;
nodes = (
"220 469 LINE",
"256 510 OFFCURVE",
"341 539 OFFCURVE",
"386 537 QCURVE",
"438 537 OFFCURVE",
"522 495 OFFCURVE",
"580 422 OFFCURVE",
"610 324 OFFCURVE",
"610 269 QCURVE",
"610 209 OFFCURVE",
"580 106 OFFCURVE",
"520 31 OFFCURVE",
"431 -10 OFFCURVE",
"374 -8 QCURVE",
"313 -6 OFFCURVE",
"245 26 OFFCURVE",
"224 45 QCURVE",
"224 -201 LINE",
"47 -201 LINE",
"47 527 LINE",
"211 527 LINE"
);
}
);
width = 633;
}
);
leftKerningGroup = _kern11;
rightKerningGroup = _kern10;
unicode = 0440;
},
{
color = (168, 255, 153, 255);
glyphname = O;
layers = (
{
layerId = "DFDDFFA4-CA88-482C-9ABD-9EC74B35DAE9";
paths = (
{
closed = 1;
nodes = (
"472 717 OFFCURVE",
"605 666 OFFCURVE",
"700 573 OFFCURVE",
"753 440 OFFCURVE",
"753 358 QCURVE",
"753 277 OFFCURVE",
"701 142 OFFCURVE",
"605 45 OFFCURVE",
"472 -8 OFFCURVE",
"391 -8 QCURVE",
"308 -8 OFFCURVE",
"174 44 OFFCURVE",
"79 139 OFFCURVE",
"28 273 OFFCURVE",
"28 355 QCURVE",
"28 437 OFFCURVE",
"81 571 OFFCURVE",
"177 665 OFFCURVE",
"311 717 OFFCURVE",
"392 717 QCURVE"
);
},
{
closed = 1;
nodes = (
"213 320 OFFCURVE",
"234 251 OFFCURVE",
"278 196 OFFCURVE",
"347 163 OFFCURVE",
"396 163 QCURVE",
"442 163 OFFCURVE",
"507 198 OFFCURVE",
"549 253 OFFCURVE",
"568 320 OFFCURVE",
"568 353 QCURVE",
"568 384 OFFCURVE",
"550 453 OFFCURVE",
"508 509 OFFCURVE",
"441 546 OFFCURVE",
"393 546 QCURVE",
"345 546 OFFCURVE",
"276 512 OFFCURVE",
"233 458 OFFCURVE",
"213 390 OFFCURVE",
"213 356 QCURVE"
);
}
);
width = 781;
}
);
leftKerningGroup = _kern3;
rightKerningGroup = _kern4;
unicode = 004F;
},
{
color = (168, 255, 153, 255);
glyphname = be_alt;
layers = (
{
layerId = "DFDDFFA4-CA88-482C-9ABD-9EC74B35DAE9";
paths = (
{
closed = 1;
nodes = (
"24 423 OFFCURVE",
"53 553 OFFCURVE",
"117 644 OFFCURVE",
"220 707 OFFCURVE",
"296 731 QCURVE",
"362 753 OFFCURVE",
"472 794 OFFCURVE",
"492 811 QCURVE",
"579 679 LINE",
"565 658 OFFCURVE",
"522 626 OFFCURVE",
"470 603 OFFCURVE",
"411 586 OFFCURVE",
"382 578 QCURVE",
"347 569 OFFCURVE",
"282 543 OFFCURVE",
"230 510 OFFCURVE",
"197 469 OFFCURVE",
"194 442 QCURVE",
"195 442 LINE",
"230 480 OFFCURVE",
"314 507 OFFCURVE",
"362 507 QCURVE",
"407 507 OFFCURVE",
"486 475 OFFCURVE",
"544 413 OFFCURVE",
"578 323 OFFCURVE",
"578 265 QCURVE",
"578 201 OFFCURVE",
"538 99 OFFCURVE",
"467 29 OFFCURVE",
"367 -8 OFFCURVE",
"306 -8 QCURVE",
"231 -8 OFFCURVE",
"124 46 OFFCURVE",
"56 139 OFFCURVE",
"24 263 OFFCURVE",
"24 331 QCURVE"
);
},
{
closed = 1;
nodes = (
"333 153 OFFCURVE",
"370 170 OFFCURVE",
"392 198 OFFCURVE",
"402 232 OFFCURVE",
"402 249 QCURVE",
"402 266 OFFCURVE",
"391 299 OFFCURVE",
"369 326 OFFCURVE",
"332 342 OFFCURVE",
"308 342 QCURVE",
"285 342 OFFCURVE",
"249 327 OFFCURVE",
"225 301 OFFCURVE",
"212 269 OFFCURVE",
"212 251 QCURVE",
"212 233 OFFCURVE",
"224 198 OFFCURVE",
"248 170 OFFCURVE",
"284 153 OFFCURVE",
"307 153 QCURVE"
);
}
);
width = 602;
}
);
},
{
color = (168, 255, 153, 255);
glyphname = a;
layers = (
{
layerId = "DFDDFFA4-CA88-482C-9ABD-9EC74B35DAE9";
paths = (
{
closed = 1;
nodes = (
"265 213 LINE",
"240 213 OFFCURVE",
"204 193 OFFCURVE",
"204 170 QCURVE",
"204 149 OFFCURVE",
"237 127 OFFCURVE",
"261 127 QCURVE",
"282 127 OFFCURVE",
"319 141 OFFCURVE",
"346 166 OFFCURVE",
"363 196 OFFCURVE",
"364 213 QCURVE"
);
},
{
closed = 1;
nodes = (
"367 69 LINE",
"347 39 OFFCURVE",
"300 8 OFFCURVE",
"253 -6 OFFCURVE",
"213 -8 OFFCURVE",
"203 -8 QCURVE",
"170 -8 OFFCURVE",
"107 12 OFFCURVE",
"59 54 OFFCURVE",
"29 117 OFFCURVE",
"29 162 QCURVE",
"29 208 OFFCURVE",
"76 276 OFFCURVE",
"109 293 QCURVE",
"133 305 OFFCURVE",
"188 318 OFFCURVE",
"245 322 OFFCURVE",
"306 322 OFFCURVE",
"338 322 QCURVE",
"362 322 LINE",
"361 350 OFFCURVE",
"322 389 OFFCURVE",
"287 389 QCURVE",
"261 389 OFFCURVE",
"218 367 OFFCURVE",
"215 350 QCURVE",
"39 350 LINE",
"45 399 OFFCURVE",
"91 470 OFFCURVE",
"159 515 OFFCURVE",
"241 537 OFFCURVE",
"285 537 QCURVE",
"338 537 OFFCURVE",
"417 515 OFFCURVE",
"446 493 QCURVE",
"530 432 OFFCURVE",
"530 283 QCURVE",
"530 0 LINE",
"367 0 LINE"
);
}
);
width = 576;
}
);
leftKerningGroup = _kern27;
rightKerningGroup = _kern27;
unicode = 0061;
},
{
color = (168, 255, 153, 255);
glyphname = c;
layers = (
{
layerId = "DFDDFFA4-CA88-482C-9ABD-9EC74B35DAE9";
paths = (
{
closed = 1;
nodes = (
"324 153 OFFCURVE",
"365 184 OFFCURVE",
"370 211 QCURVE",
"546 211 LINE",
"544 157 OFFCURVE",
"503 75 OFFCURVE",
"435 20 OFFCURVE",
"345 -8 OFFCURVE",
"296 -8 QCURVE",
"234 -8 OFFCURVE",
"134 28 OFFCURVE",
"65 98 OFFCURVE",
"27 199 OFFCURVE",
"27 264 QCURVE",
"27 328 OFFCURVE",
"66 431 OFFCURVE",
"137 501 OFFCURVE",
"237 538 OFFCURVE",
"300 538 QCURVE",
"350 538 OFFCURVE",
"437 509 OFFCURVE",
"501 452 OFFCURVE",
"538 370 OFFCURVE",
"540 317 QCURVE",
"370 317 LINE",
"364 346 OFFCURVE",
"323 376 OFFCURVE",
"294 376 QCURVE",
"267 376 OFFCURVE",
"231 354 OFFCURVE",
"210 319 OFFCURVE",
"202 279 OFFCURVE",
"202 260 QCURVE",
"202 240 OFFCURVE",
"212 202 OFFCURVE",
"233 172 OFFCURVE",
"268 153 OFFCURVE",
"292 153 QCURVE"
);
}
);
width = 568;
}
);
leftKerningGroup = _kern5;
rightKerningGroup = _kern6;
unicode = 0063;
},
{
color = (168, 255, 153, 255);
glyphname = e;
layers = (
{
layerId = "DFDDFFA4-CA88-482C-9ABD-9EC74B35DAE9";
paths = (
{
closed = 1;
nodes = (
"329 139 OFFCURVE",
"371 164 OFFCURVE",
"376 178 QCURVE",
"549 178 LINE",
"538 128 OFFCURVE",
"490 59 OFFCURVE",
"422 13 OFFCURVE",
"340 -8 OFFCURVE",
"296 -8 QCURVE",
"235 -8 OFFCURVE",
"136 29 OFFCURVE",
"66 100 OFFCURVE",
"27 201 OFFCURVE",
"27 266 QCURVE",
"27 328 OFFCURVE",
"69 431 OFFCURVE",
"107 468 QCURVE",
"142 501 OFFCURVE",
"235 538 OFFCURVE",
"295 538 QCURVE",
"357 538 OFFCURVE",
"444 504 OFFCURVE",
"480 469 QCURVE",
"514 434 OFFCURVE",
"549 336 OFFCURVE",
"549 280 QCURVE",
"549 261 OFFCURVE",
"546 230 OFFCURVE",
"542 213 QCURVE",
"202 213 LINE",
"205 184 OFFCURVE",
"250 141 OFFCURVE",
"298 140 QCURVE"
);
},
{
closed = 1;
nodes = (
"272 398 OFFCURVE",
"237 385 OFFCURVE",
"216 364 OFFCURVE",
"205 339 OFFCURVE",
"205 328 QCURVE",
"383 328 LINE",
"383 339 OFFCURVE",
"374 364 OFFCURVE",
"352 385 OFFCURVE",
"319 398 OFFCURVE",
"295 398 QCURVE"
);
}
);
width = 576;
}
);
leftKerningGroup = _kern5;
rightKerningGroup = _kern6;
unicode = 0065;
},
{
color = (168, 255, 153, 255);
glyphname = f;
layers = (
{
layerId = "DFDDFFA4-CA88-482C-9ABD-9EC74B35DAE9";
paths = (
{
closed = 1;
nodes = (
"386 527 LINE",
"386 369 LINE",
"264 369 LINE",
"264 0 LINE",
"87 0 LINE",
"87 369 LINE",
"12 369 LINE",
"12 527 LINE",
"87 527 LINE",
"87 569 LINE",
"87 662 OFFCURVE",
"183 745 OFFCURVE",
"281 745 QCURVE",
"386 745 LINE",
"386 588 LINE",
"304 588 LINE",
"283 588 OFFCURVE",
"264 569 OFFCURVE",
"264 551 QCURVE",
"264 527 LINE"
);
}
);
width = 396;
}
);
unicode = 0066;
},
{
color = (168, 255, 153, 255);
glyphname = g;
layers = (
{
layerId = "DFDDFFA4-CA88-482C-9ABD-9EC74B35DAE9";
paths = (
{
closed = 1;
nodes = (
"592 109 LINE",
"592 73 OFFCURVE",
"589 3 OFFCURVE",
"578 -63 OFFCURVE",
"557 -124 OFFCURVE",
"537 -152 QCURVE",
"517 -180 OFFCURVE",
"467 -217 OFFCURVE",
"408 -240 OFFCURVE",
"345 -249 OFFCURVE",
"315 -249 QCURVE",
"267 -249 OFFCURVE",
"178 -225 OFFCURVE",
"106 -174 OFFCURVE",
"57 -94 OFFCURVE",
"47 -39 QCURVE",
"227 -39 LINE",
"234 -60 OFFCURVE",
"279 -86 OFFCURVE",
"314 -86 QCURVE",
"348 -86 OFFCURVE",
"388 -62 OFFCURVE",
"407 -22 OFFCURVE",
"412 29 OFFCURVE",
"412 56 QCURVE",
"397 35 OFFCURVE",
"360 11 OFFCURVE",
"319 -3 OFFCURVE",
"280 -7 OFFCURVE",
"263 -7 QCURVE",
"199 -7 OFFCURVE",
"109 37 OFFCURVE",
"54 113 OFFCURVE",
"27 211 OFFCURVE",
"27 265 QCURVE",
"27 319 OFFCURVE",
"59 418 OFFCURVE",
"120 493 OFFCURVE",
"214 537 OFFCURVE",
"271 537 QCURVE",
"325 537 OFFCURVE",
"391 507 OFFCURVE",
"416 482 QCURVE",
"432 527 LINE",
"592 527 LINE"
);
},
{
closed = 1;
nodes = (
"279 378 OFFCURVE",
"237 355 OFFCURVE",
"213 319 OFFCURVE",
"203 277 OFFCURVE",
"203 258 QCURVE",
"203 239 OFFCURVE",
"214 201 OFFCURVE",
"238 171 OFFCURVE",
"278 152 OFFCURVE",
"306 152 QCURVE",
"335 152 OFFCURVE",
"377 170 OFFCURVE",
"403 202 OFFCURVE",
"415 243 OFFCURVE",
"415 267 QCURVE",
"415 289 OFFCURVE",
"403 329 OFFCURVE",
"377 360 OFFCURVE",
"337 378 OFFCURVE",
"309 378 QCURVE"
);
}
);
width = 639;
}
);
leftKerningGroup = _kern5;
unicode = 0067;
},
{
color = (168, 255, 153, 255);
glyphname = j;
layers = (
{
layerId = "DFDDFFA4-CA88-482C-9ABD-9EC74B35DAE9";
paths = (
{
closed = 1;
nodes = (
"41 527 LINE",
"218 527 LINE",
"218 -35 LINE",
"218 -128 OFFCURVE",
"138 -220 OFFCURVE",
"40 -220 QCURVE",
"-52 -220 LINE",
"-52 -61 LINE",
"-11 -61 LINE",
"9 -61 OFFCURVE",
"31 -48 OFFCURVE",
"40 -32 OFFCURVE",
"41 -13 OFFCURVE",
"41 -7 QCURVE"
);
},
{
closed = 1;
nodes = (
"153 777 OFFCURVE",
"191 763 OFFCURVE",
"220 735 OFFCURVE",
"237 697 OFFCURVE",
"237 672 QCURVE",
"237 618 OFFCURVE",
"174 567 OFFCURVE",
"131 567 QCURVE",
"110 567 OFFCURVE",
"72 580 OFFCURVE",
"41 606 OFFCURVE",
"24 645 OFFCURVE",
"24 672 QCURVE",
"24 697 OFFCURVE",
"42 735 OFFCURVE",
"73 763 OFFCURVE",
"111 777 OFFCURVE",
"131 777 QCURVE"
);
}
);
width = 277;
}
);
unicode = 006A;
},
{
color = (168, 255, 153, 255);
glyphname = o;
layers = (
{
layerId = "DFDDFFA4-CA88-482C-9ABD-9EC74B35DAE9";
paths = (
{
closed = 1;
nodes = (
"272 373 OFFCURVE",
"233 351 OFFCURVE",
"210 320 OFFCURVE",
"200 282 OFFCURVE",
"200 265 QCURVE",
"200 244 OFFCURVE",
"210 205 OFFCURVE",
"234 175 OFFCURVE",
"272 156 OFFCURVE",
"301 156 QCURVE",
"329 156 OFFCURVE",
"368 175 OFFCURVE",
"391 206 OFFCURVE",
"401 245 OFFCURVE",
"401 265 QCURVE",
"401 281 OFFCURVE",
"391 319 OFFCURVE",
"369 351 OFFCURVE",
"329 373 OFFCURVE",
"301 373 QCURVE"
);
},
{
closed = 1;
nodes = (
"243 -8 OFFCURVE",
"144 27 OFFCURVE",
"70 97 OFFCURVE",
"27 199 OFFCURVE",
"27 266 QCURVE",
"27 330 OFFCURVE",
"71 432 OFFCURVE",
"145 502 OFFCURVE",
"244 538 OFFCURVE",
"301 538 QCURVE",
"359 538 OFFCURVE",
"458 501 OFFCURVE",
"531 431 OFFCURVE",
"574 329 OFFCURVE",
"574 266 QCURVE",
"574 199 OFFCURVE",
"533 96 OFFCURVE",
"460 27 OFFCURVE",
"361 -8 OFFCURVE",
"301 -8 QCURVE"
);
}
);
width = 601;
}
);
leftKerningGroup = _kern5;
rightKerningGroup = _kern6;
unicode = 006F;
},
{
color = (168, 255, 153, 255);
glyphname = r;
layers = (
{
layerId = "DFDDFFA4-CA88-482C-9ABD-9EC74B35DAE9";
paths = (
{
closed = 1;
nodes = (
"214 477 LINE",
"229 499 OFFCURVE",
"265 523 OFFCURVE",
"301 535 OFFCURVE",
"338 538 OFFCURVE",
"356 538 QCURVE",
"369 538 OFFCURVE",
"395 537 OFFCURVE",
"399 536 QCURVE",
"399 365 LINE",
"365 365 LINE",
"337 365 OFFCURVE",
"286 355 OFFCURVE",
"247 328 OFFCURVE",
"224 280 OFFCURVE",
"224 240 QCURVE",
"224 0 LINE",
"47 0 LINE",
"47 527 LINE",
"202 527 LINE"
);
}
);
width = 406;
}
);
leftKerningGroup = _kern29;
rightKerningGroup = _kern29;
unicode = 0072;
},
{
color = (168, 255, 153, 255);
glyphname = t;
layers = (
{
layerId = "DFDDFFA4-CA88-482C-9ABD-9EC74B35DAE9";
paths = (
{
closed = 1;
nodes = (
"257 369 LINE",
"257 207 LINE",
"257 198 OFFCURVE",
"259 180 OFFCURVE",
"268 167 OFFCURVE",
"285 159 OFFCURVE",
"301 159 QCURVE",
"348 159 LINE",
"348 0 LINE",
"302 0 LINE",
"249 0 OFFCURVE",
"167 15 OFFCURVE",
"110 56 OFFCURVE",
"80 125 OFFCURVE",
"80 180 QCURVE",
"80 369 LINE",
"7 369 LINE",
"7 527 LINE",
"80 527 LINE",
"80 658 LINE",
"257 658 LINE",
"257 527 LINE",
"354 527 LINE",
"354 369 LINE"
);
}
);
width = 364;
}
);
leftKerningGroup = _kern21;
rightKerningGroup = _kern21;
unicode = 0074;
},
{
color = (168, 255, 153, 255);
glyphname = y_alt;
layers = (
{
layerId = "DFDDFFA4-CA88-482C-9ABD-9EC74B35DAE9";
paths = (
{
closed = 1;
nodes = (
"364 -86 OFFCURVE",
"408 -21 OFFCURVE",
"408 34 QCURVE",
"393 20 OFFCURVE",
"356 4 OFFCURVE",
"317 -5 OFFCURVE",
"278 -8 OFFCURVE",
"262 -8 QCURVE",
"158 -8 OFFCURVE",
"52 120 OFFCURVE",
"52 236 QCURVE",
"52 527 LINE",
"228 527 LINE",
"228 271 LINE",
"228 253 OFFCURVE",
"232 211 OFFCURVE",
"250 176 OFFCURVE",
"285 153 OFFCURVE",
"315 153 QCURVE",
"347 153 OFFCURVE",
"384 177 OFFCURVE",
"401 212 OFFCURVE",
"403 253 OFFCURVE",
"403 270 QCURVE",
"403 527 LINE",
"580 527 LINE",
"580 115 LINE",
"580 81 OFFCURVE",
"579 9 OFFCURVE",
"570 -60 OFFCURVE",
"548 -123 OFFCURVE",
"529 -150 QCURVE",
"487 -208 OFFCURVE",
"370 -249 OFFCURVE",
"306 -249 QCURVE",
"259 -249 OFFCURVE",
"173 -224 OFFCURVE",
"104 -173 OFFCURVE",
"57 -93 OFFCURVE",
"47 -38 QCURVE",
"228 -38 LINE",
"235 -59 OFFCURVE",
"278 -86 OFFCURVE",
"314 -86 QCURVE"
);
}
);
width = 627;
}
);
},
{
color = (168, 255, 153, 255);
glyphname = y2_alt;
layers = (
{
layerId = "DFDDFFA4-CA88-482C-9ABD-9EC74B35DAE9";
paths = (
{
closed = 1;
nodes = (
"404 527 LINE",
"592 527 LINE",
"458 48 LINE",
"444 3 OFFCURVE",
"416 -69 OFFCURVE",
"398 -99 QCURVE",
"356 -171 OFFCURVE",
"221 -251 OFFCURVE",
"119 -251 QCURVE",
"77 -251 LINE",
"77 -67 LINE",
"92 -67 LINE",
"135 -67 OFFCURVE",
"196 -52 OFFCURVE",
"216 -26 QCURVE",
"2 527 LINE",
"206 527 LINE",
"319 170 LINE"
);
}
);
width = 584;
}
);
},
{
color = (168, 255, 153, 255);
glyphname = uni0443;
layers = (
{
layerId = "DFDDFFA4-CA88-482C-9ABD-9EC74B35DAE9";
paths = (
{
closed = 1;
nodes = (
"405 527 LINE",
"595 527 LINE",
"461 48 LINE",
"447 3 OFFCURVE",
"419 -69 OFFCURVE",
"401 -99 QCURVE",
"359 -171 OFFCURVE",
"224 -251 OFFCURVE",
"122 -251 QCURVE",
"80 -251 LINE",
"80 -67 LINE",
"95 -67 LINE",
"138 -67 OFFCURVE",
"199 -52 OFFCURVE",
"219 -26 QCURVE",
"5 527 LINE",
"209 527 LINE",
"322 170 LINE"
);
}
);
width = 595;
}
);
unicode = 0443;
},
{
color = (168, 255, 153, 255);
glyphname = uni0451;
layers = (
{
layerId = "DFDDFFA4-CA88-482C-9ABD-9EC74B35DAE9";
paths = (
{
closed = 1;
nodes = (
"329 139 OFFCURVE",
"371 164 OFFCURVE",
"376 178 QCURVE",
"549 178 LINE",
"538 128 OFFCURVE",
"490 59 OFFCURVE",
"422 13 OFFCURVE",
"340 -8 OFFCURVE",
"296 -8 QCURVE",
"235 -8 OFFCURVE",
"136 29 OFFCURVE",
"66 100 OFFCURVE",
"27 201 OFFCURVE",
"27 266 QCURVE",
"27 328 OFFCURVE",
"69 431 OFFCURVE",
"107 468 QCURVE",
"142 501 OFFCURVE",
"235 538 OFFCURVE",
"295 538 QCURVE",
"357 538 OFFCURVE",
"444 504 OFFCURVE",
"480 469 QCURVE",
"514 434 OFFCURVE",
"549 336 OFFCURVE",
"549 280 QCURVE",
"549 261 OFFCURVE",
"546 230 OFFCURVE",
"542 213 QCURVE",
"202 213 LINE",
"205 184 OFFCURVE",
"250 141 OFFCURVE",
"298 140 QCURVE"
);
},
{
closed = 1;
nodes = (
"272 398 OFFCURVE",
"237 385 OFFCURVE",
"216 364 OFFCURVE",
"205 339 OFFCURVE",
"205 328 QCURVE",
"383 328 LINE",
"383 339 OFFCURVE",
"374 364 OFFCURVE",
"352 385 OFFCURVE",
"319 398 OFFCURVE",
"295 398 QCURVE"
);
},
{
closed = 1;
nodes = (
"205 763 OFFCURVE",
"263 714 OFFCURVE",
"263 670 QCURVE",
"263 623 OFFCURVE",
"206 576 OFFCURVE",
"168 576 QCURVE",
"130 576 OFFCURVE",
"73 623 OFFCURVE",
"73 670 QCURVE",
"73 692 OFFCURVE",
"89 726 OFFCURVE",
"115 750 OFFCURVE",
"149 763 OFFCURVE",
"168 763 QCURVE"
);
},
{
closed = 1;
nodes = (
"463 763 OFFCURVE",
"520 714 OFFCURVE",
"520 670 QCURVE",
"520 623 OFFCURVE",
"464 576 OFFCURVE",
"425 576 QCURVE",
"388 576 OFFCURVE",
"330 623 OFFCURVE",
"330 670 QCURVE",
"330 692 OFFCURVE",
"346 726 OFFCURVE",
"373 750 OFFCURVE",
"407 763 OFFCURVE",
"425 763 QCURVE"
);
}
);
width = 576;
}
);
leftKerningGroup = _kern9;
rightKerningGroup = _kern10;
unicode = 0451;
},
{
color = (168, 255, 153, 255);
glyphname = uni0437;
layers = (
{
layerId = "DFDDFFA4-CA88-482C-9ABD-9EC74B35DAE9";
paths = (
{
closed = 1;
nodes = (
"507 357 OFFCURVE",
"484 303 OFFCURVE",
"462 289 QCURVE",
"492 271 OFFCURVE",
"520 208 OFFCURVE",
"520 173 QCURVE",
"518 123 OFFCURVE",
"476 57 OFFCURVE",
"445 35 QCURVE",
"409 10 OFFCURVE",
"319 -8 OFFCURVE",
"273 -8 QCURVE",
"231 -8 OFFCURVE",
"145 13 OFFCURVE",
"73 60 OFFCURVE",
"23 135 OFFCURVE",
"17 189 QCURVE",
"189 189 LINE",
"191 164 OFFCURVE",
"245 140 OFFCURVE",
"280 140 QCURVE",
"308 140 OFFCURVE",
"351 158 OFFCURVE",
"351 178 QCURVE",
"351 191 OFFCURVE",
"333 207 OFFCURVE",
"310 207 QCURVE",
"220 207 LINE",
"220 328 LINE",
"288 328 LINE",
"323 328 OFFCURVE",
"340 348 OFFCURVE",
"340 359 QCURVE",
"340 376 OFFCURVE",
"302 392 OFFCURVE",
"273 392 QCURVE",
"243 392 OFFCURVE",
"191 368 OFFCURVE",
"186 344 QCURVE",
"20 344 LINE",
"29 401 OFFCURVE",
"80 476 OFFCURVE",
"150 520 OFFCURVE",
"236 538 OFFCURVE",
"282 538 QCURVE",
"317 538 OFFCURVE",
"384 529 OFFCURVE",
"416 514 QCURVE",
"450 497 OFFCURVE",
"503 434 OFFCURVE",
"505 384 QCURVE"
);
}
);
width = 543;
}
);
leftKerningGroup = _kern9;
rightKerningGroup = _kern10;
unicode = 0437;
},
{
color = (168, 255, 153, 255);
glyphname = uni044D;
layers = (
{
layerId = "DFDDFFA4-CA88-482C-9ABD-9EC74B35DAE9";
paths = (
{
closed = 1;
nodes = (
"326 136 OFFCURVE",
"364 172 OFFCURVE",
"366 191 QCURVE",
"207 191 LINE",
"207 330 LINE",
"364 330 LINE",
"359 350 OFFCURVE",
"317 386 OFFCURVE",
"281 386 QCURVE",
"250 386 OFFCURVE",
"203 360 OFFCURVE",
"195 342 QCURVE",
"19 342 LINE",
"28 389 OFFCURVE",
"78 462 OFFCURVE",
"149 510 OFFCURVE",
"235 535 OFFCURVE",
"281 535 QCURVE",
"402 535 OFFCURVE",
"537 393 OFFCURVE",
"537 263 QCURVE",
"537 133 OFFCURVE",
"402 -11 OFFCURVE",
"273 -11 QCURVE",
"231 -11 OFFCURVE",
"150 10 OFFCURVE",
"81 55 OFFCURVE",
"30 125 OFFCURVE",
"19 174 QCURVE",
"192 174 LINE",
"206 156 OFFCURVE",
"250 136 OFFCURVE",
"284 136 QCURVE"
);
}
);
width = 561;
}
);
leftKerningGroup = _kern9;
rightKerningGroup = _kern10;
unicode = 044D;
},
{
color = (168, 255, 153, 255);
glyphname = C;
layers = (
{
layerId = "DFDDFFA4-CA88-482C-9ABD-9EC74B35DAE9";
paths = (
{
closed = 1;
nodes = (
"215 322 OFFCURVE",
"233 253 OFFCURVE",
"272 198 OFFCURVE",
"336 163 OFFCURVE",
"382 163 QCURVE",
"441 163 OFFCURVE",
"513 215 OFFCURVE",
"524 263 QCURVE",
"699 263 LINE",
"694 196 OFFCURVE",
"638 94 OFFCURVE",
"551 26 OFFCURVE",
"440 -8 OFFCURVE",
"380 -8 QCURVE",
"298 -8 OFFCURVE",
"167 42 OFFCURVE",
"76 136 OFFCURVE",
"28 271 OFFCURVE",
"28 355 QCURVE",
"28 438 OFFCURVE",
"78 572 OFFCURVE",
"170 666 OFFCURVE",
"300 717 OFFCURVE",
"379 717 QCURVE",
"440 717 OFFCURVE",
"549 683 OFFCURVE",
"632 616 OFFCURVE",
"685 514 OFFCURVE",
"691 445 QCURVE",
"520 445 LINE",
"508 493 OFFCURVE",
"441 546 OFFCURVE",
"381 546 QCURVE",
"335 546 OFFCURVE",
"271 513 OFFCURVE",
"232 459 OFFCURVE",
"215 391 OFFCURVE",
"215 356 QCURVE"
);
}
);
width = 721;
}
);
leftKerningGroup = _kern3;
rightKerningGroup = _kern4;
unicode = 0043;
},
{
color = (168, 255, 153, 255);
glyphname = S;
layers = (
{
layerId = "DFDDFFA4-CA88-482C-9ABD-9EC74B35DAE9";
paths = (
{
closed = 1;
nodes = (
"436 481 LINE",
"431 514 OFFCURVE",
"371 551 OFFCURVE",
"322 551 QCURVE",
"288 551 OFFCURVE",
"238 527 OFFCURVE",
"238 503 QCURVE",
"238 479 OFFCURVE",
"294 455 OFFCURVE",
"348 441 QCURVE",
"413 425 LINE",
"456 414 OFFCURVE",
"533 389 OFFCURVE",
"591 345 OFFCURVE",
"625 276 OFFCURVE",
"627 221 QCURVE",
"627 158 OFFCURVE",
"578 71 OFFCURVE",
"498 17 OFFCURVE",
"397 -8 OFFCURVE",
"345 -8 QCURVE",
"295 -8 OFFCURVE",
"194 14 OFFCURVE",
"149 43 QCURVE",
"105 72 OFFCURVE",
"44 169 OFFCURVE",
"37 239 QCURVE",
"219 239 LINE",
"229 196 OFFCURVE",
"304 160 OFFCURVE",
"354 160 QCURVE",
"369 160 OFFCURVE",
"401 164 OFFCURVE",
"428 175 OFFCURVE",
"445 195 OFFCURVE",
"445 212 QCURVE",
"445 234 OFFCURVE",
"408 257 OFFCURVE",
"374 263 QCURVE",
"318 275 LINE",
"261 287 OFFCURVE",
"161 321 OFFCURVE",
"130 344 QCURVE",
"97 369 OFFCURVE",
"59 445 OFFCURVE",
"59 504 QCURVE",
"59 506 LINE",
"63 566 OFFCURVE",
"115 646 OFFCURVE",
"154 671 QCURVE",
"198 699 OFFCURVE",
"295 717 OFFCURVE",
"349 717 QCURVE",
"394 716 OFFCURVE",
"479 691 OFFCURVE",
"512 668 QCURVE",
"554 639 OFFCURVE",
"604 546 OFFCURVE",
"611 481 QCURVE"
);
}
);
width = 665;
}
);
leftKerningGroup = _kern3;
rightKerningGroup = _kern4;
unicode = 0053;
},
{
color = (168, 255, 153, 255);
glyphname = uni0421;
layers = (
{
layerId = "DFDDFFA4-CA88-482C-9ABD-9EC74B35DAE9";
paths = (
{
closed = 1;
nodes = (
"215 322 OFFCURVE",
"233 253 OFFCURVE",
"272 198 OFFCURVE",
"336 163 OFFCURVE",
"382 163 QCURVE",
"441 163 OFFCURVE",
"513 215 OFFCURVE",
"524 263 QCURVE",
"699 263 LINE",
"694 196 OFFCURVE",
"638 94 OFFCURVE",
"551 26 OFFCURVE",
"440 -8 OFFCURVE",
"380 -8 QCURVE",
"298 -8 OFFCURVE",
"167 42 OFFCURVE",
"76 136 OFFCURVE",
"28 271 OFFCURVE",
"28 355 QCURVE",
"28 438 OFFCURVE",
"78 572 OFFCURVE",
"170 666 OFFCURVE",
"300 717 OFFCURVE",
"379 717 QCURVE",
"440 717 OFFCURVE",
"549 683 OFFCURVE",
"632 616 OFFCURVE",
"685 514 OFFCURVE",
"691 445 QCURVE",
"520 445 LINE",
"508 493 OFFCURVE",
"441 546 OFFCURVE",
"381 546 QCURVE",
"335 546 OFFCURVE",
"271 513 OFFCURVE",
"232 459 OFFCURVE",
"215 391 OFFCURVE",
"215 356 QCURVE"
);
}
);
width = 727;
}
);
leftKerningGroup = _kern7;
rightKerningGroup = _kern8;
unicode = 0421;
},
{
color = (168, 255, 153, 255);
glyphname = G;
layers = (
{
layerId = "DFDDFFA4-CA88-482C-9ABD-9EC74B35DAE9";
paths = (
{
closed = 1;
nodes = (
"215 318 OFFCURVE",
"233 249 OFFCURVE",
"274 195 OFFCURVE",
"341 163 OFFCURVE",
"391 163 QCURVE",
"413 163 OFFCURVE",
"457 172 OFFCURVE",
"493 191 OFFCURVE",
"518 221 OFFCURVE",
"522 242 QCURVE",
"355 242 LINE",
"355 394 LINE",
"712 394 LINE",
"712 368 LINE",
"712 295 OFFCURVE",
"685 162 OFFCURVE",
"642 104 QCURVE",
"621 75 OFFCURVE",
"563 33 OFFCURVE",
"496 6 OFFCURVE",
"421 -8 OFFCURVE",
"384 -8 QCURVE",
"301 -8 OFFCURVE",
"170 43 OFFCURVE",
"77 137 OFFCURVE",
"28 271 OFFCURVE",
"28 354 QCURVE",
"28 439 OFFCURVE",
"78 574 OFFCURVE",
"170 667 OFFCURVE",
"301 717 OFFCURVE",
"383 717 QCURVE",
"442 717 OFFCURVE",
"549 686 OFFCURVE",
"634 622 OFFCURVE",
"690 525 OFFCURVE",
"699 458 QCURVE",
"520 458 LINE",
"510 505 OFFCURVE",
"441 546 OFFCURVE",
"386 546 QCURVE",
"338 546 OFFCURVE",
"273 512 OFFCURVE",
"232 457 OFFCURVE",
"215 389 OFFCURVE",
"215 356 QCURVE"
);
}
);
width = 740;
}
);
leftKerningGroup = _kern3;
rightKerningGroup = _kern4;
unicode = 0047;
},
{
color = (168, 255, 153, 255);
glyphname = uni041E;
layers = (
{
layerId = "DFDDFFA4-CA88-482C-9ABD-9EC74B35DAE9";
paths = (
{
closed = 1;
nodes = (
"472 717 OFFCURVE",
"605 666 OFFCURVE",
"700 573 OFFCURVE",
"753 440 OFFCURVE",
"753 358 QCURVE",
"753 277 OFFCURVE",
"701 142 OFFCURVE",
"605 45 OFFCURVE",
"472 -8 OFFCURVE",
"391 -8 QCURVE",
"308 -8 OFFCURVE",
"174 44 OFFCURVE",
"79 139 OFFCURVE",
"28 273 OFFCURVE",
"28 355 QCURVE",
"28 437 OFFCURVE",
"81 571 OFFCURVE",
"177 665 OFFCURVE",
"311 717 OFFCURVE",
"392 717 QCURVE"
);
},
{
closed = 1;
nodes = (
"213 320 OFFCURVE",
"234 251 OFFCURVE",
"278 196 OFFCURVE",
"347 163 OFFCURVE",
"396 163 QCURVE",
"442 163 OFFCURVE",
"507 198 OFFCURVE",
"549 253 OFFCURVE",
"568 320 OFFCURVE",
"568 353 QCURVE",
"568 384 OFFCURVE",
"550 453 OFFCURVE",
"508 509 OFFCURVE",
"441 546 OFFCURVE",
"393 546 QCURVE",
"345 546 OFFCURVE",
"276 512 OFFCURVE",
"233 458 OFFCURVE",
"213 390 OFFCURVE",
"213 356 QCURVE"
);
}
);
width = 781;
}
);
leftKerningGroup = _kern7;
rightKerningGroup = _kern8;
unicode = 041E;
},
{
color = (168, 255, 153, 255);
glyphname = Q;
layers = (
{
layerId = "DFDDFFA4-CA88-482C-9ABD-9EC74B35DAE9";
paths = (
{
closed = 1;
nodes = (
"473 717 OFFCURVE",
"606 667 OFFCURVE",
"701 574 OFFCURVE",
"753 441 OFFCURVE",
"753 358 QCURVE",
"753 278 OFFCURVE",
"704 159 OFFCURVE",
"660 113 QCURVE",
"683 84 OFFCURVE",
"731 23 OFFCURVE",
"754 -6 QCURVE",
"615 -112 LINE",
"516 15 LINE",
"487 4 OFFCURVE",
"420 -8 OFFCURVE",
"391 -8 QCURVE",
"308 -8 OFFCURVE",
"173 44 OFFCURVE",
"79 138 OFFCURVE",
"28 272 OFFCURVE",
"28 354 QCURVE",
"28 436 OFFCURVE",
"80 570 OFFCURVE",
"176 665 OFFCURVE",
"310 717 OFFCURVE",
"392 717 QCURVE"
);
},
{
closed = 1;
nodes = (
"213 319 OFFCURVE",
"232 250 OFFCURVE",
"276 196 OFFCURVE",
"344 163 OFFCURVE",
"394 163 QCURVE",
"440 163 OFFCURVE",
"506 199 OFFCURVE",
"548 254 OFFCURVE",
"568 322 OFFCURVE",
"568 355 QCURVE",
"568 389 OFFCURVE",
"549 457 OFFCURVE",
"507 512 OFFCURVE",
"439 546 OFFCURVE",
"391 546 QCURVE",
"343 546 OFFCURVE",
"275 511 OFFCURVE",
"232 455 OFFCURVE",
"213 388 OFFCURVE",
"213 355 QCURVE"
);
}
);
width = 782;
}
);
leftKerningGroup = _kern3;
rightKerningGroup = _kern4;
unicode = 0051;
},
{
color = (168, 255, 153, 255);
glyphname = J;
layers = (
{
layerId = "DFDDFFA4-CA88-482C-9ABD-9EC74B35DAE9";
paths = (
{
closed = 1;
nodes = (
"539 255 LINE",
"540 -8 OFFCURVE",
"286 -8 QCURVE",
"224 -8 OFFCURVE",
"127 26 OFFCURVE",
"58 90 OFFCURVE",
"22 184 OFFCURVE",
"22 243 QCURVE",
"22 269 LINE",
"202 269 LINE",
"202 252 OFFCURVE",
"206 215 OFFCURVE",
"222 182 OFFCURVE",
"255 161 OFFCURVE",
"285 161 QCURVE",
"308 161 OFFCURVE",
"337 175 OFFCURVE",
"353 198 OFFCURVE",
"358 227 OFFCURVE",
"358 242 QCURVE",
"358 708 LINE",
"539 708 LINE"
);
}
);
width = 602;
}
);
unicode = 004A;
},
{
color = (168, 255, 153, 255);
glyphname = K_alt;
layers = (
{
layerId = "DFDDFFA4-CA88-482C-9ABD-9EC74B35DAE9";
paths = (
{
closed = 1;
nodes = (
"248 439 LINE",
"494 708 LINE",
"731 708 LINE",
"448 408 LINE",
"710 0 LINE",
"492 0 LINE",
"313 286 LINE",
"248 224 LINE",
"248 0 LINE",
"67 0 LINE",
"67 708 LINE",
"248 708 LINE"
);
}
);
width = 725;
}
);
leftKerningGroup = _kern16;
rightKerningGroup = _kern16;
},
{
color = (168, 255, 153, 255);
glyphname = K;
layers = (
{
layerId = "DFDDFFA4-CA88-482C-9ABD-9EC74B35DAE9";
paths = (
{
closed = 1;
nodes = (
"248 269 LINE",
"248 0 LINE",
"67 0 LINE",
"67 708 LINE",
"248 708 LINE",
"248 436 LINE",
"345 436 LINE",
"498 708 LINE",
"704 708 LINE",
"494 369 LINE",
"702 0 LINE",
"492 0 LINE",
"349 269 LINE"
);
}
);
width = 704;
}
);
leftKerningGroup = _kern1;
rightKerningGroup = _kern16;
unicode = 004B;
},
{
color = (168, 255, 153, 255);
glyphname = k_alt;
layers = (
{
layerId = "DFDDFFA4-CA88-482C-9ABD-9EC74B35DAE9";
paths = (
{
closed = 1;
nodes = (
"383 527 LINE",
"606 527 LINE",
"396 314 LINE",
"594 0 LINE",
"396 0 LINE",
"275 200 LINE",
"224 149 LINE",
"224 0 LINE",
"47 0 LINE",
"47 708 LINE",
"224 708 LINE",
"224 355 LINE"
);
}
);
width = 600;
}
);
leftKerningGroup = _kern17;
rightKerningGroup = _kern17;
},
{
color = (168, 255, 153, 255);
glyphname = k;
layers = (
{
layerId = "DFDDFFA4-CA88-482C-9ABD-9EC74B35DAE9";
paths = (
{
closed = 1;
nodes = (
"224 183 LINE",
"224 0 LINE",
"47 0 LINE",
"47 708 LINE",
"224 708 LINE",
"224 341 LINE",
"277 341 LINE",
"387 527 LINE",
"585 527 LINE",
"422 276 LINE",
"598 0 LINE",
"394 0 LINE",
"280 183 LINE"
);
}
);
width = 585;
}
);
leftKerningGroup = _kern17;
rightKerningGroup = _kern17;
unicode = 006B;
},
{
color = (168, 255, 153, 255);
glyphname = i_alt;
layers = (
{
layerId = "DFDDFFA4-CA88-482C-9ABD-9EC74B35DAE9";
paths = (
{
closed = 1;
nodes = (
"-8 527 LINE",
"245 527 LINE",
"245 0 LINE",
"69 0 LINE",
"69 369 LINE",
"-8 369 LINE"
);
},
{
closed = 1;
nodes = (
"172 782 OFFCURVE",
"210 768 OFFCURVE",
"239 740 OFFCURVE",
"257 702 OFFCURVE",
"257 677 QCURVE",
"257 623 OFFCURVE",
"193 572 OFFCURVE",
"150 572 QCURVE",
"129 572 OFFCURVE",
"91 585 OFFCURVE",
"61 611 OFFCURVE",
"43 650 OFFCURVE",
"43 677 QCURVE",
"43 702 OFFCURVE",
"62 740 OFFCURVE",
"92 768 OFFCURVE",
"130 782 OFFCURVE",
"150 782 QCURVE"
);
}
);
width = 296;
}
);
},
{
color = (168, 255, 153, 255);
glyphname = j_alt;
layers = (
{
layerId = "DFDDFFA4-CA88-482C-9ABD-9EC74B35DAE9";
paths = (
{
closed = 1;
nodes = (
"55 369 LINE",
"-34 369 LINE",
"-34 527 LINE",
"231 527 LINE",
"231 -35 LINE",
"230 -128 OFFCURVE",
"149 -220 OFFCURVE",
"53 -220 QCURVE",
"-38 -220 LINE",
"-38 -61 LINE",
"-14 -61 LINE",
"13 -61 OFFCURVE",
"41 -45 OFFCURVE",
"54 -23 OFFCURVE",
"55 2 OFFCURVE",
"55 11 QCURVE"
);
},
{
closed = 1;
nodes = (
"163 782 OFFCURVE",
"201 768 OFFCURVE",
"230 740 OFFCURVE",
"247 702 OFFCURVE",
"247 677 QCURVE",
"247 623 OFFCURVE",
"184 572 OFFCURVE",
"141 572 QCURVE",
"120 572 OFFCURVE",
"82 585 OFFCURVE",
"52 611 OFFCURVE",
"34 650 OFFCURVE",
"34 677 QCURVE",
"34 702 OFFCURVE",
"53 740 OFFCURVE",
"83 768 OFFCURVE",
"121 782 OFFCURVE",
"141 782 QCURVE"
);
}
);
width = 287;
}
);
},
{
color = (168, 255, 153, 255);
glyphname = s_alt;
layers = (
{
layerId = "DFDDFFA4-CA88-482C-9ABD-9EC74B35DAE9";
paths = (
{
closed = 1;
nodes = (
"209 352 OFFCURVE",
"266 336 OFFCURVE",
"306 330 QCURVE",
"340 325 OFFCURVE",
"418 312 OFFCURVE",
"484 280 OFFCURVE",
"526 219 OFFCURVE",
"526 168 QCURVE",
"526 118 OFFCURVE",
"481 53 OFFCURVE",
"450 32 QCURVE",
"430 19 OFFCURVE",
"387 3 OFFCURVE",
"344 -5 OFFCURVE",
"307 -8 OFFCURVE",
"294 -8 QCURVE",
"250 -8 OFFCURVE",
"161 11 OFFCURVE",
"85 57 OFFCURVE",
"30 131 OFFCURVE",
"23 187 QCURVE",
"203 187 LINE",
"204 174 OFFCURVE",
"223 156 OFFCURVE",
"248 144 OFFCURVE",
"279 139 OFFCURVE",
"291 139 QCURVE",
"329 139 OFFCURVE",
"357 157 OFFCURVE",
"357 170 QCURVE",
"357 180 OFFCURVE",
"342 191 OFFCURVE",
"318 199 OFFCURVE",
"285 204 OFFCURVE",
"267 207 QCURVE",
"233 213 OFFCURVE",
"155 227 OFFCURVE",
"88 261 OFFCURVE",
"42 320 OFFCURVE",
"42 372 QCURVE",
"43 421 OFFCURVE",
"90 486 OFFCURVE",
"160 524 OFFCURVE",
"241 538 OFFCURVE",
"277 538 QCURVE",
"319 538 OFFCURVE",
"401 517 OFFCURVE",
"467 472 OFFCURVE",
"511 400 OFFCURVE",
"516 348 QCURVE",
"345 348 LINE",
"344 371 OFFCURVE",
"300 394 OFFCURVE",
"270 395 QCURVE",
"235 396 OFFCURVE",
"209 379 OFFCURVE",
"209 368 QCURVE"
);
}
);
width = 550;
}
);
leftKerningGroup = _kern5;
rightKerningGroup = _kern6;
},
{
color = (168, 255, 153, 255);
glyphname = s;
layers = (
{
layerId = "DFDDFFA4-CA88-482C-9ABD-9EC74B35DAE9";
paths = (
{
closed = 1;
nodes = (
"229 394 OFFCURVE",
"203 380 OFFCURVE",
"203 368 QCURVE",
"203 361 OFFCURVE",
"215 346 OFFCURVE",
"234 341 QCURVE",
"267 333 OFFCURVE",
"326 321 OFFCURVE",
"356 315 QCURVE",
"380 310 OFFCURVE",
"430 293 OFFCURVE",
"471 260 OFFCURVE",
"496 208 OFFCURVE",
"496 170 QCURVE",
"494 119 OFFCURVE",
"450 51 OFFCURVE",
"387 9 OFFCURVE",
"309 -8 OFFCURVE",
"273 -8 QCURVE",
"230 -8 OFFCURVE",
"146 9 OFFCURVE",
"77 53 OFFCURVE",
"27 125 OFFCURVE",
"19 180 QCURVE",
"198 180 LINE",
"204 160 OFFCURVE",
"245 136 OFFCURVE",
"274 136 QCURVE",
"296 136 OFFCURVE",
"324 153 OFFCURVE",
"324 167 QCURVE",
"324 177 OFFCURVE",
"311 190 OFFCURVE",
"288 198 OFFCURVE",
"258 203 OFFCURVE",
"240 207 QCURVE",
"203 215 OFFCURVE",
"118 240 OFFCURVE",
"91 259 QCURVE",
"60 279 OFFCURVE",
"33 339 OFFCURVE",
"34 376 QCURVE",
"35 425 OFFCURVE",
"86 492 OFFCURVE",
"123 511 QCURVE",
"153 526 OFFCURVE",
"220 538 OFFCURVE",
"257 538 QCURVE",
"299 538 OFFCURVE",
"376 518 OFFCURVE",
"436 474 OFFCURVE",
"477 405 OFFCURVE",
"483 356 QCURVE",
"312 356 LINE",
"310 374 OFFCURVE",
"274 394 OFFCURVE",
"248 394 QCURVE"
);
}
);
width = 515;
}
);
leftKerningGroup = _kern5;
rightKerningGroup = _kern6;
unicode = 0073;
},
{
color = (168, 255, 153, 255);
glyphname = c_alt;
layers = (
{
layerId = "DFDDFFA4-CA88-482C-9ABD-9EC74B35DAE9";
paths = (
{
closed = 1;
nodes = (
"316 148 OFFCURVE",
"356 167 OFFCURVE",
"366 187 QCURVE",
"540 187 LINE",
"531 135 OFFCURVE",
"484 62 OFFCURVE",
"417 14 OFFCURVE",
"335 -8 OFFCURVE",
"292 -8 QCURVE",
"166 -8 OFFCURVE",
"23 134 OFFCURVE",
"23 265 QCURVE",
"23 325 OFFCURVE",
"62 425 OFFCURVE",
"133 498 OFFCURVE",
"234 537 OFFCURVE",
"298 537 QCURVE",
"345 537 OFFCURVE",
"430 511 OFFCURVE",
"495 458 OFFCURVE",
"537 377 OFFCURVE",
"543 323 QCURVE",
"367 323 LINE",
"359 350 OFFCURVE",
"319 376 OFFCURVE",
"289 376 QCURVE",
"263 376 OFFCURVE",
"227 355 OFFCURVE",
"206 321 OFFCURVE",
"197 283 OFFCURVE",
"197 265 QCURVE",
"197 240 OFFCURVE",
"208 199 OFFCURVE",
"230 167 OFFCURVE",
"267 148 OFFCURVE",
"291 148 QCURVE"
);
}
);
width = 567;
}
);
leftKerningGroup = _kern5;
rightKerningGroup = _kern6;
},
{
color = (168, 255, 153, 255);
glyphname = copyright;
layers = (
{
layerId = "DFDDFFA4-CA88-482C-9ABD-9EC74B35DAE9";
paths = (
{
closed = 1;
nodes = (
"364 -85 OFFCURVE",
"208 -30 OFFCURVE",
"99 75 OFFCURVE",
"39 226 OFFCURVE",
"39 322 QCURVE",
"39 416 OFFCURVE",
"100 567 OFFCURVE",
"211 673 OFFCURVE",
"366 730 OFFCURVE",
"460 730 QCURVE",
"551 730 OFFCURVE",
"703 671 OFFCURVE",
"814 563 OFFCURVE",
"876 413 OFFCURVE",
"876 322 QCURVE",
"876 225 OFFCURVE",
"815 73 OFFCURVE",
"704 -31 OFFCURVE",
"551 -85 OFFCURVE",
"460 -85 QCURVE"
);
},
{
closed = 1;
nodes = (
"532 48 OFFCURVE",
"637 89 OFFCURVE",
"708 162 OFFCURVE",
"743 263 OFFCURVE",
"743 322 QCURVE",
"743 378 OFFCURVE",
"708 478 OFFCURVE",
"638 552 OFFCURVE",
"533 595 OFFCURVE",
"463 595 QCURVE",
"394 595 OFFCURVE",
"288 552 OFFCURVE",
"215 478 OFFCURVE",
"177 378 OFFCURVE",
"177 321 QCURVE",
"177 263 OFFCURVE",
"213 163 OFFCURVE",
"285 90 OFFCURVE",
"392 48 OFFCURVE",
"463 48 QCURVE"
);
},
{
closed = 1;
nodes = (
"490 241 OFFCURVE",
"522 264 OFFCURVE",
"524 283 QCURVE",
"665 283 LINE",
"659 236 OFFCURVE",
"624 171 OFFCURVE",
"572 131 OFFCURVE",
"503 113 OFFCURVE",
"464 113 QCURVE",
"419 113 OFFCURVE",
"342 138 OFFCURVE",
"286 190 OFFCURVE",
"255 269 OFFCURVE",
"255 323 QCURVE",
"255 376 OFFCURVE",
"289 455 OFFCURVE",
"347 507 OFFCURVE",
"426 532 OFFCURVE",
"470 532 QCURVE",
"509 532 OFFCURVE",
"576 513 OFFCURVE",
"627 471 OFFCURVE",
"660 406 OFFCURVE",
"665 360 QCURVE",
"523 360 LINE",
"522 383 OFFCURVE",
"488 404 OFFCURVE",
"465 404 QCURVE",
"442 404 OFFCURVE",
"415 388 OFFCURVE",
"401 364 OFFCURVE",
"397 336 OFFCURVE",
"397 323 QCURVE",
"397 310 OFFCURVE",
"401 281 OFFCURVE",
"414 257 OFFCURVE",
"442 241 OFFCURVE",
"466 241 QCURVE"
);
}
);
width = 915;
}
);
unicode = 00A9;
},
{
color = (168, 255, 153, 255);
glyphname = ampersand;
layers = (
{
layerId = "DFDDFFA4-CA88-482C-9ABD-9EC74B35DAE9";
paths = (
{
closed = 1;
nodes = (
"524 0 LINE",
"475 48 LINE",
"435 16 OFFCURVE",
"331 -8 OFFCURVE",
"286 -8 QCURVE",
"242 -8 OFFCURVE",
"157 14 OFFCURVE",
"89 62 OFFCURVE",
"47 140 OFFCURVE",
"47 197 QCURVE",
"47 262 OFFCURVE",
"109 353 OFFCURVE",
"154 383 QCURVE",
"156 383 LINE",
"131 408 OFFCURVE",
"101 476 OFFCURVE",
"101 518 QCURVE",
"101 574 OFFCURVE",
"146 653 OFFCURVE",
"184 679 QCURVE",
"214 699 OFFCURVE",
"288 717 OFFCURVE",
"326 717 QCURVE",
"365 717 OFFCURVE",
"434 696 OFFCURVE",
"462 673 QCURVE",
"490 650 OFFCURVE",
"526 582 OFFCURVE",
"526 536 QCURVE",
"526 502 OFFCURVE",
"506 447 OFFCURVE",
"472 402 OFFCURVE",
"428 366 OFFCURVE",
"405 351 QCURVE",
"478 275 LINE",
"483 283 OFFCURVE",
"491 305 OFFCURVE",
"496 328 OFFCURVE",
"499 349 OFFCURVE",
"499 356 QCURVE",
"644 356 LINE",
"637 297 OFFCURVE",
"611 206 OFFCURVE",
"587 168 QCURVE",
"740 0 LINE"
);
},
{
closed = 1;
nodes = (
"261 283 LINE",
"242 270 OFFCURVE",
"221 245 OFFCURVE",
"210 224 OFFCURVE",
"209 206 OFFCURVE",
"209 200 QCURVE",
"211 169 OFFCURVE",
"263 141 OFFCURVE",
"298 141 QCURVE",
"315 141 OFFCURVE",
"361 151 OFFCURVE",
"375 163 QCURVE"
);
},
{
closed = 1;
nodes = (
"369 533 OFFCURVE",
"364 550 OFFCURVE",
"352 565 OFFCURVE",
"331 576 OFFCURVE",
"315 576 QCURVE",
"298 576 OFFCURVE",
"276 565 OFFCURVE",
"262 549 OFFCURVE",
"257 530 OFFCURVE",
"257 522 QCURVE",
"257 506 OFFCURVE",
"278 467 OFFCURVE",
"299 450 QCURVE",
"331 465 OFFCURVE",
"367 509 OFFCURVE",
"369 527 QCURVE"
);
}
);
width = 744;
}
);
unicode = 0026;
},
{
color = (168, 255, 153, 255);
glyphname = dollar;
layers = (
{
layerId = "DFDDFFA4-CA88-482C-9ABD-9EC74B35DAE9";
paths = (
{
closed = 1;
nodes = (
"437 483 LINE",
"434 514 OFFCURVE",
"378 552 OFFCURVE",
"333 553 QCURVE",
"294 554 OFFCURVE",
"240 531 OFFCURVE",
"240 502 QCURVE",
"240 482 OFFCURVE",
"286 457 OFFCURVE",
"322 448 QCURVE",
"342 443 OFFCURVE",
"394 430 OFFCURVE",
"417 425 QCURVE",
"464 414 OFFCURVE",
"542 388 OFFCURVE",
"597 344 OFFCURVE",
"628 275 OFFCURVE",
"628 221 QCURVE",
"628 170 OFFCURVE",
"595 93 OFFCURVE",
"538 39 OFFCURVE",
"460 6 OFFCURVE",
"415 0 QCURVE",
"415 -144 LINE",
"254 -144 LINE",
"254 4 LINE",
"211 13 OFFCURVE",
"137 50 OFFCURVE",
"80 107 OFFCURVE",
"43 187 OFFCURVE",
"39 239 QCURVE",
"220 239 LINE",
"231 196 OFFCURVE",
"306 159 OFFCURVE",
"357 159 QCURVE",
"395 159 OFFCURVE",
"447 184 OFFCURVE",
"447 210 QCURVE",
"447 222 OFFCURVE",
"433 238 OFFCURVE",
"411 250 OFFCURVE",
"381 258 OFFCURVE",
"366 262 QCURVE",
"332 270 OFFCURVE",
"281 282 OFFCURVE",
"241 293 OFFCURVE",
"210 303 OFFCURVE",
"196 309 QCURVE",
"164 322 OFFCURVE",
"114 355 OFFCURVE",
"79 401 OFFCURVE",
"61 464 OFFCURVE",
"61 506 QCURVE",
"61 552 OFFCURVE",
"94 624 OFFCURVE",
"149 675 OFFCURVE",
"220 705 OFFCURVE",
"258 709 QCURVE",
"258 856 LINE",
"419 856 LINE",
"419 707 LINE",
"459 702 OFFCURVE",
"531 666 OFFCURVE",
"583 608 OFFCURVE",
"613 529 OFFCURVE",
"613 483 QCURVE"
);
}
);
width = 668;
}
);
unicode = 0024;
},
{
color = (168, 255, 153, 255);
glyphname = parenleft;
layers = (
{
layerId = "DFDDFFA4-CA88-482C-9ABD-9EC74B35DAE9";
paths = (
{
closed = 1;
nodes = (
"45 442 OFFCURVE",
"128 693 OFFCURVE",
"213 803 QCURVE",
"434 803 LINE",
"382 751 OFFCURVE",
"304 631 OFFCURVE",
"251 504 OFFCURVE",
"224 373 OFFCURVE",
"224 310 QCURVE",
"224 247 OFFCURVE",
"251 117 OFFCURVE",
"304 -11 OFFCURVE",
"382 -130 OFFCURVE",
"434 -182 QCURVE",
"213 -182 LINE",
"128 -73 OFFCURVE",
"45 179 OFFCURVE",
"45 310 QCURVE"
);
}
);
width = 384;
}
);
unicode = 0028;
},
{
color = (168, 255, 153, 255);
glyphname = parenright;
layers = (
{
layerId = "DFDDFFA4-CA88-482C-9ABD-9EC74B35DAE9";
paths = (
{
closed = 1;
nodes = (
"339 179 OFFCURVE",
"256 -73 OFFCURVE",
"171 -182 QCURVE",
"-50 -182 LINE",
"2 -130 OFFCURVE",
"80 -11 OFFCURVE",
"133 117 OFFCURVE",
"160 247 OFFCURVE",
"160 310 QCURVE",
"160 373 OFFCURVE",
"133 504 OFFCURVE",
"80 631 OFFCURVE",
"2 751 OFFCURVE",
"-50 803 QCURVE",
"171 803 LINE",
"256 693 OFFCURVE",
"339 442 OFFCURVE",
"339 310 QCURVE"
);
}
);
width = 384;
}
);
unicode = 0029;
},
{
color = (168, 255, 153, 255);
glyphname = cent;
layers = (
{
layerId = "DFDDFFA4-CA88-482C-9ABD-9EC74B35DAE9";
paths = (
{
closed = 1;
nodes = (
"341 152 OFFCURVE",
"386 186 OFFCURVE",
"390 211 QCURVE",
"569 211 LINE",
"563 125 OFFCURVE",
"465 15 OFFCURVE",
"389 1 QCURVE",
"389 -140 LINE",
"227 -140 LINE",
"227 1 LINE",
"134 21 OFFCURVE",
"39 157 OFFCURVE",
"39 264 QCURVE",
"39 318 OFFCURVE",
"67 409 OFFCURVE",
"115 479 OFFCURVE",
"184 524 OFFCURVE",
"226 532 QCURVE",
"226 684 LINE",
"388 684 LINE",
"388 533 LINE",
"461 522 OFFCURVE",
"557 412 OFFCURVE",
"561 321 QCURVE",
"390 321 LINE",
"384 349 OFFCURVE",
"340 384 OFFCURVE",
"310 384 QCURVE",
"282 384 OFFCURVE",
"245 361 OFFCURVE",
"223 325 OFFCURVE",
"214 283 OFFCURVE",
"214 264 QCURVE",
"214 244 OFFCURVE",
"224 204 OFFCURVE",
"246 172 OFFCURVE",
"283 152 OFFCURVE",
"310 152 QCURVE"
);
}
);
width = 608;
}
);
unicode = 00A2;
},
{
color = (168, 255, 153, 255);
glyphname = section;
layers = (
{
layerId = "DFDDFFA4-CA88-482C-9ABD-9EC74B35DAE9";
paths = (
{
closed = 1;
nodes = (
"272 588 OFFCURVE",
"244 572 OFFCURVE",
"244 558 QCURVE",
"244 547 OFFCURVE",
"260 534 OFFCURVE",
"282 526 OFFCURVE",
"305 521 OFFCURVE",
"313 520 QCURVE",
"353 512 OFFCURVE",
"427 498 OFFCURVE",
"465 483 QCURVE",
"505 466 OFFCURVE",
"541 409 OFFCURVE",
"541 365 QCURVE",
"541 338 OFFCURVE",
"515 280 OFFCURVE",
"493 263 QCURVE",
"519 242 OFFCURVE",
"537 184 OFFCURVE",
"537 155 QCURVE",
"537 118 OFFCURVE",
"500 59 OFFCURVE",
"471 38 QCURVE",
"435 12 OFFCURVE",
"341 -9 OFFCURVE",
"295 -8 QCURVE",
"250 -8 OFFCURVE",
"161 10 OFFCURVE",
"89 52 OFFCURVE",
"42 123 OFFCURVE",
"39 177 QCURVE",
"224 177 LINE",
"229 154 OFFCURVE",
"270 125 OFFCURVE",
"299 125 QCURVE",
"324 124 OFFCURVE",
"350 141 OFFCURVE",
"350 154 QCURVE",
"350 179 OFFCURVE",
"320 184 QCURVE",
"296 188 OFFCURVE",
"240 198 OFFCURVE",
"184 213 OFFCURVE",
"133 232 OFFCURVE",
"115 244 QCURVE",
"81 267 OFFCURVE",
"51 324 OFFCURVE",
"52 363 QCURVE",
"53 390 OFFCURVE",
"85 444 OFFCURVE",
"114 457 QCURVE",
"86 474 OFFCURVE",
"59 533 OFFCURVE",
"59 563 QCURVE",
"61 610 OFFCURVE",
"107 670 OFFCURVE",
"177 704 OFFCURVE",
"260 717 OFFCURVE",
"299 717 QCURVE",
"342 717 OFFCURVE",
"422 699 OFFCURVE",
"485 658 OFFCURVE",
"526 593 OFFCURVE",
"530 546 QCURVE",
"346 546 LINE",
"342 568 OFFCURVE",
"312 587 OFFCURVE",
"292 587 QCURVE"
);
},
{
closed = 1;
nodes = (
"276 330 OFFCURVE",
"335 316 OFFCURVE",
"355 312 QCURVE",
"362 318 OFFCURVE",
"370 339 OFFCURVE",
"370 346 QCURVE",
"370 365 OFFCURVE",
"335 381 OFFCURVE",
"319 385 QCURVE",
"305 389 OFFCURVE",
"290 393 OFFCURVE",
"268 398 OFFCURVE",
"246 403 OFFCURVE",
"239 404 QCURVE",
"231 399 OFFCURVE",
"224 381 OFFCURVE",
"224 373 QCURVE",
"224 361 OFFCURVE",
"238 343 OFFCURVE",
"257 336 QCURVE"
);
}
);
width = 581;
}
);
unicode = 00A7;
},
{
color = (168, 255, 153, 255);
glyphname = uni04C1;
layers = (
{
layerId = "DFDDFFA4-CA88-482C-9ABD-9EC74B35DAE9";
paths = (
{
closed = 1;
nodes = (
"432 751 OFFCURVE",
"320 837 OFFCURVE",
"316 927 QCURVE",
"458 927 LINE",
"459 898 OFFCURVE",
"495 868 OFFCURVE",
"519 868 QCURVE",
"545 868 OFFCURVE",
"579 898 OFFCURVE",
"580 927 QCURVE",
"722 927 LINE",
"718 838 OFFCURVE",
"607 751 OFFCURVE",
"520 751 QCURVE"
);
},
{
closed = 1;
nodes = (
"608 270 LINE",
"608 0 LINE",
"427 0 LINE",
"427 270 LINE",
"343 271 LINE",
"206 0 LINE",
"-4 0 LINE",
"197 370 LINE",
"-6 708 LINE",
"200 708 LINE",
"346 434 LINE",
"427 434 LINE",
"427 708 LINE",
"608 708 LINE",
"608 434 LINE",
"689 434 LINE",
"837 708 LINE",
"1042 708 LINE",
"838 370 LINE",
"1041 0 LINE",
"829 0 LINE",
"694 270 LINE"
);
}
);
width = 1036;
}
);
unicode = 04C1;
},
{
color = (168, 255, 153, 255);
glyphname = uni04C2;
layers = (
{
layerId = "DFDDFFA4-CA88-482C-9ABD-9EC74B35DAE9";
paths = (
{
closed = 1;
nodes = (
"383 558 OFFCURVE",
"309 578 OFFCURVE",
"255 620 OFFCURVE",
"223 688 OFFCURVE",
"221 735 QCURVE",
"365 735 LINE",
"366 706 OFFCURVE",
"402 676 OFFCURVE",
"426 676 QCURVE",
"452 676 OFFCURVE",
"487 706 OFFCURVE",
"488 735 QCURVE",
"631 735 LINE",
"629 688 OFFCURVE",
"598 620 OFFCURVE",
"544 578 OFFCURVE",
"471 558 OFFCURVE",
"427 558 QCURVE"
);
},
{
closed = 1;
nodes = (
"516 182 LINE",
"516 0 LINE",
"339 0 LINE",
"339 182 LINE",
"263 182 LINE",
"188 0 LINE",
"-6 0 LINE",
"123 276 LINE",
"-2 527 LINE",
"181 527 LINE",
"265 341 LINE",
"339 341 LINE",
"339 527 LINE",
"516 527 LINE",
"516 341 LINE",
"592 341 LINE",
"672 527 LINE",
"857 527 LINE",
"730 276 LINE",
"862 0 LINE",
"666 0 LINE",
"593 182 LINE"
);
}
);
width = 855;
}
);
unicode = 04C2;
},
{
color = (168, 255, 153, 255);
glyphname = w_alt;
layers = (
{
layerId = "DFDDFFA4-CA88-482C-9ABD-9EC74B35DAE9";
paths = (
{
closed = 1;
nodes = (
"160 0 LINE",
"-6 527 LINE",
"186 527 LINE",
"269 212 LINE",
"359 427 LINE",
"526 427 LINE",
"614 212 LINE",
"696 527 LINE",
"882 527 LINE",
"716 0 LINE",
"531 0 LINE",
"439 244 LINE",
"345 0 LINE"
);
}
);
width = 876;
}
);
leftKerningGroup = _kern20;
rightKerningGroup = _kern20;
},
{
color = (168, 255, 153, 255);
glyphname = W_alt;
layers = (
{
layerId = "DFDDFFA4-CA88-482C-9ABD-9EC74B35DAE9";
paths = (
{
closed = 1;
nodes = (
"579 562 LINE",
"679 213 LINE",
"774 708 LINE",
"964 708 LINE",
"806 0 LINE",
"570 0 LINE",
"488 262 LINE",
"408 0 LINE",
"161 0 LINE",
"0 708 LINE",
"201 708 LINE",
"301 213 LINE",
"403 562 LINE"
);
}
);
width = 964;
}
);
leftKerningGroup = _kern19;
rightKerningGroup = _kern19;
},
{
color = (168, 255, 153, 255);
glyphname = zero;
layers = (
{
layerId = "DFDDFFA4-CA88-482C-9ABD-9EC74B35DAE9";
paths = (
{
closed = 1;
nodes = (
"370 159 OFFCURVE",
"415 202 OFFCURVE",
"437 263 OFFCURVE",
"442 330 OFFCURVE",
"442 354 QCURVE",
"442 377 OFFCURVE",
"438 443 OFFCURVE",
"417 503 OFFCURVE",
"373 546 OFFCURVE",
"333 546 QCURVE",
"292 546 OFFCURVE",
"245 504 OFFCURVE",
"221 444 OFFCURVE",
"215 378 OFFCURVE",
"215 354 QCURVE",
"215 331 OFFCURVE",
"219 264 OFFCURVE",
"241 202 OFFCURVE",
"287 159 OFFCURVE",
"329 159 QCURVE"
);
},
{
closed = 1;
nodes = (
"411 717 OFFCURVE",
"521 659 OFFCURVE",
"590 560 OFFCURVE",
"621 428 OFFCURVE",
"621 354 QCURVE",
"621 279 OFFCURVE",
"590 148 OFFCURVE",
"520 49 OFFCURVE",
"409 -8 OFFCURVE",
"329 -8 QCURVE",
"248 -8 OFFCURVE",
"136 49 OFFCURVE",
"67 148 OFFCURVE",
"37 279 OFFCURVE",
"37 354 QCURVE",
"37 429 OFFCURVE",
"69 561 OFFCURVE",
"139 660 OFFCURVE",
"252 717 OFFCURVE",
"332 717 QCURVE"
);
}
);
width = 657;
}
);
unicode = 0030;
},
{
color = (168, 255, 153, 255);
glyphname = one;
layers = (
{
layerId = "DFDDFFA4-CA88-482C-9ABD-9EC74B35DAE9";
paths = (
{
closed = 1;
nodes = (
"321 0 LINE",
"140 0 LINE",
"140 487 LINE",
"5 487 LINE",
"5 627 LINE",
"68 627 OFFCURVE",
"158 661 OFFCURVE",
"189 708 QCURVE",
"321 708 LINE"
);
}
);
width = 408;
}
);
unicode = 0031;
},
{
color = (168, 255, 153, 255);
glyphname = two;
layers = (
{
layerId = "DFDDFFA4-CA88-482C-9ABD-9EC74B35DAE9";
paths = (
{
closed = 1;
nodes = (
"208 304 LINE",
"272 356 OFFCURVE",
"318 399 OFFCURVE",
"349 448 OFFCURVE",
"349 473 QCURVE",
"350 503 OFFCURVE",
"311 546 OFFCURVE",
"268 546 QCURVE",
"222 545 OFFCURVE",
"181 503 OFFCURVE",
"178 474 QCURVE",
"10 474 LINE",
"12 535 OFFCURVE",
"56 627 OFFCURVE",
"132 688 OFFCURVE",
"227 717 OFFCURVE",
"281 717 QCURVE",
"329 717 OFFCURVE",
"418 689 OFFCURVE",
"486 631 OFFCURVE",
"527 547 OFFCURVE",
"527 492 QCURVE",
"527 439 OFFCURVE",
"485 344 OFFCURVE",
"414 267 OFFCURVE",
"329 198 OFFCURVE",
"287 167 QCURVE",
"520 167 LINE",
"520 0 LINE",
"15 0 LINE",
"15 148 LINE"
);
}
);
width = 557;
}
);
unicode = 0032;
},
{
color = (168, 255, 153, 255);
glyphname = three;
layers = (
{
layerId = "DFDDFFA4-CA88-482C-9ABD-9EC74B35DAE9";
paths = (
{
closed = 1;
nodes = (
"32 486 LINE",
"38 546 OFFCURVE",
"87 633 OFFCURVE",
"161 690 OFFCURVE",
"256 717 OFFCURVE",
"308 717 QCURVE",
"345 717 OFFCURVE",
"413 706 OFFCURVE",
"444 692 QCURVE",
"494 670 OFFCURVE",
"559 585 OFFCURVE",
"559 519 QCURVE",
"559 477 OFFCURVE",
"517 404 OFFCURVE",
"487 385 QCURVE",
"511 375 OFFCURVE",
"549 339 OFFCURVE",
"574 295 OFFCURVE",
"585 241 OFFCURVE",
"585 214 QCURVE",
"582 142 OFFCURVE",
"513 47 OFFCURVE",
"460 22 QCURVE",
"424 5 OFFCURVE",
"346 -7 OFFCURVE",
"304 -7 QCURVE",
"246 -6 OFFCURVE",
"148 23 OFFCURVE",
"71 84 OFFCURVE",
"19 177 OFFCURVE",
"13 240 QCURVE",
"189 240 LINE",
"195 202 OFFCURVE",
"260 162 OFFCURVE",
"308 162 QCURVE",
"354 162 OFFCURVE",
"403 194 OFFCURVE",
"403 228 QCURVE",
"403 251 OFFCURVE",
"368 284 OFFCURVE",
"332 284 QCURVE",
"240 284 LINE",
"240 435 LINE",
"305 435 LINE",
"345 435 OFFCURVE",
"378 471 OFFCURVE",
"378 493 QCURVE",
"378 518 OFFCURVE",
"341 550 OFFCURVE",
"301 550 QCURVE",
"259 550 OFFCURVE",
"209 512 OFFCURVE",
"206 486 QCURVE"
);
}
);
width = 622;
}
);
unicode = 0033;
},
{
color = (168, 255, 153, 255);
glyphname = four;
layers = (
{
layerId = "DFDDFFA4-CA88-482C-9ABD-9EC74B35DAE9";
paths = (
{
closed = 1;
nodes = (
"544 287 LINE",
"622 287 LINE",
"622 123 LINE",
"544 123 LINE",
"544 0 LINE",
"365 0 LINE",
"365 123 LINE",
"22 123 LINE",
"22 261 LINE",
"339 708 LINE",
"544 708 LINE"
);
},
{
closed = 1;
nodes = (
"225 287 LINE",
"365 287 LINE",
"365 498 LINE"
);
}
);
width = 639;
}
);
unicode = 0034;
},
{
color = (168, 255, 153, 255);
glyphname = seven;
layers = (
{
layerId = "DFDDFFA4-CA88-482C-9ABD-9EC74B35DAE9";
paths = (
{
closed = 1;
nodes = (
"46 0 LINE",
"306 540 LINE",
"-8 540 LINE",
"-8 708 LINE",
"513 708 LINE",
"513 579 LINE",
"248 0 LINE"
);
}
);
width = 516;
}
);
unicode = 0037;
},
{
color = (168, 255, 153, 255);
glyphname = eight;
layers = (
{
layerId = "DFDDFFA4-CA88-482C-9ABD-9EC74B35DAE9";
paths = (
{
closed = 1;
nodes = (
"263 -8 OFFCURVE",
"163 16 OFFCURVE",
"85 70 OFFCURVE",
"37 155 OFFCURVE",
"37 217 QCURVE",
"37 274 OFFCURVE",
"82 357 OFFCURVE",
"125 382 QCURVE",
"97 405 OFFCURVE",
"62 472 OFFCURVE",
"62 514 QCURVE",
"62 571 OFFCURVE",
"106 649 OFFCURVE",
"178 696 OFFCURVE",
"269 717 OFFCURVE",
"316 717 QCURVE",
"362 717 OFFCURVE",
"451 696 OFFCURVE",
"522 648 OFFCURVE",
"565 570 OFFCURVE",
"565 514 QCURVE",
"565 473 OFFCURVE",
"525 402 OFFCURVE",
"499 382 QCURVE",
"541 359 OFFCURVE",
"589 277 OFFCURVE",
"590 214 QCURVE",
"590 154 OFFCURVE",
"541 70 OFFCURVE",
"463 16 OFFCURVE",
"364 -8 OFFCURVE",
"315 -8 QCURVE"
);
},
{
closed = 1;
nodes = (
"273 562 OFFCURVE",
"237 524 OFFCURVE",
"237 498 QCURVE",
"237 473 OFFCURVE",
"274 432 OFFCURVE",
"314 432 QCURVE",
"355 432 OFFCURVE",
"389 474 OFFCURVE",
"389 500 QCURVE",
"389 524 OFFCURVE",
"350 562 OFFCURVE",
"314 562 QCURVE"
);
},
{
closed = 1;
nodes = (
"409 261 OFFCURVE",
"359 302 OFFCURVE",
"313 302 QCURVE",
"266 302 OFFCURVE",
"216 260 OFFCURVE",
"216 228 QCURVE",
"216 194 OFFCURVE",
"269 154 OFFCURVE",
"314 154 QCURVE",
"356 154 OFFCURVE",
"409 194 OFFCURVE",
"409 228 QCURVE"
);
}
);
width = 627;
}
);
unicode = 0038;
},
{
color = (168, 255, 153, 255);
glyphname = nine;
layers = (
{
layerId = "DFDDFFA4-CA88-482C-9ABD-9EC74B35DAE9";
paths = (
{
closed = 1;
nodes = (
"204 209 LINE",
"211 185 OFFCURVE",
"264 158 OFFCURVE",
"300 158 QCURVE",
"335 158 OFFCURVE",
"383 187 OFFCURVE",
"411 230 OFFCURVE",
"423 283 OFFCURVE",
"422 307 QCURVE",
"404 286 OFFCURVE",
"361 260 OFFCURVE",
"318 246 OFFCURVE",
"278 241 OFFCURVE",
"264 241 QCURVE",
"213 241 OFFCURVE",
"128 272 OFFCURVE",
"68 330 OFFCURVE",
"34 414 OFFCURVE",
"34 468 QCURVE",
"34 531 OFFCURVE",
"80 625 OFFCURVE",
"155 686 OFFCURVE",
"253 717 OFFCURVE",
"305 717 QCURVE",
"383 717 OFFCURVE",
"491 656 OFFCURVE",
"557 557 OFFCURVE",
"586 428 OFFCURVE",
"586 361 QCURVE",
"586 286 OFFCURVE",
"555 152 OFFCURVE",
"485 51 OFFCURVE",
"374 -8 OFFCURVE",
"294 -8 QCURVE",
"244 -8 OFFCURVE",
"155 18 OFFCURVE",
"86 71 OFFCURVE",
"41 153 OFFCURVE",
"35 209 QCURVE"
);
},
{
closed = 1;
nodes = (
"212 456 OFFCURVE",
"223 426 OFFCURVE",
"245 402 OFFCURVE",
"279 388 OFFCURVE",
"302 388 QCURVE",
"328 388 OFFCURVE",
"363 406 OFFCURVE",
"383 431 OFFCURVE",
"391 461 OFFCURVE",
"391 473 QCURVE",
"390 493 OFFCURVE",
"373 526 OFFCURVE",
"360 536 QCURVE",
"347 546 OFFCURVE",
"317 553 OFFCURVE",
"303 553 QCURVE",
"280 553 OFFCURVE",
"245 539 OFFCURVE",
"223 515 OFFCURVE",
"212 486 OFFCURVE",
"212 471 QCURVE"
);
}
);
width = 622;
}
);
unicode = 0039;
},
{
color = (168, 255, 153, 255);
glyphname = uni0430;
layers = (
{
layerId = "DFDDFFA4-CA88-482C-9ABD-9EC74B35DAE9";
paths = (
{
closed = 1;
nodes = (
"266 213 LINE",
"237 213 OFFCURVE",
"204 193 OFFCURVE",
"204 170 QCURVE",
"204 150 OFFCURVE",
"235 127 OFFCURVE",
"261 127 QCURVE",
"282 127 OFFCURVE",
"319 141 OFFCURVE",
"346 166 OFFCURVE",
"363 196 OFFCURVE",
"364 213 QCURVE"
);
},
{
closed = 1;
nodes = (
"367 59 LINE",
"345 35 OFFCURVE",
"300 8 OFFCURVE",
"253 -6 OFFCURVE",
"213 -8 OFFCURVE",
"203 -8 QCURVE",
"170 -8 OFFCURVE",
"107 12 OFFCURVE",
"59 54 OFFCURVE",
"29 117 OFFCURVE",
"29 162 QCURVE",
"29 208 OFFCURVE",
"76 276 OFFCURVE",
"109 293 QCURVE",
"133 305 OFFCURVE",
"188 318 OFFCURVE",
"245 322 OFFCURVE",
"306 322 OFFCURVE",
"338 322 QCURVE",
"362 322 LINE",
"361 350 OFFCURVE",
"322 389 OFFCURVE",
"287 389 QCURVE",
"261 389 OFFCURVE",
"218 367 OFFCURVE",
"215 350 QCURVE",
"39 350 LINE",
"45 399 OFFCURVE",
"91 470 OFFCURVE",
"159 515 OFFCURVE",
"241 537 OFFCURVE",
"285 537 QCURVE",
"338 537 OFFCURVE",
"417 515 OFFCURVE",
"446 493 QCURVE",
"530 432 OFFCURVE",
"530 283 QCURVE",
"530 0 LINE",
"367 0 LINE"
);
}
);
width = 576;
}
);
leftKerningGroup = _kern27;
rightKerningGroup = _kern27;
unicode = 0430;
},
{
color = (168, 255, 153, 255);
glyphname = uni0435;
layers = (
{
layerId = "DFDDFFA4-CA88-482C-9ABD-9EC74B35DAE9";
paths = (
{
closed = 1;
nodes = (
"329 139 OFFCURVE",
"371 164 OFFCURVE",
"376 178 QCURVE",
"549 178 LINE",
"538 128 OFFCURVE",
"490 59 OFFCURVE",
"422 13 OFFCURVE",
"340 -8 OFFCURVE",
"296 -8 QCURVE",
"235 -8 OFFCURVE",
"136 29 OFFCURVE",
"66 100 OFFCURVE",
"27 201 OFFCURVE",
"27 266 QCURVE",
"27 328 OFFCURVE",
"69 431 OFFCURVE",
"107 468 QCURVE",
"142 501 OFFCURVE",
"235 538 OFFCURVE",
"295 538 QCURVE",
"357 538 OFFCURVE",
"444 504 OFFCURVE",
"480 469 QCURVE",
"514 434 OFFCURVE",
"549 336 OFFCURVE",
"549 280 QCURVE",
"549 261 OFFCURVE",
"546 230 OFFCURVE",
"542 213 QCURVE",
"202 213 LINE",
"205 184 OFFCURVE",
"250 141 OFFCURVE",
"298 140 QCURVE"
);
},
{
closed = 1;
nodes = (
"272 398 OFFCURVE",
"237 385 OFFCURVE",
"216 364 OFFCURVE",
"205 339 OFFCURVE",
"205 328 QCURVE",
"383 328 LINE",
"383 339 OFFCURVE",
"374 364 OFFCURVE",
"352 385 OFFCURVE",
"319 398 OFFCURVE",
"295 398 QCURVE"
);
}
);
width = 576;
}
);
leftKerningGroup = _kern9;
rightKerningGroup = _kern10;
unicode = 0435;
},
{
color = (168, 255, 153, 255);
glyphname = uni043E;
layers = (
{
layerId = "DFDDFFA4-CA88-482C-9ABD-9EC74B35DAE9";
paths = (
{
closed = 1;
nodes = (
"272 373 OFFCURVE",
"233 351 OFFCURVE",
"210 320 OFFCURVE",
"200 282 OFFCURVE",
"200 265 QCURVE",
"200 244 OFFCURVE",
"210 205 OFFCURVE",
"233 175 OFFCURVE",
"272 156 OFFCURVE",
"301 156 QCURVE",
"329 156 OFFCURVE",
"369 175 OFFCURVE",
"391 206 OFFCURVE",
"401 245 OFFCURVE",
"401 265 QCURVE",
"401 281 OFFCURVE",
"391 319 OFFCURVE",
"369 351 OFFCURVE",
"329 373 OFFCURVE",
"301 373 QCURVE"
);
},
{
closed = 1;
nodes = (
"243 -8 OFFCURVE",
"144 27 OFFCURVE",
"70 97 OFFCURVE",
"27 199 OFFCURVE",
"27 266 QCURVE",
"27 330 OFFCURVE",
"71 432 OFFCURVE",
"145 502 OFFCURVE",
"244 538 OFFCURVE",
"301 538 QCURVE",
"359 538 OFFCURVE",
"458 501 OFFCURVE",
"531 431 OFFCURVE",
"574 329 OFFCURVE",
"574 266 QCURVE",
"574 199 OFFCURVE",
"533 96 OFFCURVE",
"460 27 OFFCURVE",
"361 -8 OFFCURVE",
"301 -8 QCURVE"
);
}
);
width = 601;
}
);
leftKerningGroup = _kern9;
rightKerningGroup = _kern10;
unicode = 043E;
},
{
color = (168, 255, 153, 255);
glyphname = uni0441;
layers = (
{
layerId = "DFDDFFA4-CA88-482C-9ABD-9EC74B35DAE9";
paths = (
{
closed = 1;
nodes = (
"324 153 OFFCURVE",
"365 184 OFFCURVE",
"370 211 QCURVE",
"546 211 LINE",
"544 157 OFFCURVE",
"503 75 OFFCURVE",
"435 20 OFFCURVE",
"345 -8 OFFCURVE",
"296 -8 QCURVE",
"234 -8 OFFCURVE",
"134 28 OFFCURVE",
"65 98 OFFCURVE",
"27 199 OFFCURVE",
"27 264 QCURVE",
"27 328 OFFCURVE",
"66 431 OFFCURVE",
"137 501 OFFCURVE",
"237 538 OFFCURVE",
"300 538 QCURVE",
"350 538 OFFCURVE",
"437 509 OFFCURVE",
"501 452 OFFCURVE",
"538 370 OFFCURVE",
"540 317 QCURVE",
"370 317 LINE",
"364 346 OFFCURVE",
"323 376 OFFCURVE",
"294 376 QCURVE",
"267 376 OFFCURVE",
"230 354 OFFCURVE",
"209 319 OFFCURVE",
"202 279 OFFCURVE",
"202 260 QCURVE",
"202 240 OFFCURVE",
"212 202 OFFCURVE",
"233 172 OFFCURVE",
"268 153 OFFCURVE",
"292 153 QCURVE"
);
}
);
width = 568;
}
);
leftKerningGroup = _kern9;
rightKerningGroup = _kern10;
unicode = 0441;
},
{
color = (168, 255, 153, 255);
glyphname = uni0218;
layers = (
{
layerId = "DFDDFFA4-CA88-482C-9ABD-9EC74B35DAE9";
paths = (
{
closed = 1;
nodes = (
"427 481 LINE",
"422 514 OFFCURVE",
"362 551 OFFCURVE",
"313 551 QCURVE",
"279 551 OFFCURVE",
"229 527 OFFCURVE",
"229 503 QCURVE",
"229 479 OFFCURVE",
"285 455 OFFCURVE",
"339 441 QCURVE",
"404 425 LINE",
"447 414 OFFCURVE",
"524 389 OFFCURVE",
"582 345 OFFCURVE",
"616 276 OFFCURVE",
"618 221 QCURVE",
"618 158 OFFCURVE",
"569 72 OFFCURVE",
"489 18 OFFCURVE",
"388 -6 OFFCURVE",
"336 -6 QCURVE",
"286 -6 OFFCURVE",
"185 15 OFFCURVE",
"140 44 QCURVE",
"96 73 OFFCURVE",
"35 169 OFFCURVE",
"28 239 QCURVE",
"210 239 LINE",
"220 196 OFFCURVE",
"295 160 OFFCURVE",
"345 160 QCURVE",
"360 160 OFFCURVE",
"392 164 OFFCURVE",
"419 175 OFFCURVE",
"436 195 OFFCURVE",
"436 212 QCURVE",
"436 234 OFFCURVE",
"399 256 OFFCURVE",
"367 263 QCURVE",
"309 275 LINE",
"252 287 OFFCURVE",
"152 321 OFFCURVE",
"121 344 QCURVE",
"88 369 OFFCURVE",
"50 445 OFFCURVE",
"50 504 QCURVE",
"50 506 LINE",
"54 566 OFFCURVE",
"106 646 OFFCURVE",
"145 671 QCURVE",
"189 699 OFFCURVE",
"286 717 OFFCURVE",
"340 717 QCURVE",
"385 716 OFFCURVE",
"470 691 OFFCURVE",
"503 668 QCURVE",
"545 639 OFFCURVE",
"595 546 OFFCURVE",
"602 481 QCURVE"
);
},
{
closed = 1;
nodes = (
"246 -240 LINE",
"256 -236 OFFCURVE",
"280 -221 OFFCURVE",
"304 -202 OFFCURVE",
"324 -183 OFFCURVE",
"327 -175 QCURVE",
"301 -174 OFFCURVE",
"259 -139 OFFCURVE",
"258 -106 QCURVE",
"258 -70 OFFCURVE",
"306 -31 OFFCURVE",
"339 -32 QCURVE",
"381 -32 OFFCURVE",
"427 -88 OFFCURVE",
"426 -128 QCURVE",
"425 -160 OFFCURVE",
"401 -215 OFFCURVE",
"362 -258 OFFCURVE",
"311 -288 OFFCURVE",
"285 -297 QCURVE"
);
}
);
width = 647;
}
);
unicode = 0218;
},
{
color = (168, 255, 153, 255);
glyphname = uni0219;
layers = (
{
layerId = "DFDDFFA4-CA88-482C-9ABD-9EC74B35DAE9";
paths = (
{
closed = 1;
nodes = (
"233 394 OFFCURVE",
"207 380 OFFCURVE",
"207 368 QCURVE",
"207 361 OFFCURVE",
"219 346 OFFCURVE",
"238 341 QCURVE",
"271 333 OFFCURVE",
"330 321 OFFCURVE",
"360 315 QCURVE",
"384 310 OFFCURVE",
"434 293 OFFCURVE",
"475 260 OFFCURVE",
"500 208 OFFCURVE",
"500 170 QCURVE",
"498 119 OFFCURVE",
"455 52 OFFCURVE",
"390 11 OFFCURVE",
"312 -5 OFFCURVE",
"276 -5 QCURVE",
"234 -5 OFFCURVE",
"152 12 OFFCURVE",
"82 55 OFFCURVE",
"31 126 OFFCURVE",
"23 180 QCURVE",
"202 180 LINE",
"208 160 OFFCURVE",
"249 136 OFFCURVE",
"278 136 QCURVE",
"300 136 OFFCURVE",
"328 153 OFFCURVE",
"328 167 QCURVE",
"328 177 OFFCURVE",
"315 190 OFFCURVE",
"292 198 OFFCURVE",
"262 203 OFFCURVE",
"244 207 QCURVE",
"207 215 OFFCURVE",
"122 240 OFFCURVE",
"95 259 QCURVE",
"64 279 OFFCURVE",
"37 339 OFFCURVE",
"38 376 QCURVE",
"39 425 OFFCURVE",
"90 492 OFFCURVE",
"127 511 QCURVE",
"157 526 OFFCURVE",
"224 538 OFFCURVE",
"261 538 QCURVE",
"303 538 OFFCURVE",
"380 518 OFFCURVE",
"440 474 OFFCURVE",
"481 405 OFFCURVE",
"487 356 QCURVE",
"316 356 LINE",
"314 374 OFFCURVE",
"278 394 OFFCURVE",
"253 394 QCURVE"
);
},
{
closed = 1;
nodes = (
"181 -240 LINE",
"191 -236 OFFCURVE",
"215 -221 OFFCURVE",
"239 -202 OFFCURVE",
"260 -183 OFFCURVE",
"263 -175 QCURVE",
"236 -174 OFFCURVE",
"194 -138 OFFCURVE",
"193 -106 QCURVE",
"194 -68 OFFCURVE",
"243 -29 OFFCURVE",
"275 -30 QCURVE",
"317 -30 OFFCURVE",
"364 -87 OFFCURVE",
"363 -127 QCURVE",
"362 -160 OFFCURVE",
"337 -215 OFFCURVE",
"298 -260 OFFCURVE",
"246 -289 OFFCURVE",
"220 -298 QCURVE"
);
}
);
width = 524;
}
);
leftKerningGroup = _kern5;
rightKerningGroup = _kern6;
unicode = 0219;
},
{
color = (168, 255, 153, 255);
glyphname = uni021A;
layers = (
{
layerId = "DFDDFFA4-CA88-482C-9ABD-9EC74B35DAE9";
paths = (
{
closed = 1;
nodes = (
"5 540 LINE",
"5 708 LINE",
"612 708 LINE",
"612 540 LINE",
"398 540 LINE",
"398 0 LINE",
"218 0 LINE",
"218 540 LINE"
);
},
{
closed = 1;
nodes = (
"215 -238 LINE",
"225 -234 OFFCURVE",
"249 -219 OFFCURVE",
"273 -200 OFFCURVE",
"293 -181 OFFCURVE",
"296 -173 QCURVE",
"270 -172 OFFCURVE",
"228 -137 OFFCURVE",
"227 -105 QCURVE",
"228 -67 OFFCURVE",
"277 -29 OFFCURVE",
"308 -30 QCURVE",
"350 -30 OFFCURVE",
"396 -86 OFFCURVE",
"395 -126 QCURVE",
"394 -158 OFFCURVE",
"370 -213 OFFCURVE",
"331 -257 OFFCURVE",
"280 -286 OFFCURVE",
"254 -295 QCURVE"
);
}
);
width = 617;
}
);
leftKerningGroup = _kern28;
rightKerningGroup = _kern28;
unicode = 021A;
},
{
color = (168, 255, 153, 255);
glyphname = uni021B;
layers = (
{
layerId = "DFDDFFA4-CA88-482C-9ABD-9EC74B35DAE9";
paths = (
{
closed = 1;
nodes = (
"259 369 LINE",
"259 207 LINE",
"259 198 OFFCURVE",
"261 180 OFFCURVE",
"270 167 OFFCURVE",
"287 159 OFFCURVE",
"303 159 QCURVE",
"350 159 LINE",
"350 0 LINE",
"282 0 LINE",
"236 0 OFFCURVE",
"163 15 OFFCURVE",
"111 56 OFFCURVE",
"82 125 OFFCURVE",
"82 180 QCURVE",
"82 369 LINE",
"9 369 LINE",
"9 527 LINE",
"82 527 LINE",
"82 658 LINE",
"259 658 LINE",
"259 527 LINE",
"356 527 LINE",
"356 369 LINE"
);
},
{
closed = 1;
nodes = (
"120 -241 LINE",
"130 -237 OFFCURVE",
"155 -222 OFFCURVE",
"179 -203 OFFCURVE",
"199 -184 OFFCURVE",
"202 -176 QCURVE",
"176 -175 OFFCURVE",
"133 -139 OFFCURVE",
"132 -107 QCURVE",
"133 -69 OFFCURVE",
"183 -30 OFFCURVE",
"214 -31 QCURVE",
"257 -31 OFFCURVE",
"303 -88 OFFCURVE",
"302 -128 QCURVE",
"301 -161 OFFCURVE",
"277 -216 OFFCURVE",
"237 -261 OFFCURVE",
"186 -290 OFFCURVE",
"160 -299 QCURVE"
);
}
);
width = 375;
}
);
leftKerningGroup = _kern21;
rightKerningGroup = _kern21;
unicode = 021B;
},
{
color = (246, 153, 255, 255);
glyphname = icircumflex;
layers = (
{
layerId = "DFDDFFA4-CA88-482C-9ABD-9EC74B35DAE9";
paths = (
{
closed = 1;
nodes = (
"276 0 LINE",
"100 0 LINE",
"100 527 LINE",
"276 527 LINE"
);
},
{
closed = 1;
nodes = (
"245 769 LINE",
"414 577 LINE",
"248 577 LINE",
"187 661 LINE",
"129 577 LINE",
"-37 577 LINE",
"129 769 LINE"
);
}
);
width = 377;
}
);
unicode = 00EE;
},
{
color = (168, 255, 153, 255);
glyphname = question;
layers = (
{
layerId = "DFDDFFA4-CA88-482C-9ABD-9EC74B35DAE9";
paths = (
{
closed = 1;
nodes = (
"176 244 LINE",
"173 260 OFFCURVE",
"173 276 QCURVE",
"173 303 OFFCURVE",
"190 347 OFFCURVE",
"215 382 OFFCURVE",
"247 411 OFFCURVE",
"262 423 QCURVE",
"288 444 OFFCURVE",
"327 482 OFFCURVE",
"327 503 QCURVE",
"327 525 OFFCURVE",
"296 551 OFFCURVE",
"263 551 QCURVE",
"221 551 OFFCURVE",
"188 511 OFFCURVE",
"188 485 QCURVE",
"17 485 LINE",
"17 510 LINE",
"17 567 OFFCURVE",
"61 646 OFFCURVE",
"132 695 OFFCURVE",
"222 717 OFFCURVE",
"269 717 QCURVE",
"313 717 OFFCURVE",
"398 695 OFFCURVE",
"465 648 OFFCURVE",
"506 573 OFFCURVE",
"506 520 QCURVE",
"504 491 OFFCURVE",
"487 444 OFFCURVE",
"460 404 OFFCURVE",
"423 367 OFFCURVE",
"402 348 QCURVE",
"379 326 OFFCURVE",
"340 279 OFFCURVE",
"340 244 QCURVE"
);
},
{
closed = 1;
nodes = (
"281 201 OFFCURVE",
"318 189 OFFCURVE",
"347 164 OFFCURVE",
"365 125 OFFCURVE",
"365 98 QCURVE",
"365 70 OFFCURVE",
"347 30 OFFCURVE",
"318 4 OFFCURVE",
"281 -9 OFFCURVE",
"261 -9 QCURVE",
"240 -9 OFFCURVE",
"202 4 OFFCURVE",
"172 30 OFFCURVE",
"154 70 OFFCURVE",
"154 98 QCURVE",
"154 125 OFFCURVE",
"172 164 OFFCURVE",
"202 189 OFFCURVE",
"240 201 OFFCURVE",
"261 201 QCURVE"
);
}
);
width = 541;
}
);
unicode = 003F;
},
{
color = (168, 255, 153, 255);
glyphname = uni2116;
layers = (
{
layerId = "DFDDFFA4-CA88-482C-9ABD-9EC74B35DAE9";
paths = (
{
closed = 1;
nodes = (
"712 323 LINE",
"1051 323 LINE",
"1051 182 LINE",
"712 182 LINE"
);
},
{
closed = 1;
nodes = (
"206 708 LINE",
"449 340 LINE",
"449 708 LINE",
"629 708 LINE",
"629 0 LINE",
"466 0 LINE",
"217 366 LINE",
"217 0 LINE",
"39 0 LINE",
"39 708 LINE"
);
},
{
closed = 1;
nodes = (
"922 712 OFFCURVE",
"992 686 OFFCURVE",
"1042 639 OFFCURVE",
"1069 572 OFFCURVE",
"1069 531 QCURVE",
"1069 488 OFFCURVE",
"1038 421 OFFCURVE",
"987 374 OFFCURVE",
"919 350 OFFCURVE",
"881 350 QCURVE",
"843 350 OFFCURVE",
"775 374 OFFCURVE",
"724 421 OFFCURVE",
"694 488 OFFCURVE",
"694 531 QCURVE",
"694 573 OFFCURVE",
"723 640 OFFCURVE",
"774 687 OFFCURVE",
"842 712 OFFCURVE",
"881 712 QCURVE"
);
},
{
closed = 1;
nodes = (
"865 582 OFFCURVE",
"845 570 OFFCURVE",
"833 553 OFFCURVE",
"829 536 OFFCURVE",
"829 531 QCURVE",
"829 525 OFFCURVE",
"833 508 OFFCURVE",
"845 492 OFFCURVE",
"865 481 OFFCURVE",
"881 481 QCURVE",
"897 481 OFFCURVE",
"917 492 OFFCURVE",
"929 508 OFFCURVE",
"933 525 OFFCURVE",
"933 531 QCURVE",
"933 536 OFFCURVE",
"929 553 OFFCURVE",
"917 570 OFFCURVE",
"897 582 OFFCURVE",
"881 582 QCURVE"
);
}
);
width = 1108;
}
);
unicode = 2116;
},
{
color = (168, 255, 153, 255);
glyphname = uni0401;
layers = (
{
layerId = "DFDDFFA4-CA88-482C-9ABD-9EC74B35DAE9";
paths = (
{
closed = 1;
nodes = (
"601 708 LINE",
"601 540 LINE",
"248 540 LINE",
"248 432 LINE",
"539 432 LINE",
"539 272 LINE",
"248 272 LINE",
"248 167 LINE",
"601 167 LINE",
"601 0 LINE",
"67 0 LINE",
"67 708 LINE"
);
},
{
closed = 1;
nodes = (
"249 952 OFFCURVE",
"306 903 OFFCURVE",
"306 859 QCURVE",
"306 813 OFFCURVE",
"250 766 OFFCURVE",
"212 766 QCURVE",
"175 766 OFFCURVE",
"118 813 OFFCURVE",
"118 859 QCURVE",
"118 881 OFFCURVE",
"134 915 OFFCURVE",
"160 939 OFFCURVE",
"194 952 OFFCURVE",
"212 952 QCURVE"
);
},
{
closed = 1;
nodes = (
"504 952 OFFCURVE",
"561 903 OFFCURVE",
"561 859 QCURVE",
"561 813 OFFCURVE",
"505 766 OFFCURVE",
"467 766 QCURVE",
"430 766 OFFCURVE",
"373 813 OFFCURVE",
"373 859 QCURVE",
"373 881 OFFCURVE",
"389 915 OFFCURVE",
"415 939 OFFCURVE",
"449 952 OFFCURVE",
"467 952 QCURVE"
);
}
);
width = 629;
}
);
unicode = 0401;
},
{
color = (168, 255, 153, 255);
glyphname = asciitilde;
layers = (
{
layerId = "DFDDFFA4-CA88-482C-9ABD-9EC74B35DAE9";
paths = (
{
closed = 1;
nodes = (
"457 406 OFFCURVE",
"475 450 OFFCURVE",
"470 483 QCURVE",
"623 483 LINE",
"625 468 OFFCURVE",
"626 450 OFFCURVE",
"626 444 QCURVE",
"626 338 OFFCURVE",
"543 225 OFFCURVE",
"461 225 QCURVE",
"436 225 OFFCURVE",
"394 238 OFFCURVE",
"357 259 OFFCURVE",
"327 282 OFFCURVE",
"314 293 QCURVE",
"303 302 OFFCURVE",
"277 320 OFFCURVE",
"263 320 QCURVE",
"243 320 OFFCURVE",
"223 285 OFFCURVE",
"223 264 QCURVE",
"223 255 OFFCURVE",
"223 239 OFFCURVE",
"225 232 QCURVE",
"70 232 LINE",
"68 247 OFFCURVE",
"67 263 OFFCURVE",
"67 271 QCURVE",
"67 378 OFFCURVE",
"164 492 OFFCURVE",
"250 492 QCURVE",
"274 492 OFFCURVE",
"311 481 OFFCURVE",
"341 465 OFFCURVE",
"366 445 OFFCURVE",
"378 435 QCURVE",
"389 427 OFFCURVE",
"418 406 OFFCURVE",
"434 406 QCURVE"
);
}
);
width = 693;
}
);
unicode = 007E;
},
{
color = (168, 255, 153, 255);
glyphname = trademark;
layers = (
{
layerId = "DFDDFFA4-CA88-482C-9ABD-9EC74B35DAE9";
paths = (
{
closed = 1;
nodes = (
"341 578 LINE",
"255 578 LINE",
"255 371 LINE",
"125 371 LINE",
"125 578 LINE",
"39 578 LINE",
"39 708 LINE",
"341 708 LINE"
);
},
{
closed = 1;
nodes = (
"491 524 LINE",
"491 371 LINE",
"382 371 LINE",
"382 708 LINE",
"500 708 LINE",
"573 594 LINE",
"644 708 LINE",
"761 708 LINE",
"761 371 LINE",
"654 371 LINE",
"654 524 LINE",
"580 421 LINE",
"566 421 LINE"
);
}
);
width = 800;
}
);
unicode = 2122;
},
{
color = (168, 255, 153, 255);
glyphname = registered;
layers = (
{
layerId = "DFDDFFA4-CA88-482C-9ABD-9EC74B35DAE9";
paths = (
{
closed = 1;
nodes = (
"296 736 OFFCURVE",
"375 708 OFFCURVE",
"432 655 OFFCURVE",
"464 578 OFFCURVE",
"464 530 QCURVE",
"464 482 OFFCURVE",
"431 407 OFFCURVE",
"374 356 OFFCURVE",
"295 329 OFFCURVE",
"249 329 QCURVE",
"202 329 OFFCURVE",
"123 355 OFFCURVE",
"65 406 OFFCURVE",
"32 481 OFFCURVE",
"32 530 QCURVE",
"32 579 OFFCURVE",
"65 655 OFFCURVE",
"123 708 OFFCURVE",
"202 736 OFFCURVE",
"249 736 QCURVE"
);
},
{
closed = 1;
nodes = (
"187 665 OFFCURVE",
"107 597 OFFCURVE",
"107 531 QCURVE",
"107 466 OFFCURVE",
"188 400 OFFCURVE",
"248 400 QCURVE",
"308 400 OFFCURVE",
"388 465 OFFCURVE",
"388 531 QCURVE",
"388 597 OFFCURVE",
"311 665 OFFCURVE",
"248 665 QCURVE"
);
},
{
closed = 1;
nodes = (
"350 437 LINE",
"279 437 LINE",
"245 498 LINE",
"235 498 LINE",
"235 437 LINE",
"171 437 LINE",
"171 639 LINE",
"257 639 LINE",
"292 639 OFFCURVE",
"340 605 OFFCURVE",
"341 570 QCURVE",
"342 550 OFFCURVE",
"323 516 OFFCURVE",
"305 508 QCURVE"
);
},
{
closed = 1;
nodes = (
"235 586 LINE",
"235 549 LINE",
"259 549 LINE",
"267 549 OFFCURVE",
"280 559 OFFCURVE",
"280 568 QCURVE",
"280 579 OFFCURVE",
"267 586 OFFCURVE",
"256 586 QCURVE"
);
}
);
width = 496;
}
);
unicode = 00AE;
},
{
color = (168, 255, 153, 255);
glyphname = degree;
layers = (
{
layerId = "DFDDFFA4-CA88-482C-9ABD-9EC74B35DAE9";
paths = (
{
closed = 1;
nodes = (
"252 754 OFFCURVE",
"316 731 OFFCURVE",
"365 687 OFFCURVE",
"393 623 OFFCURVE",
"393 582 QCURVE",
"393 541 OFFCURVE",
"365 479 OFFCURVE",
"316 437 OFFCURVE",
"252 416 OFFCURVE",
"216 416 QCURVE",
"180 416 OFFCURVE",
"116 437 OFFCURVE",
"68 479 OFFCURVE",
"39 541 OFFCURVE",
"39 582 QCURVE",
"39 622 OFFCURVE",
"68 686 OFFCURVE",
"117 730 OFFCURVE",
"181 754 OFFCURVE",
"216 754 QCURVE"
);
},
{
closed = 1;
nodes = (
"196 633 OFFCURVE",
"166 605 OFFCURVE",
"166 583 QCURVE",
"166 561 OFFCURVE",
"196 534 OFFCURVE",
"218 534 QCURVE",
"241 534 OFFCURVE",
"271 561 OFFCURVE",
"271 583 QCURVE",
"271 605 OFFCURVE",
"241 633 OFFCURVE",
"218 633 QCURVE"
);
}
);
width = 432;
}
);
unicode = 00B0;
},
{
color = (168, 255, 153, 255);
glyphname = bullet;
layers = (
{
layerId = "DFDDFFA4-CA88-482C-9ABD-9EC74B35DAE9";
paths = (
{
closed = 1;
nodes = (
"221 512 OFFCURVE",
"276 490 OFFCURVE",
"315 450 OFFCURVE",
"338 396 OFFCURVE",
"338 363 QCURVE",
"338 330 OFFCURVE",
"315 275 OFFCURVE",
"276 236 OFFCURVE",
"221 215 OFFCURVE",
"190 215 QCURVE",
"157 215 OFFCURVE",
"102 236 OFFCURVE",
"62 275 OFFCURVE",
"39 330 OFFCURVE",
"39 363 QCURVE",
"39 397 OFFCURVE",
"62 452 OFFCURVE",
"102 491 OFFCURVE",
"157 512 OFFCURVE",
"190 512 QCURVE"
);
}
);
width = 377;
}
);
unicode = 2022;
},
{
color = (168, 255, 153, 255);
glyphname = uni27F5;
layers = (
{
layerId = "DFDDFFA4-CA88-482C-9ABD-9EC74B35DAE9";
paths = (
{
closed = 1;
nodes = (
"525 488 LINE",
"358 355 LINE",
"1365 355 LINE",
"1365 197 LINE",
"358 197 LINE",
"525 64 LINE",
"426 -59 LINE",
"39 277 LINE",
"425 611 LINE"
);
}
);
width = 1404;
}
);
unicode = 27F5;
},
{
color = (168, 255, 153, 255);
glyphname = uni27F6;
layers = (
{
layerId = "DFDDFFA4-CA88-482C-9ABD-9EC74B35DAE9";
paths = (
{
closed = 1;
nodes = (
"979 611 LINE",
"1365 277 LINE",
"978 -59 LINE",
"879 64 LINE",
"1046 197 LINE",
"39 197 LINE",
"39 355 LINE",
"1046 355 LINE",
"879 488 LINE"
);
}
);
width = 1404;
}
);
unicode = 27F6;
},
{
color = (168, 255, 153, 255);
glyphname = arrowup;
layers = (
{
layerId = "DFDDFFA4-CA88-482C-9ABD-9EC74B35DAE9";
paths = (
{
closed = 1;
nodes = (
"39 321 LINE",
"386 680 LINE",
"734 321 LINE",
"611 212 LINE",
"464 384 LINE",
"464 0 LINE",
"310 0 LINE",
"310 384 LINE",
"163 212 LINE"
);
}
);
width = 773;
}
);
unicode = 2191;
},
{
color = (168, 255, 153, 255);
glyphname = arrowdown;
layers = (
{
layerId = "DFDDFFA4-CA88-482C-9ABD-9EC74B35DAE9";
paths = (
{
closed = 1;
nodes = (
"163 463 LINE",
"310 291 LINE",
"310 680 LINE",
"464 680 LINE",
"464 291 LINE",
"611 463 LINE",
"734 354 LINE",
"386 -5 LINE",
"39 354 LINE"
);
}
);
width = 773;
}
);
unicode = 2193;
},
{
color = (168, 255, 153, 255);
glyphname = uni21BA;
layers = (
{
layerId = "DFDDFFA4-CA88-482C-9ABD-9EC74B35DAE9";
paths = (
{
closed = 1;
nodes = (
"904 590 LINE",
"746 604 LINE",
"774 582 OFFCURVE",
"820 520 OFFCURVE",
"853 448 OFFCURVE",
"871 370 OFFCURVE",
"871 334 QCURVE",
"871 250 OFFCURVE",
"815 109 OFFCURVE",
"709 7 OFFCURVE",
"558 -50 OFFCURVE",
"462 -50 QCURVE",
"363 -50 OFFCURVE",
"207 8 OFFCURVE",
"99 114 OFFCURVE",
"41 262 OFFCURVE",
"40 352 QCURVE",
"40 458 OFFCURVE",
"123 637 OFFCURVE",
"211 696 QCURVE",
"317 575 LINE",
"255 532 OFFCURVE",
"202 409 OFFCURVE",
"202 349 QCURVE",
"202 304 OFFCURVE",
"233 218 OFFCURVE",
"296 149 OFFCURVE",
"391 107 OFFCURVE",
"456 107 QCURVE",
"524 107 OFFCURVE",
"620 150 OFFCURVE",
"680 218 OFFCURVE",
"708 303 OFFCURVE",
"708 345 QCURVE",
"708 357 OFFCURVE",
"705 392 OFFCURVE",
"690 437 OFFCURVE",
"661 490 OFFCURVE",
"636 519 QCURVE",
"636 351 LINE",
"497 351 LINE",
"513 751 LINE",
"913 727 LINE"
);
}
);
width = 952;
}
);
unicode = 21BA;
},
{
color = (168, 255, 153, 255);
glyphname = uni21BB;
layers = (
{
layerId = "DFDDFFA4-CA88-482C-9ABD-9EC74B35DAE9";
paths = (
{
closed = 1;
nodes = (
"39 727 LINE",
"439 751 LINE",
"455 351 LINE",
"316 351 LINE",
"316 519 LINE",
"290 490 OFFCURVE",
"262 438 OFFCURVE",
"247 394 OFFCURVE",
"244 358 OFFCURVE",
"244 345 QCURVE",
"244 303 OFFCURVE",
"272 218 OFFCURVE",
"332 151 OFFCURVE",
"428 108 OFFCURVE",
"496 108 QCURVE",
"561 108 OFFCURVE",
"656 150 OFFCURVE",
"719 218 OFFCURVE",
"750 304 OFFCURVE",
"750 349 QCURVE",
"750 409 OFFCURVE",
"697 532 OFFCURVE",
"635 575 QCURVE",
"741 696 LINE",
"829 637 OFFCURVE",
"912 458 OFFCURVE",
"912 352 QCURVE",
"911 262 OFFCURVE",
"853 114 OFFCURVE",
"745 8 OFFCURVE",
"589 -51 OFFCURVE",
"490 -51 QCURVE",
"394 -51 OFFCURVE",
"243 7 OFFCURVE",
"137 109 OFFCURVE",
"81 250 OFFCURVE",
"81 334 QCURVE",
"81 370 OFFCURVE",
"99 448 OFFCURVE",
"132 520 OFFCURVE",
"178 582 OFFCURVE",
"206 604 QCURVE",
"48 590 LINE"
);
}
);
width = 952;
}
);
unicode = 21BB;
},
{
color = (168, 255, 153, 255);
glyphname = uni21B7;
layers = (
{
layerId = "DFDDFFA4-CA88-482C-9ABD-9EC74B35DAE9";
paths = (
{
closed = 1;
nodes = (
"946 258 LINE",
"999 109 LINE",
"617 -32 LINE",
"449 335 LINE",
"600 400 LINE",
"660 235 LINE",
"671 260 OFFCURVE",
"686 325 OFFCURVE",
"686 348 QCURVE",
"686 393 OFFCURVE",
"656 475 OFFCURVE",
"594 537 OFFCURVE",
"502 574 OFFCURVE",
"441 574 QCURVE",
"387 574 OFFCURVE",
"299 541 OFFCURVE",
"236 478 OFFCURVE",
"200 388 OFFCURVE",
"199 331 QCURVE",
"39 331 LINE",
"41 430 OFFCURVE",
"105 581 OFFCURVE",
"216 682 OFFCURVE",
"366 733 OFFCURVE",
"453 733 QCURVE",
"537 733 OFFCURVE",
"678 683 OFFCURVE",
"782 590 OFFCURVE",
"841 457 OFFCURVE",
"844 375 QCURVE",
"846 326 OFFCURVE",
"822 233 OFFCURVE",
"798 197 QCURVE"
);
}
);
width = 1038;
}
);
unicode = 21B7;
},
{
color = (168, 255, 153, 255);
glyphname = uni21B6;
layers = (
{
layerId = "DFDDFFA4-CA88-482C-9ABD-9EC74B35DAE9";
paths = (
{
closed = 1;
nodes = (
"240 197 LINE",
"216 233 OFFCURVE",
"191 328 OFFCURVE",
"193 377 QCURVE",
"196 459 OFFCURVE",
"256 591 OFFCURVE",
"359 684 OFFCURVE",
"501 733 OFFCURVE",
"585 733 QCURVE",
"672 733 OFFCURVE",
"822 682 OFFCURVE",
"933 581 OFFCURVE",
"997 430 OFFCURVE",
"999 331 QCURVE",
"839 331 LINE",
"837 388 OFFCURVE",
"802 478 OFFCURVE",
"739 541 OFFCURVE",
"651 574 OFFCURVE",
"597 574 QCURVE",
"535 574 OFFCURVE",
"444 537 OFFCURVE",
"382 475 OFFCURVE",
"352 393 OFFCURVE",
"352 348 QCURVE",
"352 325 OFFCURVE",
"367 269 OFFCURVE",
"378 244 QCURVE",
"437 398 LINE",
"588 333 LINE",
"421 -32 LINE",
"39 109 LINE",
"92 258 LINE"
);
}
);
width = 1038;
}
);
unicode = 21B6;
},
{
color = (168, 255, 153, 255);
glyphname = five;
layers = (
{
layerId = "DFDDFFA4-CA88-482C-9ABD-9EC74B35DAE9";
paths = (
{
closed = 1;
nodes = (
"61 291 LINE",
"61 708 LINE",
"555 708 LINE",
"555 543 LINE",
"233 543 LINE",
"233 452 LINE",
"266 472 OFFCURVE",
"343 483 OFFCURVE",
"368 482 QCURVE",
"428 479 OFFCURVE",
"509 440 OFFCURVE",
"535 405 QCURVE",
"580 346 OFFCURVE",
"580 249 QCURVE",
"580 187 OFFCURVE",
"538 91 OFFCURVE",
"465 26 OFFCURVE",
"367 -7 OFFCURVE",
"311 -7 QCURVE",
"256 -7 OFFCURVE",
"163 21 OFFCURVE",
"93 80 OFFCURVE",
"49 171 OFFCURVE",
"42 233 QCURVE",
"218 233 LINE",
"220 222 OFFCURVE",
"232 197 OFFCURVE",
"255 176 OFFCURVE",
"287 162 OFFCURVE",
"308 162 QCURVE",
"333 162 OFFCURVE",
"368 175 OFFCURVE",
"388 198 OFFCURVE",
"397 227 OFFCURVE",
"397 243 QCURVE",
"397 274 OFFCURVE",
"352 325 OFFCURVE",
"308 325 QCURVE",
"277 325 OFFCURVE",
"228 307 OFFCURVE",
"204 291 QCURVE"
);
}
);
width = 614;
}
);
unicode = 0035;
},
{
color = (168, 255, 153, 255);
glyphname = six;
layers = (
{
layerId = "DFDDFFA4-CA88-482C-9ABD-9EC74B35DAE9";
paths = (
{
closed = 1;
nodes = (
"423 498 LINE",
"415 522 OFFCURVE",
"368 553 OFFCURVE",
"330 553 QCURVE",
"297 553 OFFCURVE",
"247 524 OFFCURVE",
"215 477 OFFCURVE",
"199 420 OFFCURVE",
"199 392 QCURVE",
"218 417 OFFCURVE",
"265 447 OFFCURVE",
"310 463 OFFCURVE",
"351 469 OFFCURVE",
"365 469 QCURVE",
"416 469 OFFCURVE",
"493 442 OFFCURVE",
"522 415 QCURVE",
"554 386 OFFCURVE",
"588 304 OFFCURVE",
"590 242 QCURVE",
"590 182 OFFCURVE",
"548 87 OFFCURVE",
"513 56 QCURVE",
"477 24 OFFCURVE",
"383 -8 OFFCURVE",
"330 -8 QCURVE",
"257 -8 OFFCURVE",
"146 46 OFFCURVE",
"111 91 QCURVE",
"73 142 OFFCURVE",
"39 274 OFFCURVE",
"38 346 QCURVE",
"38 419 OFFCURVE",
"74 554 OFFCURVE",
"149 656 OFFCURVE",
"263 717 OFFCURVE",
"341 717 QCURVE",
"390 717 OFFCURVE",
"476 691 OFFCURVE",
"541 637 OFFCURVE",
"583 555 OFFCURVE",
"588 498 QCURVE"
);
},
{
closed = 1;
nodes = (
"410 253 OFFCURVE",
"400 282 OFFCURVE",
"379 305 OFFCURVE",
"345 318 OFFCURVE",
"322 318 QCURVE",
"303 318 OFFCURVE",
"272 304 OFFCURVE",
"250 282 OFFCURVE",
"238 255 OFFCURVE",
"238 240 QCURVE",
"238 225 OFFCURVE",
"249 195 OFFCURVE",
"271 171 OFFCURVE",
"304 157 OFFCURVE",
"327 157 QCURVE",
"371 158 OFFCURVE",
"410 208 OFFCURVE",
"410 238 QCURVE"
);
}
);
width = 624;
}
);
unicode = 0036;
},
{
color = (168, 255, 153, 255);
glyphname = dieresis;
layers = (
{
layerId = "DFDDFFA4-CA88-482C-9ABD-9EC74B35DAE9";
paths = (
{
closed = 1;
nodes = (
"228 733 OFFCURVE",
"285 684 OFFCURVE",
"285 640 QCURVE",
"285 594 OFFCURVE",
"229 547 OFFCURVE",
"191 547 QCURVE",
"154 547 OFFCURVE",
"97 594 OFFCURVE",
"97 640 QCURVE",
"97 662 OFFCURVE",
"113 696 OFFCURVE",
"139 720 OFFCURVE",
"173 733 OFFCURVE",
"191 733 QCURVE"
);
},
{
closed = 1;
nodes = (
"483 733 OFFCURVE",
"540 684 OFFCURVE",
"540 640 QCURVE",
"540 594 OFFCURVE",
"484 547 OFFCURVE",
"446 547 QCURVE",
"409 547 OFFCURVE",
"352 594 OFFCURVE",
"352 640 QCURVE",
"352 662 OFFCURVE",
"368 696 OFFCURVE",
"394 720 OFFCURVE",
"428 733 OFFCURVE",
"446 733 QCURVE"
);
}
);
width = 637;
}
);
unicode = 00A8;
},
{
color = (246, 153, 255, 255);
glyphname = adieresis;
layers = (
{
layerId = "DFDDFFA4-CA88-482C-9ABD-9EC74B35DAE9";
paths = (
{
closed = 1;
nodes = (
"205 766 OFFCURVE",
"263 717 OFFCURVE",
"263 672 QCURVE",
"263 626 OFFCURVE",
"206 579 OFFCURVE",
"168 579 QCURVE",
"130 579 OFFCURVE",
"73 626 OFFCURVE",
"73 672 QCURVE",
"73 695 OFFCURVE",
"89 729 OFFCURVE",
"115 753 OFFCURVE",
"149 766 OFFCURVE",
"168 766 QCURVE"
);
},
{
closed = 1;
nodes = (
"459 766 OFFCURVE",
"516 717 OFFCURVE",
"516 672 QCURVE",
"516 626 OFFCURVE",
"460 579 OFFCURVE",
"421 579 QCURVE",
"384 579 OFFCURVE",
"326 626 OFFCURVE",
"326 672 QCURVE",
"326 695 OFFCURVE",
"342 729 OFFCURVE",
"369 753 OFFCURVE",
"403 766 OFFCURVE",
"421 766 QCURVE"
);
},
{
closed = 1;
nodes = (
"265 213 LINE",
"240 213 OFFCURVE",
"204 193 OFFCURVE",
"204 170 QCURVE",
"204 149 OFFCURVE",
"237 127 OFFCURVE",
"261 127 QCURVE",
"282 127 OFFCURVE",
"319 141 OFFCURVE",
"346 166 OFFCURVE",
"363 196 OFFCURVE",
"364 213 QCURVE"
);
},
{
closed = 1;
nodes = (
"367 69 LINE",
"347 39 OFFCURVE",
"300 8 OFFCURVE",
"253 -6 OFFCURVE",
"213 -8 OFFCURVE",
"203 -8 QCURVE",
"170 -8 OFFCURVE",
"107 12 OFFCURVE",
"59 54 OFFCURVE",
"29 117 OFFCURVE",
"29 162 QCURVE",
"29 208 OFFCURVE",
"76 276 OFFCURVE",
"109 293 QCURVE",
"133 305 OFFCURVE",
"188 318 OFFCURVE",
"245 322 OFFCURVE",
"306 322 OFFCURVE",
"338 322 QCURVE",
"362 322 LINE",
"361 350 OFFCURVE",
"322 389 OFFCURVE",
"287 389 QCURVE",
"261 389 OFFCURVE",
"218 367 OFFCURVE",
"215 350 QCURVE",
"39 350 LINE",
"45 399 OFFCURVE",
"91 470 OFFCURVE",
"159 515 OFFCURVE",
"241 537 OFFCURVE",
"285 537 QCURVE",
"338 537 OFFCURVE",
"417 515 OFFCURVE",
"446 493 QCURVE",
"530 432 OFFCURVE",
"530 283 QCURVE",
"530 0 LINE",
"367 0 LINE"
);
}
);
width = 576;
}
);
leftKerningGroup = _kern27;
rightKerningGroup = _kern27;
unicode = 00E4;
},
{
color = (246, 153, 255, 255);
glyphname = Adieresis;
layers = (
{
layerId = "DFDDFFA4-CA88-482C-9ABD-9EC74B35DAE9";
paths = (
{
closed = 1;
nodes = (
"189 0 LINE",
"-5 0 LINE",
"279 708 LINE",
"463 708 LINE",
"744 0 LINE",
"549 0 LINE",
"514 100 LINE",
"225 100 LINE"
);
},
{
closed = 1;
nodes = (
"457 263 LINE",
"371 506 LINE",
"282 263 LINE"
);
},
{
closed = 1;
nodes = (
"285 935 OFFCURVE",
"342 886 OFFCURVE",
"342 842 QCURVE",
"342 796 OFFCURVE",
"286 749 OFFCURVE",
"248 749 QCURVE",
"211 749 OFFCURVE",
"154 796 OFFCURVE",
"154 842 QCURVE",
"154 864 OFFCURVE",
"170 898 OFFCURVE",
"196 922 OFFCURVE",
"230 935 OFFCURVE",
"248 935 QCURVE"
);
},
{
closed = 1;
nodes = (
"540 935 OFFCURVE",
"597 886 OFFCURVE",
"597 842 QCURVE",
"597 796 OFFCURVE",
"541 749 OFFCURVE",
"503 749 QCURVE",
"466 749 OFFCURVE",
"409 796 OFFCURVE",
"409 842 QCURVE",
"409 864 OFFCURVE",
"425 898 OFFCURVE",
"451 922 OFFCURVE",
"485 935 OFFCURVE",
"503 935 QCURVE"
);
}
);
width = 739;
}
);
leftKerningGroup = _kern30;
rightKerningGroup = _kern30;
unicode = 00C4;
},
{
color = (246, 153, 255, 255);
glyphname = cedilla;
layers = (
{
layerId = "DFDDFFA4-CA88-482C-9ABD-9EC74B35DAE9";
paths = (
{
closed = 1;
nodes = (
"360 52 LINE",
"339 -28 LINE",
"359 -29 OFFCURVE",
"395 -40 OFFCURVE",
"424 -65 OFFCURVE",
"441 -106 OFFCURVE",
"441 -136 QCURVE",
"439 -173 OFFCURVE",
"410 -226 OFFCURVE",
"363 -261 OFFCURVE",
"305 -278 OFFCURVE",
"275 -278 QCURVE",
"246 -278 OFFCURVE",
"211 -273 OFFCURVE",
"197 -269 QCURVE",
"197 -167 LINE",
"254 -179 OFFCURVE",
"310 -162 OFFCURVE",
"310 -138 QCURVE",
"310 -123 OFFCURVE",
"284 -107 OFFCURVE",
"243 -105 OFFCURVE",
"206 -112 OFFCURVE",
"199 -115 QCURVE",
"248 52 LINE"
);
}
);
width = 622;
}
);
unicode = 00B8;
},
{
color = (246, 153, 255, 255);
glyphname = ecircumflex;
layers = (
{
layerId = "DFDDFFA4-CA88-482C-9ABD-9EC74B35DAE9";
paths = (
{
closed = 1;
nodes = (
"325 139 OFFCURVE",
"367 164 OFFCURVE",
"372 178 QCURVE",
"545 178 LINE",
"534 128 OFFCURVE",
"486 59 OFFCURVE",
"418 13 OFFCURVE",
"336 -8 OFFCURVE",
"292 -8 QCURVE",
"231 -8 OFFCURVE",
"132 29 OFFCURVE",
"62 100 OFFCURVE",
"23 201 OFFCURVE",
"23 266 QCURVE",
"23 328 OFFCURVE",
"65 431 OFFCURVE",
"103 468 QCURVE",
"138 501 OFFCURVE",
"231 538 OFFCURVE",
"291 538 QCURVE",
"352 538 OFFCURVE",
"440 504 OFFCURVE",
"476 469 QCURVE",
"510 434 OFFCURVE",
"545 336 OFFCURVE",
"545 280 QCURVE",
"545 261 OFFCURVE",
"542 230 OFFCURVE",
"538 213 QCURVE",
"198 213 LINE",
"201 184 OFFCURVE",
"246 141 OFFCURVE",
"294 140 QCURVE"
);
},
{
closed = 1;
nodes = (
"268 398 OFFCURVE",
"233 385 OFFCURVE",
"212 364 OFFCURVE",
"201 339 OFFCURVE",
"201 328 QCURVE",
"379 328 LINE",
"379 339 OFFCURVE",
"370 364 OFFCURVE",
"348 385 OFFCURVE",
"315 398 OFFCURVE",
"291 398 QCURVE"
);
},
{
closed = 1;
nodes = (
"348 769 LINE",
"517 577 LINE",
"351 577 LINE",
"290 661 LINE",
"232 577 LINE",
"66 577 LINE",
"232 769 LINE"
);
}
);
width = 570;
}
);
leftKerningGroup = _kern5;
rightKerningGroup = _kern6;
unicode = 00EA;
},
{
color = (168, 255, 153, 255);
glyphname = dotlessi;
layers = (
{
layerId = "DFDDFFA4-CA88-482C-9ABD-9EC74B35DAE9";
paths = (
{
closed = 1;
nodes = (
"224 0 LINE",
"47 0 LINE",
"47 527 LINE",
"224 527 LINE"
);
}
);
width = 272;
}
);
unicode = 0131;
},
{
color = (246, 153, 255, 255);
glyphname = udieresis;
layers = (
{
layerId = "DFDDFFA4-CA88-482C-9ABD-9EC74B35DAE9";
paths = (
{
closed = 1;
nodes = (
"203 766 OFFCURVE",
"261 717 OFFCURVE",
"261 672 QCURVE",
"261 626 OFFCURVE",
"204 579 OFFCURVE",
"166 579 QCURVE",
"128 579 OFFCURVE",
"71 626 OFFCURVE",
"71 672 QCURVE",
"71 695 OFFCURVE",
"87 729 OFFCURVE",
"113 753 OFFCURVE",
"147 766 OFFCURVE",
"166 766 QCURVE"
);
},
{
closed = 1;
nodes = (
"461 766 OFFCURVE",
"518 717 OFFCURVE",
"518 672 QCURVE",
"518 626 OFFCURVE",
"462 579 OFFCURVE",
"423 579 QCURVE",
"386 579 OFFCURVE",
"328 626 OFFCURVE",
"328 672 QCURVE",
"328 695 OFFCURVE",
"344 729 OFFCURVE",
"371 753 OFFCURVE",
"405 766 OFFCURVE",
"423 766 QCURVE"
);
},
{
closed = 1;
nodes = (
"323 153 OFFCURVE",
"352 171 OFFCURVE",
"366 199 OFFCURVE",
"369 233 OFFCURVE",
"369 248 QCURVE",
"369 527 LINE",
"545 527 LINE",
"545 234 LINE",
"545 170 OFFCURVE",
"510 78 OFFCURVE",
"446 19 OFFCURVE",
"354 -8 OFFCURVE",
"295 -8 QCURVE",
"237 -8 OFFCURVE",
"145 19 OFFCURVE",
"82 78 OFFCURVE",
"45 170 OFFCURVE",
"45 234 QCURVE",
"45 527 LINE",
"222 527 LINE",
"222 248 LINE",
"222 229 OFFCURVE",
"230 194 OFFCURVE",
"247 168 OFFCURVE",
"276 153 OFFCURVE",
"297 153 QCURVE"
);
}
);
width = 591;
}
);
unicode = 00FC;
},
{
color = (246, 153, 255, 255);
glyphname = Udieresis;
layers = (
{
layerId = "DFDDFFA4-CA88-482C-9ABD-9EC74B35DAE9";
paths = (
{
closed = 1;
nodes = (
"282 933 OFFCURVE",
"339 884 OFFCURVE",
"339 840 QCURVE",
"339 794 OFFCURVE",
"283 747 OFFCURVE",
"245 747 QCURVE",
"208 747 OFFCURVE",
"151 794 OFFCURVE",
"151 840 QCURVE",
"151 862 OFFCURVE",
"167 896 OFFCURVE",
"193 920 OFFCURVE",
"227 933 OFFCURVE",
"245 933 QCURVE"
);
},
{
closed = 1;
nodes = (
"537 933 OFFCURVE",
"594 884 OFFCURVE",
"594 840 QCURVE",
"594 794 OFFCURVE",
"538 747 OFFCURVE",
"500 747 QCURVE",
"463 747 OFFCURVE",
"406 794 OFFCURVE",
"406 840 QCURVE",
"406 862 OFFCURVE",
"422 896 OFFCURVE",
"448 920 OFFCURVE",
"482 933 OFFCURVE",
"500 933 QCURVE"
);
},
{
closed = 1;
nodes = (
"215 -8 OFFCURVE",
"62 161 OFFCURVE",
"62 326 QCURVE",
"62 708 LINE",
"244 708 LINE",
"244 315 LINE",
"244 286 OFFCURVE",
"256 231 OFFCURVE",
"286 187 OFFCURVE",
"337 161 OFFCURVE",
"375 161 QCURVE",
"415 161 OFFCURVE",
"465 188 OFFCURVE",
"493 232 OFFCURVE",
"503 287 OFFCURVE",
"503 315 QCURVE",
"503 708 LINE",
"685 708 LINE",
"685 326 LINE",
"685 162 OFFCURVE",
"534 -8 OFFCURVE",
"373 -8 QCURVE"
);
}
);
width = 747;
}
);
leftKerningGroup = _kern1;
rightKerningGroup = _kern2;
unicode = 00DC;
},
{
color = (246, 153, 255, 255);
glyphname = ccedilla;
layers = (
{
layerId = "DFDDFFA4-CA88-482C-9ABD-9EC74B35DAE9";
paths = (
{
closed = 1;
nodes = (
"321 153 OFFCURVE",
"362 184 OFFCURVE",
"367 211 QCURVE",
"543 211 LINE",
"541 164 OFFCURVE",
"509 89 OFFCURVE",
"455 34 OFFCURVE",
"383 2 OFFCURVE",
"341 -4 QCURVE",
"335 -28 LINE",
"355 -29 OFFCURVE",
"391 -40 OFFCURVE",
"420 -66 OFFCURVE",
"437 -107 OFFCURVE",
"437 -137 QCURVE",
"435 -175 OFFCURVE",
"406 -228 OFFCURVE",
"359 -264 OFFCURVE",
"300 -281 OFFCURVE",
"270 -281 QCURVE",
"240 -281 OFFCURVE",
"205 -276 OFFCURVE",
"191 -272 QCURVE",
"191 -169 LINE",
"248 -181 OFFCURVE",
"305 -164 OFFCURVE",
"305 -139 QCURVE",
"305 -122 OFFCURVE",
"276 -108 OFFCURVE",
"237 -106 OFFCURVE",
"200 -113 OFFCURVE",
"193 -116 QCURVE",
"226 -2 LINE",
"131 15 OFFCURVE",
"24 152 OFFCURVE",
"24 264 QCURVE",
"24 328 OFFCURVE",
"63 431 OFFCURVE",
"134 501 OFFCURVE",
"234 538 OFFCURVE",
"297 538 QCURVE",
"347 538 OFFCURVE",
"434 509 OFFCURVE",
"498 452 OFFCURVE",
"535 370 OFFCURVE",
"537 317 QCURVE",
"367 317 LINE",
"361 346 OFFCURVE",
"320 376 OFFCURVE",
"291 376 QCURVE",
"264 376 OFFCURVE",
"228 354 OFFCURVE",
"207 319 OFFCURVE",
"199 279 OFFCURVE",
"199 260 QCURVE",
"199 240 OFFCURVE",
"209 202 OFFCURVE",
"230 172 OFFCURVE",
"265 153 OFFCURVE",
"289 153 QCURVE"
);
}
);
width = 565;
}
);
leftKerningGroup = _kern5;
rightKerningGroup = _kern6;
unicode = 00E7;
},
{
color = (168, 255, 153, 255);
glyphname = uni0162;
layers = (
{
layerId = "DFDDFFA4-CA88-482C-9ABD-9EC74B35DAE9";
paths = (
{
closed = 1;
nodes = (
"5 540 LINE",
"5 708 LINE",
"607 708 LINE",
"607 540 LINE",
"396 540 LINE",
"396 0 LINE",
"362 0 LINE",
"355 -28 LINE",
"374 -29 OFFCURVE",
"410 -40 OFFCURVE",
"439 -65 OFFCURVE",
"456 -106 OFFCURVE",
"456 -136 QCURVE",
"454 -173 OFFCURVE",
"425 -226 OFFCURVE",
"378 -261 OFFCURVE",
"320 -278 OFFCURVE",
"290 -278 QCURVE",
"261 -278 OFFCURVE",
"226 -273 OFFCURVE",
"212 -269 QCURVE",
"212 -167 LINE",
"269 -179 OFFCURVE",
"325 -162 OFFCURVE",
"325 -138 QCURVE",
"325 -121 OFFCURVE",
"296 -107 OFFCURVE",
"258 -105 OFFCURVE",
"221 -112 OFFCURVE",
"214 -115 QCURVE",
"247 0 LINE",
"216 0 LINE",
"216 540 LINE"
);
}
);
width = 612;
}
);
leftKerningGroup = _kern28;
rightKerningGroup = _kern28;
unicode = 0162;
},
{
color = (168, 255, 153, 255);
glyphname = uni0163;
layers = (
{
layerId = "DFDDFFA4-CA88-482C-9ABD-9EC74B35DAE9";
paths = (
{
closed = 1;
nodes = (
"259 369 LINE",
"259 207 LINE",
"259 198 OFFCURVE",
"261 180 OFFCURVE",
"270 167 OFFCURVE",
"287 159 OFFCURVE",
"303 159 QCURVE",
"350 159 LINE",
"350 0 LINE",
"304 0 LINE",
"293 0 OFFCURVE",
"273 0 OFFCURVE",
"263 1 QCURVE",
"256 -28 LINE",
"275 -29 OFFCURVE",
"311 -40 OFFCURVE",
"340 -66 OFFCURVE",
"358 -107 OFFCURVE",
"358 -137 QCURVE",
"356 -175 OFFCURVE",
"326 -228 OFFCURVE",
"279 -264 OFFCURVE",
"220 -281 OFFCURVE",
"190 -281 QCURVE",
"161 -281 OFFCURVE",
"125 -276 OFFCURVE",
"111 -272 QCURVE",
"111 -169 LINE",
"169 -181 OFFCURVE",
"225 -164 OFFCURVE",
"225 -139 QCURVE",
"225 -122 OFFCURVE",
"196 -108 OFFCURVE",
"158 -106 OFFCURVE",
"120 -113 OFFCURVE",
"113 -116 QCURVE",
"155 26 LINE",
"119 45 OFFCURVE",
"82 119 OFFCURVE",
"82 180 QCURVE",
"82 369 LINE",
"9 369 LINE",
"9 527 LINE",
"82 527 LINE",
"82 658 LINE",
"259 658 LINE",
"259 527 LINE",
"356 527 LINE",
"356 369 LINE"
);
}
);
width = 377;
}
);
leftKerningGroup = _kern21;
rightKerningGroup = _kern21;
unicode = 0163;
},
{
color = (246, 153, 255, 255);
glyphname = Ccedilla;
layers = (
{
layerId = "DFDDFFA4-CA88-482C-9ABD-9EC74B35DAE9";
paths = (
{
closed = 1;
nodes = (
"215 322 OFFCURVE",
"233 253 OFFCURVE",
"272 198 OFFCURVE",
"336 163 OFFCURVE",
"382 163 QCURVE",
"441 163 OFFCURVE",
"513 215 OFFCURVE",
"524 263 QCURVE",
"699 263 LINE",
"694 203 OFFCURVE",
"649 110 OFFCURVE",
"577 43 OFFCURVE",
"485 2 OFFCURVE",
"433 -4 QCURVE",
"427 -28 LINE",
"446 -29 OFFCURVE",
"482 -40 OFFCURVE",
"511 -65 OFFCURVE",
"528 -106 OFFCURVE",
"528 -136 QCURVE",
"526 -173 OFFCURVE",
"497 -226 OFFCURVE",
"450 -261 OFFCURVE",
"392 -278 OFFCURVE",
"362 -278 QCURVE",
"333 -278 OFFCURVE",
"298 -273 OFFCURVE",
"284 -269 QCURVE",
"284 -167 LINE",
"341 -179 OFFCURVE",
"397 -162 OFFCURVE",
"397 -138 QCURVE",
"397 -121 OFFCURVE",
"368 -107 OFFCURVE",
"330 -105 OFFCURVE",
"293 -112 OFFCURVE",
"286 -115 QCURVE",
"318 -4 LINE",
"250 5 OFFCURVE",
"142 62 OFFCURVE",
"67 154 OFFCURVE",
"28 279 OFFCURVE",
"28 355 QCURVE",
"28 438 OFFCURVE",
"78 572 OFFCURVE",
"170 666 OFFCURVE",
"300 717 OFFCURVE",
"379 717 QCURVE",
"440 717 OFFCURVE",
"549 683 OFFCURVE",
"632 616 OFFCURVE",
"685 514 OFFCURVE",
"691 445 QCURVE",
"520 445 LINE",
"508 493 OFFCURVE",
"441 546 OFFCURVE",
"381 546 QCURVE",
"335 546 OFFCURVE",
"271 513 OFFCURVE",
"232 459 OFFCURVE",
"215 391 OFFCURVE",
"215 356 QCURVE"
);
}
);
width = 727;
}
);
leftKerningGroup = _kern3;
rightKerningGroup = _kern4;
unicode = 00C7;
},
{
color = (168, 255, 153, 255);
glyphname = scedilla;
layers = (
{
layerId = "DFDDFFA4-CA88-482C-9ABD-9EC74B35DAE9";
paths = (
{
closed = 1;
nodes = (
"233 394 OFFCURVE",
"207 380 OFFCURVE",
"207 368 QCURVE",
"207 361 OFFCURVE",
"219 346 OFFCURVE",
"238 341 QCURVE",
"271 333 OFFCURVE",
"330 321 OFFCURVE",
"360 315 QCURVE",
"384 310 OFFCURVE",
"434 293 OFFCURVE",
"475 260 OFFCURVE",
"500 208 OFFCURVE",
"500 170 QCURVE",
"498 124 OFFCURVE",
"463 61 OFFCURVE",
"410 19 OFFCURVE",
"343 -3 OFFCURVE",
"310 -6 QCURVE",
"305 -28 LINE",
"324 -29 OFFCURVE",
"361 -40 OFFCURVE",
"390 -66 OFFCURVE",
"407 -107 OFFCURVE",
"407 -137 QCURVE",
"405 -175 OFFCURVE",
"376 -228 OFFCURVE",
"328 -264 OFFCURVE",
"270 -281 OFFCURVE",
"239 -281 QCURVE",
"210 -281 OFFCURVE",
"175 -276 OFFCURVE",
"161 -272 QCURVE",
"161 -169 LINE",
"218 -181 OFFCURVE",
"275 -164 OFFCURVE",
"275 -139 QCURVE",
"275 -122 OFFCURVE",
"245 -108 OFFCURVE",
"207 -106 OFFCURVE",
"170 -113 OFFCURVE",
"163 -116 QCURVE",
"196 0 LINE",
"165 6 OFFCURVE",
"107 32 OFFCURVE",
"62 76 OFFCURVE",
"29 137 OFFCURVE",
"23 180 QCURVE",
"202 180 LINE",
"208 160 OFFCURVE",
"249 136 OFFCURVE",
"278 136 QCURVE",
"300 136 OFFCURVE",
"328 153 OFFCURVE",
"328 167 QCURVE",
"328 177 OFFCURVE",
"315 190 OFFCURVE",
"292 198 OFFCURVE",
"262 203 OFFCURVE",
"244 207 QCURVE",
"207 215 OFFCURVE",
"122 240 OFFCURVE",
"95 259 QCURVE",
"64 279 OFFCURVE",
"37 339 OFFCURVE",
"38 376 QCURVE",
"39 425 OFFCURVE",
"90 492 OFFCURVE",
"127 511 QCURVE",
"157 526 OFFCURVE",
"224 538 OFFCURVE",
"261 538 QCURVE",
"303 538 OFFCURVE",
"380 518 OFFCURVE",
"440 474 OFFCURVE",
"481 405 OFFCURVE",
"487 356 QCURVE",
"316 356 LINE",
"314 374 OFFCURVE",
"278 394 OFFCURVE",
"253 394 QCURVE"
);
}
);
width = 524;
}
);
leftKerningGroup = _kern5;
rightKerningGroup = _kern6;
unicode = 015F;
},
{
color = (168, 255, 153, 255);
glyphname = uni21A9;
layers = (
{
layerId = "DFDDFFA4-CA88-482C-9ABD-9EC74B35DAE9";
paths = (
{
closed = 1;
nodes = (
"165 518 LINE",
"165 676 LINE",
"811 676 LINE",
"884 676 OFFCURVE",
"1009 625 OFFCURVE",
"1100 534 OFFCURVE",
"1152 410 OFFCURVE",
"1152 337 QCURVE",
"1152 265 OFFCURVE",
"1100 142 OFFCURVE",
"1008 52 OFFCURVE",
"884 0 OFFCURVE",
"811 0 QCURVE",
"355 0 LINE",
"522 -135 LINE",
"426 -256 LINE",
"39 79 LINE",
"425 413 LINE",
"522 290 LINE",
"357 157 LINE",
"787 157 LINE",
"830 157 OFFCURVE",
"903 182 OFFCURVE",
"957 230 OFFCURVE",
"987 297 OFFCURVE",
"987 339 QCURVE",
"987 381 OFFCURVE",
"956 448 OFFCURVE",
"902 494 OFFCURVE",
"829 518 OFFCURVE",
"787 518 QCURVE"
);
}
);
width = 1191;
}
);
unicode = 21A9;
},
{
color = (168, 255, 153, 255);
glyphname = uni2713;
layers = (
{
layerId = "DFDDFFA4-CA88-482C-9ABD-9EC74B35DAE9";
paths = (
{
closed = 1;
nodes = (
"403 230 LINE",
"937 827 LINE",
"1061 716 LINE",
"407 -18 LINE",
"39 372 LINE",
"157 488 LINE"
);
}
);
width = 1100;
}
);
unicode = 2713;
},
{
color = (168, 255, 153, 255);
glyphname = divide;
layers = (
{
layerId = "DFDDFFA4-CA88-482C-9ABD-9EC74B35DAE9";
paths = (
{
closed = 1;
nodes = (
"39 284 LINE",
"39 438 LINE",
"529 438 LINE",
"529 284 LINE"
);
},
{
closed = 1;
nodes = (
"303 677 OFFCURVE",
"341 662 OFFCURVE",
"370 635 OFFCURVE",
"387 596 OFFCURVE",
"387 571 QCURVE",
"387 518 OFFCURVE",
"324 465 OFFCURVE",
"282 465 QCURVE",
"240 465 OFFCURVE",
"176 518 OFFCURVE",
"176 571 QCURVE",
"176 596 OFFCURVE",
"194 635 OFFCURVE",
"224 662 OFFCURVE",
"262 677 OFFCURVE",
"282 677 QCURVE"
);
},
{
closed = 1;
nodes = (
"303 256 OFFCURVE",
"341 241 OFFCURVE",
"370 214 OFFCURVE",
"387 175 OFFCURVE",
"387 150 QCURVE",
"387 97 OFFCURVE",
"324 44 OFFCURVE",
"282 44 QCURVE",
"240 44 OFFCURVE",
"176 97 OFFCURVE",
"176 150 QCURVE",
"176 175 OFFCURVE",
"194 214 OFFCURVE",
"224 241 OFFCURVE",
"262 256 OFFCURVE",
"282 256 QCURVE"
);
}
);
width = 568;
}
);
unicode = 00F7;
},
{
color = (168, 255, 153, 255);
glyphname = multiply;
layers = (
{
layerId = "DFDDFFA4-CA88-482C-9ABD-9EC74B35DAE9";
paths = (
{
closed = 1;
nodes = (
"318 257 LINE",
"160 96 LINE",
"50 206 LINE",
"208 361 LINE",
"50 515 LINE",
"161 622 LINE",
"318 466 LINE",
"471 622 LINE",
"584 516 LINE",
"425 361 LINE",
"585 207 LINE",
"474 96 LINE"
);
}
);
width = 635;
}
);
unicode = 00D7;
},
{
color = (168, 255, 153, 255);
glyphname = yen;
layers = (
{
layerId = "DFDDFFA4-CA88-482C-9ABD-9EC74B35DAE9";
paths = (
{
closed = 1;
nodes = (
"544 708 LINE",
"753 708 LINE",
"542 375 LINE",
"632 375 LINE",
"632 241 LINE",
"477 241 LINE",
"477 208 LINE",
"632 208 LINE",
"632 77 LINE",
"477 77 LINE",
"477 0 LINE",
"297 0 LINE",
"297 77 LINE",
"142 77 LINE",
"142 208 LINE",
"297 208 LINE",
"297 241 LINE",
"142 241 LINE",
"142 375 LINE",
"231 375 LINE",
"229 375 LINE",
"19 708 LINE",
"228 708 LINE",
"388 425 LINE"
);
}
);
width = 772;
}
);
unicode = 00A5;
},
{
color = (168, 255, 153, 255);
glyphname = uni20BD;
layers = (
{
layerId = "DFDDFFA4-CA88-482C-9ABD-9EC74B35DAE9";
paths = (
{
closed = 1;
nodes = (
"377 708 LINE",
"434 708 OFFCURVE",
"538 687 OFFCURVE",
"617 634 OFFCURVE",
"664 545 OFFCURVE",
"664 477 QCURVE",
"664 415 OFFCURVE",
"621 329 OFFCURVE",
"549 277 OFFCURVE",
"454 254 OFFCURVE",
"402 254 QCURVE",
"301 254 LINE",
"301 208 LINE",
"503 208 LINE",
"503 72 LINE",
"301 72 LINE",
"301 0 LINE",
"119 0 LINE",
"119 72 LINE",
"39 72 LINE",
"39 208 LINE",
"119 208 LINE",
"119 254 LINE",
"39 254 LINE",
"39 398 LINE",
"122 398 LINE",
"119 398 LINE",
"119 708 LINE"
);
},
{
closed = 1;
nodes = (
"376 398 LINE",
"426 398 OFFCURVE",
"485 432 OFFCURVE",
"485 470 QCURVE",
"485 508 OFFCURVE",
"431 540 OFFCURVE",
"379 540 QCURVE",
"301 540 LINE",
"301 398 LINE"
);
}
);
width = 693;
}
);
unicode = 20BD;
},
{
color = (168, 255, 153, 255);
glyphname = uni20B4;
layers = (
{
layerId = "DFDDFFA4-CA88-482C-9ABD-9EC74B35DAE9";
paths = (
{
closed = 1;
nodes = (
"366 718 OFFCURVE",
"449 702 OFFCURVE",
"519 663 OFFCURVE",
"565 594 OFFCURVE",
"565 542 QCURVE",
"565 527 OFFCURVE",
"559 493 OFFCURVE",
"552 480 QCURVE",
"592 480 LINE",
"592 370 LINE",
"465 370 LINE",
"439 353 OFFCURVE",
"419 341 OFFCURVE",
"412 337 QCURVE",
"592 337 LINE",
"592 229 LINE",
"255 229 LINE",
"246 223 OFFCURVE",
"238 207 OFFCURVE",
"238 202 QCURVE",
"238 181 OFFCURVE",
"276 157 OFFCURVE",
"313 157 QCURVE",
"351 157 OFFCURVE",
"386 183 OFFCURVE",
"393 201 QCURVE",
"566 201 LINE",
"565 141 OFFCURVE",
"519 61 OFFCURVE",
"445 13 OFFCURVE",
"350 -7 OFFCURVE",
"301 -7 QCURVE",
"264 -7 OFFCURVE",
"181 9 OFFCURVE",
"110 49 OFFCURVE",
"63 117 OFFCURVE",
"63 168 QCURVE",
"63 186 OFFCURVE",
"71 218 OFFCURVE",
"76 229 QCURVE",
"27 229 LINE",
"27 337 LINE",
"169 337 LINE",
"174 340 OFFCURVE",
"189 350 OFFCURVE",
"204 361 OFFCURVE",
"216 369 OFFCURVE",
"218 370 QCURVE",
"27 370 LINE",
"27 479 LINE",
"365 479 LINE",
"379 487 OFFCURVE",
"389 506 OFFCURVE",
"389 514 QCURVE",
"389 531 OFFCURVE",
"353 554 OFFCURVE",
"320 554 QCURVE",
"250 554 OFFCURVE",
"238 506 QCURVE",
"63 506 LINE",
"65 569 OFFCURVE",
"116 651 OFFCURVE",
"192 699 OFFCURVE",
"285 718 OFFCURVE",
"330 718 QCURVE"
);
}
);
width = 619;
}
);
unicode = 20B4;
},
{
color = (168, 255, 153, 255);
glyphname = sterling;
layers = (
{
layerId = "DFDDFFA4-CA88-482C-9ABD-9EC74B35DAE9";
paths = (
{
closed = 1;
nodes = (
"298 418 LINE",
"504 418 LINE",
"504 260 LINE",
"298 260 LINE",
"298 167 LINE",
"594 167 LINE",
"594 0 LINE",
"40 0 LINE",
"40 167 LINE",
"121 167 LINE",
"121 260 LINE",
"39 260 LINE",
"39 418 LINE",
"121 418 LINE",
"121 498 LINE",
"121 555 OFFCURVE",
"161 638 OFFCURVE",
"227 692 OFFCURVE",
"314 717 OFFCURVE",
"361 717 QCURVE",
"410 717 OFFCURVE",
"491 692 OFFCURVE",
"550 638 OFFCURVE",
"583 553 OFFCURVE",
"585 494 QCURVE",
"422 494 LINE",
"422 506 OFFCURVE",
"418 532 OFFCURVE",
"406 553 OFFCURVE",
"381 567 OFFCURVE",
"360 567 QCURVE",
"342 567 OFFCURVE",
"319 554 OFFCURVE",
"304 535 OFFCURVE",
"298 512 OFFCURVE",
"298 503 QCURVE"
);
}
);
width = 633;
}
);
unicode = 00A3;
},
{
color = (168, 255, 153, 255);
glyphname = Scedilla;
layers = (
{
layerId = "DFDDFFA4-CA88-482C-9ABD-9EC74B35DAE9";
paths = (
{
closed = 1;
nodes = (
"427 481 LINE",
"422 514 OFFCURVE",
"362 551 OFFCURVE",
"313 551 QCURVE",
"279 551 OFFCURVE",
"229 527 OFFCURVE",
"229 503 QCURVE",
"229 479 OFFCURVE",
"285 455 OFFCURVE",
"339 441 QCURVE",
"404 425 LINE",
"447 414 OFFCURVE",
"524 389 OFFCURVE",
"582 345 OFFCURVE",
"616 276 OFFCURVE",
"618 221 QCURVE",
"618 165 OFFCURVE",
"578 83 OFFCURVE",
"511 28 OFFCURVE",
"424 -2 OFFCURVE",
"378 -6 QCURVE",
"373 -28 LINE",
"392 -29 OFFCURVE",
"428 -40 OFFCURVE",
"457 -65 OFFCURVE",
"474 -106 OFFCURVE",
"474 -136 QCURVE",
"472 -173 OFFCURVE",
"443 -226 OFFCURVE",
"396 -261 OFFCURVE",
"338 -278 OFFCURVE",
"308 -278 QCURVE",
"279 -278 OFFCURVE",
"244 -273 OFFCURVE",
"230 -269 QCURVE",
"230 -167 LINE",
"287 -179 OFFCURVE",
"343 -162 OFFCURVE",
"343 -138 QCURVE",
"343 -121 OFFCURVE",
"314 -107 OFFCURVE",
"276 -105 OFFCURVE",
"239 -112 OFFCURVE",
"232 -115 QCURVE",
"265 -3 LINE",
"232 2 OFFCURVE",
"169 23 OFFCURVE",
"140 43 QCURVE",
"96 72 OFFCURVE",
"35 169 OFFCURVE",
"28 239 QCURVE",
"210 239 LINE",
"220 196 OFFCURVE",
"295 160 OFFCURVE",
"345 160 QCURVE",
"360 160 OFFCURVE",
"392 164 OFFCURVE",
"419 175 OFFCURVE",
"436 195 OFFCURVE",
"436 212 QCURVE",
"436 234 OFFCURVE",
"399 256 OFFCURVE",
"367 263 QCURVE",
"309 275 LINE",
"252 287 OFFCURVE",
"152 321 OFFCURVE",
"121 344 QCURVE",
"88 369 OFFCURVE",
"50 445 OFFCURVE",
"50 504 QCURVE",
"50 506 LINE",
"54 566 OFFCURVE",
"106 646 OFFCURVE",
"145 671 QCURVE",
"189 699 OFFCURVE",
"286 717 OFFCURVE",
"340 717 QCURVE",
"385 716 OFFCURVE",
"470 691 OFFCURVE",
"503 668 QCURVE",
"545 639 OFFCURVE",
"595 546 OFFCURVE",
"602 481 QCURVE"
);
}
);
width = 647;
}
);
leftKerningGroup = _kern3;
rightKerningGroup = _kern4;
unicode = 015E;
},
{
color = (168, 255, 153, 255);
glyphname = t_alt;
layers = (
{
layerId = "DFDDFFA4-CA88-482C-9ABD-9EC74B35DAE9";
paths = (
{
closed = 1;
nodes = (
"259 369 LINE",
"259 210 LINE",
"259 201 OFFCURVE",
"262 182 OFFCURVE",
"272 168 OFFCURVE",
"290 159 OFFCURVE",
"306 159 QCURVE",
"350 159 LINE",
"350 0 LINE",
"304 0 LINE",
"251 0 OFFCURVE",
"169 15 OFFCURVE",
"112 56 OFFCURVE",
"82 125 OFFCURVE",
"82 180 QCURVE",
"82 369 LINE",
"9 369 LINE",
"9 527 LINE",
"86 527 LINE",
"113 658 LINE",
"259 658 LINE",
"259 527 LINE",
"356 527 LINE",
"356 369 LINE"
);
}
);
width = 375;
}
);
leftKerningGroup = _kern21;
rightKerningGroup = _kern21;
},
{
color = (168, 255, 153, 255);
glyphname = alt_1;
layers = (
{
layerId = "DFDDFFA4-CA88-482C-9ABD-9EC74B35DAE9";
paths = (
{
closed = 1;
nodes = (
"192 163 LINE",
"192 482 LINE",
"59 482 LINE",
"59 623 LINE",
"89 623 OFFCURVE",
"146 630 OFFCURVE",
"193 648 OFFCURVE",
"230 678 OFFCURVE",
"241 701 QCURVE",
"373 701 LINE",
"373 163 LINE",
"523 163 LINE",
"523 0 LINE",
"27 0 LINE",
"27 163 LINE"
);
}
);
width = 522;
}
);
},
{
color = (168, 255, 153, 255);
glyphname = colon.uc;
layers = (
{
layerId = "DFDDFFA4-CA88-482C-9ABD-9EC74B35DAE9";
paths = (
{
closed = 1;
nodes = (
"174 607 OFFCURVE",
"212 592 OFFCURVE",
"241 565 OFFCURVE",
"258 526 OFFCURVE",
"258 501 QCURVE",
"258 448 OFFCURVE",
"195 395 OFFCURVE",
"153 395 QCURVE",
"111 395 OFFCURVE",
"47 448 OFFCURVE",
"47 501 QCURVE",
"47 526 OFFCURVE",
"65 565 OFFCURVE",
"95 592 OFFCURVE",
"133 607 OFFCURVE",
"153 607 QCURVE"
);
},
{
closed = 1;
nodes = (
"174 279 OFFCURVE",
"212 264 OFFCURVE",
"241 237 OFFCURVE",
"258 198 OFFCURVE",
"258 173 QCURVE",
"258 120 OFFCURVE",
"195 67 OFFCURVE",
"153 67 QCURVE",
"111 67 OFFCURVE",
"47 120 OFFCURVE",
"47 173 QCURVE",
"47 198 OFFCURVE",
"65 237 OFFCURVE",
"95 264 OFFCURVE",
"133 279 OFFCURVE",
"153 279 QCURVE"
);
}
);
width = 305;
}
);
},
{
color = (168, 255, 153, 255);
glyphname = t2.alt;
layers = (
{
layerId = "DFDDFFA4-CA88-482C-9ABD-9EC74B35DAE9";
paths = (
{
closed = 1;
nodes = (
"352 160 OFFCURVE",
"386 175 OFFCURVE",
"396 183 QCURVE",
"444 44 LINE",
"426 29 OFFCURVE",
"383 10 OFFCURVE",
"339 -2 OFFCURVE",
"298 -7 OFFCURVE",
"283 -7 QCURVE",
"183 -7 OFFCURVE",
"83 99 OFFCURVE",
"83 188 QCURVE",
"83 369 LINE",
"9 369 LINE",
"9 527 LINE",
"83 527 LINE",
"83 659 LINE",
"260 659 LINE",
"260 527 LINE",
"418 527 LINE",
"418 369 LINE",
"260 369 LINE",
"260 229 LINE",
"260 196 OFFCURVE",
"292 160 OFFCURVE",
"323 160 QCURVE"
);
}
);
width = 439;
}
);
},
{
color = (168, 255, 153, 255);
glyphname = hyphen.uc;
layers = (
{
layerId = "DFDDFFA4-CA88-482C-9ABD-9EC74B35DAE9";
paths = (
{
closed = 1;
nodes = (
"412 279 LINE",
"54 279 LINE",
"54 436 LINE",
"412 436 LINE"
);
}
);
width = 466;
}
);
},
{
color = (168, 255, 153, 255);
glyphname = uni00AD.uc;
layers = (
{
layerId = "DFDDFFA4-CA88-482C-9ABD-9EC74B35DAE9";
paths = (
{
closed = 1;
nodes = (
"412 279 LINE",
"54 279 LINE",
"54 436 LINE",
"412 436 LINE"
);
}
);
width = 466;
}
);
},
{
color = (168, 255, 153, 255);
glyphname = endash.uc;
layers = (
{
layerId = "DFDDFFA4-CA88-482C-9ABD-9EC74B35DAE9";
paths = (
{
closed = 1;
nodes = (
"54 279 LINE",
"54 436 LINE",
"576 436 LINE",
"576 279 LINE"
);
}
);
width = 630;
}
);
},
{
color = (168, 255, 153, 255);
glyphname = emdash.uc;
layers = (
{
layerId = "DFDDFFA4-CA88-482C-9ABD-9EC74B35DAE9";
paths = (
{
closed = 1;
nodes = (
"54 279 LINE",
"54 436 LINE",
"792 436 LINE",
"792 279 LINE"
);
}
);
width = 846;
}
);
},
{
color = (168, 255, 153, 255);
glyphname = uni2117;
layers = (
{
layerId = "DFDDFFA4-CA88-482C-9ABD-9EC74B35DAE9";
paths = (
{
closed = 1;
nodes = (
"371 -81 OFFCURVE",
"218 -28 OFFCURVE",
"104 75 OFFCURVE",
"39 225 OFFCURVE",
"39 322 QCURVE",
"39 416 OFFCURVE",
"105 566 OFFCURVE",
"220 671 OFFCURVE",
"373 726 OFFCURVE",
"460 726 QCURVE",
"543 726 OFFCURVE",
"694 669 OFFCURVE",
"808 564 OFFCURVE",
"876 415 OFFCURVE",
"876 322 QCURVE",
"876 226 OFFCURVE",
"812 76 OFFCURVE",
"700 -27 OFFCURVE",
"548 -81 OFFCURVE",
"460 -81 QCURVE"
);
},
{
closed = 1;
nodes = (
"534 55 OFFCURVE",
"638 94 OFFCURVE",
"706 165 OFFCURVE",
"739 262 OFFCURVE",
"739 321 QCURVE",
"739 377 OFFCURVE",
"704 475 OFFCURVE",
"635 547 OFFCURVE",
"532 588 OFFCURVE",
"463 588 QCURVE",
"396 588 OFFCURVE",
"291 548 OFFCURVE",
"219 477 OFFCURVE",
"182 379 OFFCURVE",
"182 321 QCURVE",
"182 262 OFFCURVE",
"218 164 OFFCURVE",
"289 94 OFFCURVE",
"394 55 OFFCURVE",
"463 55 QCURVE"
);
},
{
closed = 1;
nodes = (
"441 97 LINE",
"318 97 LINE",
"318 539 LINE",
"490 539 LINE",
"527 539 OFFCURVE",
"593 524 OFFCURVE",
"642 488 OFFCURVE",
"671 427 OFFCURVE",
"671 380 QCURVE",
"669 338 OFFCURVE",
"641 277 OFFCURVE",
"593 237 OFFCURVE",
"530 217 OFFCURVE",
"494 217 QCURVE",
"441 218 LINE"
);
},
{
closed = 1;
nodes = (
"441 429 LINE",
"441 323 LINE",
"491 323 LINE",
"523 323 OFFCURVE",
"551 359 OFFCURVE",
"550 377 QCURVE",
"549 399 OFFCURVE",
"522 429 OFFCURVE",
"489 429 QCURVE"
);
}
);
width = 915;
}
);
unicode = 2117;
},
{
color = (168, 255, 153, 255);
glyphname = f_alt;
layers = (
{
layerId = "DFDDFFA4-CA88-482C-9ABD-9EC74B35DAE9";
paths = (
{
closed = 1;
nodes = (
"386 527 LINE",
"386 369 LINE",
"261 369 LINE",
"261 0 LINE",
"84 0 LINE",
"84 369 LINE",
"9 369 LINE",
"9 527 LINE",
"84 527 LINE",
"84 556 LINE",
"84 606 OFFCURVE",
"120 680 OFFCURVE",
"178 727 OFFCURVE",
"255 749 OFFCURVE",
"298 749 QCURVE",
"333 749 OFFCURVE",
"400 732 OFFCURVE",
"426 717 QCURVE",
"383 580 LINE",
"376 585 OFFCURVE",
"344 597 OFFCURVE",
"325 597 QCURVE",
"293 597 OFFCURVE",
"261 565 OFFCURVE",
"261 538 QCURVE",
"261 527 LINE"
);
}
);
width = 383;
}
);
},
{
color = (168, 255, 153, 255);
glyphname = g_alt;
layers = (
{
layerId = "DFDDFFA4-CA88-482C-9ABD-9EC74B35DAE9";
paths = (
{
closed = 1;
nodes = (
"588 122 LINE",
"588 86 OFFCURVE",
"583 12 OFFCURVE",
"570 -59 OFFCURVE",
"546 -122 OFFCURVE",
"528 -147 QCURVE",
"483 -203 OFFCURVE",
"355 -248 OFFCURVE",
"286 -248 QCURVE",
"224 -248 OFFCURVE",
"99 -217 OFFCURVE",
"44 -182 QCURVE",
"98 -39 LINE",
"126 -60 OFFCURVE",
"207 -83 OFFCURVE",
"264 -83 QCURVE",
"304 -83 OFFCURVE",
"360 -63 OFFCURVE",
"394 -26 OFFCURVE",
"410 24 OFFCURVE",
"411 55 QCURVE",
"397 35 OFFCURVE",
"357 11 OFFCURVE",
"313 -3 OFFCURVE",
"271 -7 OFFCURVE",
"256 -7 QCURVE",
"198 -6 OFFCURVE",
"110 35 OFFCURVE",
"53 107 OFFCURVE",
"23 205 OFFCURVE",
"23 265 QCURVE",
"23 322 OFFCURVE",
"57 422 OFFCURVE",
"121 495 OFFCURVE",
"213 537 OFFCURVE",
"273 537 QCURVE",
"305 537 OFFCURVE",
"379 518 OFFCURVE",
"411 483 QCURVE",
"427 527 LINE",
"588 527 LINE"
);
},
{
closed = 1;
nodes = (
"276 376 OFFCURVE",
"234 355 OFFCURVE",
"209 320 OFFCURVE",
"199 279 OFFCURVE",
"199 260 QCURVE",
"199 241 OFFCURVE",
"212 203 OFFCURVE",
"237 172 OFFCURVE",
"276 153 OFFCURVE",
"303 153 QCURVE",
"331 153 OFFCURVE",
"373 171 OFFCURVE",
"399 202 OFFCURVE",
"411 243 OFFCURVE",
"411 267 QCURVE",
"411 286 OFFCURVE",
"399 325 OFFCURVE",
"374 357 OFFCURVE",
"334 376 OFFCURVE",
"306 376 QCURVE"
);
}
);
width = 635;
}
);
},
{
color = (168, 255, 153, 255);
glyphname = y;
layers = (
{
layerId = "DFDDFFA4-CA88-482C-9ABD-9EC74B35DAE9";
paths = (
{
closed = 1;
nodes = (
"381 13 OFFCURVE",
"302 -8 OFFCURVE",
"265 -8 QCURVE",
"214 -7 OFFCURVE",
"139 25 OFFCURVE",
"113 52 QCURVE",
"82 83 OFFCURVE",
"54 177 OFFCURVE",
"54 239 QCURVE",
"54 527 LINE",
"230 527 LINE",
"230 271 LINE",
"230 253 OFFCURVE",
"235 211 OFFCURVE",
"253 176 OFFCURVE",
"288 152 OFFCURVE",
"318 152 QCURVE",
"350 152 OFFCURVE",
"386 176 OFFCURVE",
"403 214 OFFCURVE",
"405 258 OFFCURVE",
"405 278 QCURVE",
"405 527 LINE",
"582 527 LINE",
"582 126 LINE",
"582 90 OFFCURVE",
"578 14 OFFCURVE",
"566 -58 OFFCURVE",
"542 -122 OFFCURVE",
"523 -147 QCURVE",
"478 -205 OFFCURVE",
"351 -248 OFFCURVE",
"281 -248 QCURVE",
"220 -248 OFFCURVE",
"102 -217 OFFCURVE",
"47 -182 QCURVE",
"101 -39 LINE",
"128 -59 OFFCURVE",
"207 -83 OFFCURVE",
"264 -83 QCURVE",
"334 -83 OFFCURVE",
"408 -23 OFFCURVE",
"407 42 QCURVE"
);
}
);
width = 629;
}
);
unicode = 0079;
},
{
color = (168, 255, 153, 255);
glyphname = a_alt;
layers = (
{
layerId = "DFDDFFA4-CA88-482C-9ABD-9EC74B35DAE9";
paths = (
{
closed = 1;
nodes = (
"204 150 OFFCURVE",
"235 130 OFFCURVE",
"261 131 QCURVE",
"303 132 OFFCURVE",
"361 185 OFFCURVE",
"363 227 QCURVE",
"339 225 OFFCURVE",
"289 220 OFFCURVE",
"265 215 QCURVE",
"241 211 OFFCURVE",
"204 190 OFFCURVE",
"204 170 QCURVE"
);
},
{
closed = 1;
nodes = (
"367 63 LINE",
"349 38 OFFCURVE",
"307 11 OFFCURVE",
"264 -4 OFFCURVE",
"222 -8 OFFCURVE",
"206 -8 QCURVE",
"171 -8 OFFCURVE",
"106 13 OFFCURVE",
"58 55 OFFCURVE",
"29 116 OFFCURVE",
"29 158 QCURVE",
"29 201 OFFCURVE",
"64 259 OFFCURVE",
"119 296 OFFCURVE",
"191 317 OFFCURVE",
"228 323 QCURVE",
"261 328 OFFCURVE",
"327 335 OFFCURVE",
"363 336 QCURVE",
"361 363 OFFCURVE",
"321 390 OFFCURVE",
"292 390 QCURVE",
"231 390 OFFCURVE",
"215 350 QCURVE",
"38 350 LINE",
"45 403 OFFCURVE",
"91 475 OFFCURVE",
"159 518 OFFCURVE",
"241 537 OFFCURVE",
"286 537 QCURVE",
"413 537 OFFCURVE",
"530 416 OFFCURVE",
"530 283 QCURVE",
"530 0 LINE",
"367 0 LINE"
);
}
);
width = 576;
}
);
leftKerningGroup = _kern27;
rightKerningGroup = _kern27;
},
{
color = (168, 255, 153, 255);
glyphname = uni0490;
layers = (
{
layerId = "DFDDFFA4-CA88-482C-9ABD-9EC74B35DAE9";
paths = (
{
closed = 1;
nodes = (
"67 0 LINE",
"67 708 LINE",
"398 708 LINE",
"398 883 LINE",
"579 883 LINE",
"579 540 LINE",
"248 540 LINE",
"248 0 LINE"
);
}
);
width = 591;
}
);
leftKerningGroup = _kern23;
rightKerningGroup = _kern23;
unicode = 0490;
},
{
color = (168, 255, 153, 255);
glyphname = uni0491;
layers = (
{
layerId = "DFDDFFA4-CA88-482C-9ABD-9EC74B35DAE9";
paths = (
{
closed = 1;
nodes = (
"459 676 LINE",
"459 369 LINE",
"224 369 LINE",
"224 0 LINE",
"47 0 LINE",
"47 527 LINE",
"286 527 LINE",
"286 676 LINE"
);
}
);
width = 467;
}
);
leftKerningGroup = _kern24;
rightKerningGroup = _kern24;
unicode = 0491;
},
{
color = (168, 255, 153, 255);
glyphname = uni0404;
layers = (
{
layerId = "DFDDFFA4-CA88-482C-9ABD-9EC74B35DAE9";
paths = (
{
closed = 1;
nodes = (
"464 434 LINE",
"464 275 LINE",
"218 275 LINE",
"219 246 OFFCURVE",
"246 203 OFFCURVE",
"290 176 OFFCURVE",
"343 163 OFFCURVE",
"370 163 QCURVE",
"396 163 OFFCURVE",
"445 172 OFFCURVE",
"485 193 OFFCURVE",
"515 230 OFFCURVE",
"523 257 QCURVE",
"696 257 LINE",
"689 192 OFFCURVE",
"634 93 OFFCURVE",
"547 26 OFFCURVE",
"436 -8 OFFCURVE",
"374 -8 QCURVE",
"288 -8 OFFCURVE",
"158 45 OFFCURVE",
"71 141 OFFCURVE",
"28 275 OFFCURVE",
"28 355 QCURVE",
"28 439 OFFCURVE",
"72 570 OFFCURVE",
"164 667 OFFCURVE",
"295 717 OFFCURVE",
"380 717 QCURVE",
"444 717 OFFCURVE",
"551 684 OFFCURVE",
"632 617 OFFCURVE",
"684 518 OFFCURVE",
"692 452 QCURVE",
"517 452 LINE",
"510 480 OFFCURVE",
"481 517 OFFCURVE",
"440 539 OFFCURVE",
"392 549 OFFCURVE",
"366 549 QCURVE",
"337 549 OFFCURVE",
"287 536 OFFCURVE",
"247 508 OFFCURVE",
"222 464 OFFCURVE",
"219 434 QCURVE"
);
}
);
width = 724;
}
);
unicode = 0404;
},
{
color = (168, 255, 153, 255);
glyphname = uni0454;
layers = (
{
layerId = "DFDDFFA4-CA88-482C-9ABD-9EC74B35DAE9";
paths = (
{
closed = 1;
nodes = (
"310 136 OFFCURVE",
"356 150 OFFCURVE",
"369 174 QCURVE",
"540 174 LINE",
"529 127 OFFCURVE",
"484 59 OFFCURVE",
"420 12 OFFCURVE",
"339 -11 OFFCURVE",
"294 -11 QCURVE",
"164 -11 OFFCURVE",
"23 132 OFFCURVE",
"23 263 QCURVE",
"23 325 OFFCURVE",
"61 426 OFFCURVE",
"130 497 OFFCURVE",
"231 535 OFFCURVE",
"295 535 QCURVE",
"340 535 OFFCURVE",
"422 509 OFFCURVE",
"487 460 OFFCURVE",
"531 388 OFFCURVE",
"540 342 QCURVE",
"366 342 LINE",
"355 367 OFFCURVE",
"306 386 OFFCURVE",
"280 386 QCURVE",
"266 386 OFFCURVE",
"236 379 OFFCURVE",
"213 365 OFFCURVE",
"198 343 OFFCURVE",
"197 330 QCURVE",
"356 330 LINE",
"356 191 LINE",
"195 191 LINE",
"196 176 OFFCURVE",
"215 155 OFFCURVE",
"241 142 OFFCURVE",
"271 136 OFFCURVE",
"284 136 QCURVE"
);
}
);
width = 560;
}
);
unicode = 0454;
},
{
color = (168, 255, 153, 255);
glyphname = uni0406;
layers = (
{
layerId = "DFDDFFA4-CA88-482C-9ABD-9EC74B35DAE9";
paths = (
{
closed = 1;
nodes = (
"248 0 LINE",
"67 0 LINE",
"67 708 LINE",
"248 708 LINE"
);
}
);
width = 315;
}
);
unicode = 0406;
},
{
color = (168, 255, 153, 255);
glyphname = uni0456;
layers = (
{
layerId = "DFDDFFA4-CA88-482C-9ABD-9EC74B35DAE9";
paths = (
{
closed = 1;
nodes = (
"235 0 LINE",
"59 0 LINE",
"59 527 LINE",
"235 527 LINE"
);
},
{
closed = 1;
nodes = (
"168 777 OFFCURVE",
"206 763 OFFCURVE",
"235 735 OFFCURVE",
"253 697 OFFCURVE",
"253 672 QCURVE",
"253 620 OFFCURVE",
"189 567 OFFCURVE",
"146 567 QCURVE",
"125 567 OFFCURVE",
"87 580 OFFCURVE",
"57 606 OFFCURVE",
"39 645 OFFCURVE",
"39 672 QCURVE",
"39 697 OFFCURVE",
"58 735 OFFCURVE",
"88 763 OFFCURVE",
"126 777 OFFCURVE",
"146 777 QCURVE"
);
}
);
width = 292;
}
);
unicode = 0456;
},
{
color = (168, 255, 153, 255);
glyphname = uni0407;
layers = (
{
layerId = "DFDDFFA4-CA88-482C-9ABD-9EC74B35DAE9";
paths = (
{
closed = 1;
nodes = (
"252 0 LINE",
"71 0 LINE",
"71 708 LINE",
"252 708 LINE"
);
},
{
closed = 1;
nodes = (
"98 931 OFFCURVE",
"149 881 OFFCURVE",
"149 841 QCURVE",
"149 800 OFFCURVE",
"99 751 OFFCURVE",
"59 751 QCURVE",
"17 751 OFFCURVE",
"-33 799 OFFCURVE",
"-33 841 QCURVE",
"-33 880 OFFCURVE",
"20 931 OFFCURVE",
"59 931 QCURVE"
);
},
{
closed = 1;
nodes = (
"305 931 OFFCURVE",
"357 881 OFFCURVE",
"357 841 QCURVE",
"357 800 OFFCURVE",
"307 751 OFFCURVE",
"266 751 QCURVE",
"225 751 OFFCURVE",
"174 799 OFFCURVE",
"174 841 QCURVE",
"174 880 OFFCURVE",
"228 931 OFFCURVE",
"266 931 QCURVE"
);
}
);
width = 324;
}
);
unicode = 0407;
},
{
color = (168, 255, 153, 255);
glyphname = uni0457;
layers = (
{
layerId = "DFDDFFA4-CA88-482C-9ABD-9EC74B35DAE9";
paths = (
{
closed = 1;
nodes = (
"250 0 LINE",
"74 0 LINE",
"74 527 LINE",
"250 527 LINE"
);
},
{
closed = 1;
nodes = (
"98 761 OFFCURVE",
"149 709 OFFCURVE",
"149 668 QCURVE",
"149 625 OFFCURVE",
"100 576 OFFCURVE",
"60 576 QCURVE",
"20 576 OFFCURVE",
"-30 625 OFFCURVE",
"-30 668 QCURVE",
"-30 708 OFFCURVE",
"21 761 OFFCURVE",
"60 761 QCURVE"
);
},
{
closed = 1;
nodes = (
"303 761 OFFCURVE",
"354 709 OFFCURVE",
"354 668 QCURVE",
"354 625 OFFCURVE",
"304 576 OFFCURVE",
"265 576 QCURVE",
"224 576 OFFCURVE",
"174 625 OFFCURVE",
"174 668 QCURVE",
"174 708 OFFCURVE",
"226 761 OFFCURVE",
"265 761 QCURVE"
);
}
);
width = 323;
}
);
unicode = 0457;
},
{
color = (168, 255, 153, 255);
glyphname = map;
layers = (
{
layerId = "DFDDFFA4-CA88-482C-9ABD-9EC74B35DAE9";
paths = (
{
closed = 1;
nodes = (
"49 684 LINE",
"51 686 OFFCURVE",
"53 686 QCURVE",
"92 686 LINE",
"95 686 OFFCURVE",
"96 687 QCURVE",
"115 706 LINE",
"117 708 OFFCURVE",
"119 708 QCURVE",
"215 708 LINE",
"217 708 OFFCURVE",
"219 706 QCURVE",
"265 660 LINE",
"266 659 OFFCURVE",
"268 659 QCURVE",
"301 659 LINE",
"306 659 OFFCURVE",
"306 654 QCURVE",
"306 629 LINE",
"306 624 OFFCURVE",
"312 624 QCURVE",
"318 624 LINE",
"321 624 OFFCURVE",
"322 625 QCURVE",
"338 642 LINE",
"339 643 OFFCURVE",
"342 643 QCURVE",
"374 643 LINE",
"379 643 OFFCURVE",
"379 638 QCURVE",
"379 612 LINE",
"379 610 OFFCURVE",
"381 608 QCURVE",
"401 588 LINE",
"404 584 OFFCURVE",
"408 588 QCURVE",
"418 598 LINE",
"419 599 OFFCURVE",
"422 599 QCURVE",
"428 599 LINE",
"434 599 OFFCURVE",
"434 594 QCURVE",
"434 515 LINE",
"434 513 OFFCURVE",
"432 511 QCURVE",
"426 505 LINE",
"422 501 OFFCURVE",
"426 497 QCURVE",
"485 438 LINE",
"486 437 OFFCURVE",
"488 437 QCURVE",
"500 437 LINE",
"505 437 OFFCURVE",
"505 432 QCURVE",
"505 398 LINE",
"505 361 LINE",
"505 359 OFFCURVE",
"507 357 QCURVE",
"529 335 LINE",
"531 333 OFFCURVE",
"533 333 QCURVE",
"545 333 LINE",
"548 333 OFFCURVE",
"549 332 QCURVE",
"565 315 LINE",
"567 313 OFFCURVE",
"567 311 QCURVE",
"567 274 LINE",
"567 272 OFFCURVE",
"565 270 QCURVE",
"559 265 LINE",
"555 261 OFFCURVE",
"559 257 QCURVE",
"580 237 LINE",
"581 236 OFFCURVE",
"581 233 QCURVE",
"581 228 OFFCURVE",
"576 228 QCURVE",
"557 228 LINE",
"543 228 LINE",
"541 228 OFFCURVE",
"540 229 QCURVE",
"531 238 LINE",
"527 241 OFFCURVE",
"524 238 QCURVE",
"513 227 LINE",
"508 224 OFFCURVE",
"505 227 QCURVE",
"490 242 LINE",
"487 245 OFFCURVE",
"482 242 QCURVE",
"455 215 LINE",
"453 213 OFFCURVE",
"452 213 QCURVE",
"443 213 LINE",
"438 213 OFFCURVE",
"438 219 QCURVE",
"438 253 LINE",
"438 257 OFFCURVE",
"431 259 OFFCURVE",
"429 257 QCURVE",
"407 235 LINE",
"406 234 OFFCURVE",
"406 232 QCURVE",
"406 205 LINE",
"406 202 OFFCURVE",
"407 201 QCURVE",
"417 191 LINE",
"420 187 OFFCURVE",
"417 184 QCURVE",
"397 164 LINE",
"396 163 OFFCURVE",
"396 160 QCURVE",
"396 135 LINE",
"396 133 OFFCURVE",
"394 131 QCURVE",
"372 109 LINE",
"371 108 OFFCURVE",
"371 106 QCURVE",
"371 94 LINE",
"371 92 OFFCURVE",
"369 90 QCURVE",
"357 78 LINE",
"355 76 OFFCURVE",
"354 76 QCURVE",
"345 76 LINE",
"343 76 OFFCURVE",
"342 75 QCURVE",
"332 65 LINE",
"330 63 OFFCURVE",
"330 61 QCURVE",
"330 23 LINE",
"330 17 OFFCURVE",
"325 17 QCURVE",
"305 17 LINE",
"302 17 OFFCURVE",
"301 16 QCURVE",
"287 1 LINE",
"286 1 OFFCURVE",
"285 0 OFFCURVE",
"283 0 QCURVE",
"280 0 LINE",
"275 0 OFFCURVE",
"275 5 QCURVE",
"275 28 LINE",
"275 30 OFFCURVE",
"273 32 QCURVE",
"264 41 LINE",
"260 44 OFFCURVE",
"264 48 QCURVE",
"276 60 LINE",
"282 64 OFFCURVE",
"276 68 QCURVE",
"264 80 LINE",
"263 81 OFFCURVE",
"263 84 QCURVE",
"263 169 LINE",
"263 172 OFFCURVE",
"264 173 QCURVE",
"278 186 LINE",
"279 187 OFFCURVE",
"279 190 QCURVE",
"279 309 LINE",
"279 312 OFFCURVE",
"278 313 QCURVE",
"265 325 LINE",
"264 326 OFFCURVE",
"264 329 QCURVE",
"264 352 LINE",
"264 355 OFFCURVE",
"262 355 QCURVE",
"216 402 LINE",
"214 404 OFFCURVE",
"214 406 QCURVE",
"214 427 LINE",
"214 430 OFFCURVE",
"213 431 QCURVE",
"167 477 LINE",
"165 479 OFFCURVE",
"165 480 QCURVE",
"165 506 LINE",
"165 509 OFFCURVE",
"164 510 QCURVE",
"133 540 LINE",
"132 541 OFFCURVE",
"132 544 QCURVE",
"132 573 LINE",
"132 575 OFFCURVE",
"130 577 QCURVE",
"109 598 LINE",
"107 600 OFFCURVE",
"107 602 QCURVE",
"107 628 LINE",
"107 631 OFFCURVE",
"106 632 QCURVE",
"83 655 LINE",
"81 657 OFFCURVE",
"79 657 QCURVE",
"37 657 LINE",
"32 657 OFFCURVE",
"32 662 QCURVE",
"32 664 LINE",
"32 667 OFFCURVE",
"33 668 QCURVE"
);
}
);
width = 653;
}
);
},
